%
M48
M72
T01C0.0240
T02C0.0394
T03C0.0400
T04C0.0433
T05C0.0472
T06C0.0984
%
T01
X9431Y1556
X7141Y4171
X13061Y6821
X13931Y7681
X14556Y8306
X12101Y8981
X10101Y9301
X9621Y9301
X12101Y10021
X16901Y11541
X19436Y11966
X21306Y12681
X21221Y13541
X23861Y12741
X23141Y11141
X25061Y10661
X23941Y10421
X24661Y10261
X25541Y9701
X22901Y9301
X22671Y8706
X20901Y9061
X20681Y8021
X22821Y7541
X23301Y7621
X22821Y7061
X24341Y7461
X25711Y8021
X27861Y7141
X26581Y6341
X26261Y5941
X24741Y6421
X25781Y6741
X23541Y5941
X22421Y5941
X22021Y5541
X23941Y5301
X24421Y5301
X25221Y4501
X26501Y5301
X21141Y3941
X16101Y4341
X6341Y9701
X5221Y10261
X22821Y10421
X29621Y12821
X23041Y15071
X34821Y9941
X36421Y9461
X38181Y9221
X37861Y6901
X39221Y6741
X34021Y6661
X36101Y2741
X38101Y13461
T02
X19333Y14284
X18333Y14284
X17333Y14284
X16333Y14284
X15333Y14284
X14333Y14284
X13333Y14284
X12333Y14284
X11333Y14284
X10333Y14284
X9333Y14284
X8333Y14284
X7333Y14284
X6333Y14284
X5333Y14284
X4333Y14284
T03
X34181Y4181
X35181Y4181
X36181Y4181
X38181Y4181
X39181Y4181
X40181Y4181
X40181Y5181
X39181Y5181
X38181Y5181
T04
X3181Y4681
X3181Y6681
T05
X37181Y13016
X37181Y14591
T06
X2168Y2079
X31695Y2079
X31695Y14284
X2168Y14284
M30
