G75*
G70*
%OFA0B0*%
%FSLAX24Y24*%
%IPPOS*%
%LPD*%
%AMOC8*
5,1,8,0,0,1.08239X$1,22.5*
%
%ADD10C,0.0000*%
%ADD11C,0.0660*%
%ADD12R,0.0512X0.0591*%
%ADD13R,0.0591X0.0512*%
%ADD14R,0.0787X0.1772*%
%ADD15R,0.1102X0.0945*%
%ADD16R,0.0472X0.0177*%
%ADD17R,0.0760X0.2100*%
%ADD18OC8,0.0600*%
%ADD19C,0.0600*%
%ADD20R,0.0394X0.0551*%
%ADD21R,0.0500X0.0220*%
%ADD22R,0.0220X0.0500*%
%ADD23R,0.0866X0.0236*%
%ADD24R,0.0390X0.0390*%
%ADD25R,0.0700X0.0700*%
%ADD26C,0.0700*%
%ADD27R,0.1024X0.0866*%
%ADD28R,0.1024X0.0787*%
%ADD29C,0.0100*%
%ADD30C,0.0160*%
%ADD31C,0.0400*%
%ADD32C,0.0120*%
D10*
X000181Y000181D02*
X000181Y016181D01*
X041681Y016181D01*
X041681Y000181D01*
X000181Y000181D01*
X001676Y002079D02*
X001678Y002123D01*
X001684Y002167D01*
X001694Y002210D01*
X001707Y002252D01*
X001725Y002292D01*
X001746Y002331D01*
X001770Y002368D01*
X001797Y002403D01*
X001828Y002435D01*
X001861Y002464D01*
X001897Y002490D01*
X001935Y002512D01*
X001975Y002531D01*
X002016Y002547D01*
X002059Y002559D01*
X002102Y002567D01*
X002146Y002571D01*
X002190Y002571D01*
X002234Y002567D01*
X002277Y002559D01*
X002320Y002547D01*
X002361Y002531D01*
X002401Y002512D01*
X002439Y002490D01*
X002475Y002464D01*
X002508Y002435D01*
X002539Y002403D01*
X002566Y002368D01*
X002590Y002331D01*
X002611Y002292D01*
X002629Y002252D01*
X002642Y002210D01*
X002652Y002167D01*
X002658Y002123D01*
X002660Y002079D01*
X002658Y002035D01*
X002652Y001991D01*
X002642Y001948D01*
X002629Y001906D01*
X002611Y001866D01*
X002590Y001827D01*
X002566Y001790D01*
X002539Y001755D01*
X002508Y001723D01*
X002475Y001694D01*
X002439Y001668D01*
X002401Y001646D01*
X002361Y001627D01*
X002320Y001611D01*
X002277Y001599D01*
X002234Y001591D01*
X002190Y001587D01*
X002146Y001587D01*
X002102Y001591D01*
X002059Y001599D01*
X002016Y001611D01*
X001975Y001627D01*
X001935Y001646D01*
X001897Y001668D01*
X001861Y001694D01*
X001828Y001723D01*
X001797Y001755D01*
X001770Y001790D01*
X001746Y001827D01*
X001725Y001866D01*
X001707Y001906D01*
X001694Y001948D01*
X001684Y001991D01*
X001678Y002035D01*
X001676Y002079D01*
X031203Y002079D02*
X031205Y002123D01*
X031211Y002167D01*
X031221Y002210D01*
X031234Y002252D01*
X031252Y002292D01*
X031273Y002331D01*
X031297Y002368D01*
X031324Y002403D01*
X031355Y002435D01*
X031388Y002464D01*
X031424Y002490D01*
X031462Y002512D01*
X031502Y002531D01*
X031543Y002547D01*
X031586Y002559D01*
X031629Y002567D01*
X031673Y002571D01*
X031717Y002571D01*
X031761Y002567D01*
X031804Y002559D01*
X031847Y002547D01*
X031888Y002531D01*
X031928Y002512D01*
X031966Y002490D01*
X032002Y002464D01*
X032035Y002435D01*
X032066Y002403D01*
X032093Y002368D01*
X032117Y002331D01*
X032138Y002292D01*
X032156Y002252D01*
X032169Y002210D01*
X032179Y002167D01*
X032185Y002123D01*
X032187Y002079D01*
X032185Y002035D01*
X032179Y001991D01*
X032169Y001948D01*
X032156Y001906D01*
X032138Y001866D01*
X032117Y001827D01*
X032093Y001790D01*
X032066Y001755D01*
X032035Y001723D01*
X032002Y001694D01*
X031966Y001668D01*
X031928Y001646D01*
X031888Y001627D01*
X031847Y001611D01*
X031804Y001599D01*
X031761Y001591D01*
X031717Y001587D01*
X031673Y001587D01*
X031629Y001591D01*
X031586Y001599D01*
X031543Y001611D01*
X031502Y001627D01*
X031462Y001646D01*
X031424Y001668D01*
X031388Y001694D01*
X031355Y001723D01*
X031324Y001755D01*
X031297Y001790D01*
X031273Y001827D01*
X031252Y001866D01*
X031234Y001906D01*
X031221Y001948D01*
X031211Y001991D01*
X031205Y002035D01*
X031203Y002079D01*
X036945Y013016D02*
X036947Y013046D01*
X036953Y013076D01*
X036962Y013105D01*
X036975Y013132D01*
X036992Y013157D01*
X037011Y013180D01*
X037034Y013201D01*
X037059Y013218D01*
X037085Y013232D01*
X037114Y013242D01*
X037143Y013249D01*
X037173Y013252D01*
X037204Y013251D01*
X037234Y013246D01*
X037263Y013237D01*
X037290Y013225D01*
X037316Y013210D01*
X037340Y013191D01*
X037361Y013169D01*
X037379Y013145D01*
X037394Y013118D01*
X037405Y013090D01*
X037413Y013061D01*
X037417Y013031D01*
X037417Y013001D01*
X037413Y012971D01*
X037405Y012942D01*
X037394Y012914D01*
X037379Y012887D01*
X037361Y012863D01*
X037340Y012841D01*
X037316Y012822D01*
X037290Y012807D01*
X037263Y012795D01*
X037234Y012786D01*
X037204Y012781D01*
X037173Y012780D01*
X037143Y012783D01*
X037114Y012790D01*
X037085Y012800D01*
X037059Y012814D01*
X037034Y012831D01*
X037011Y012852D01*
X036992Y012875D01*
X036975Y012900D01*
X036962Y012927D01*
X036953Y012956D01*
X036947Y012986D01*
X036945Y013016D01*
X036945Y014591D02*
X036947Y014621D01*
X036953Y014651D01*
X036962Y014680D01*
X036975Y014707D01*
X036992Y014732D01*
X037011Y014755D01*
X037034Y014776D01*
X037059Y014793D01*
X037085Y014807D01*
X037114Y014817D01*
X037143Y014824D01*
X037173Y014827D01*
X037204Y014826D01*
X037234Y014821D01*
X037263Y014812D01*
X037290Y014800D01*
X037316Y014785D01*
X037340Y014766D01*
X037361Y014744D01*
X037379Y014720D01*
X037394Y014693D01*
X037405Y014665D01*
X037413Y014636D01*
X037417Y014606D01*
X037417Y014576D01*
X037413Y014546D01*
X037405Y014517D01*
X037394Y014489D01*
X037379Y014462D01*
X037361Y014438D01*
X037340Y014416D01*
X037316Y014397D01*
X037290Y014382D01*
X037263Y014370D01*
X037234Y014361D01*
X037204Y014356D01*
X037173Y014355D01*
X037143Y014358D01*
X037114Y014365D01*
X037085Y014375D01*
X037059Y014389D01*
X037034Y014406D01*
X037011Y014427D01*
X036992Y014450D01*
X036975Y014475D01*
X036962Y014502D01*
X036953Y014531D01*
X036947Y014561D01*
X036945Y014591D01*
X031203Y014284D02*
X031205Y014328D01*
X031211Y014372D01*
X031221Y014415D01*
X031234Y014457D01*
X031252Y014497D01*
X031273Y014536D01*
X031297Y014573D01*
X031324Y014608D01*
X031355Y014640D01*
X031388Y014669D01*
X031424Y014695D01*
X031462Y014717D01*
X031502Y014736D01*
X031543Y014752D01*
X031586Y014764D01*
X031629Y014772D01*
X031673Y014776D01*
X031717Y014776D01*
X031761Y014772D01*
X031804Y014764D01*
X031847Y014752D01*
X031888Y014736D01*
X031928Y014717D01*
X031966Y014695D01*
X032002Y014669D01*
X032035Y014640D01*
X032066Y014608D01*
X032093Y014573D01*
X032117Y014536D01*
X032138Y014497D01*
X032156Y014457D01*
X032169Y014415D01*
X032179Y014372D01*
X032185Y014328D01*
X032187Y014284D01*
X032185Y014240D01*
X032179Y014196D01*
X032169Y014153D01*
X032156Y014111D01*
X032138Y014071D01*
X032117Y014032D01*
X032093Y013995D01*
X032066Y013960D01*
X032035Y013928D01*
X032002Y013899D01*
X031966Y013873D01*
X031928Y013851D01*
X031888Y013832D01*
X031847Y013816D01*
X031804Y013804D01*
X031761Y013796D01*
X031717Y013792D01*
X031673Y013792D01*
X031629Y013796D01*
X031586Y013804D01*
X031543Y013816D01*
X031502Y013832D01*
X031462Y013851D01*
X031424Y013873D01*
X031388Y013899D01*
X031355Y013928D01*
X031324Y013960D01*
X031297Y013995D01*
X031273Y014032D01*
X031252Y014071D01*
X031234Y014111D01*
X031221Y014153D01*
X031211Y014196D01*
X031205Y014240D01*
X031203Y014284D01*
X001676Y014284D02*
X001678Y014328D01*
X001684Y014372D01*
X001694Y014415D01*
X001707Y014457D01*
X001725Y014497D01*
X001746Y014536D01*
X001770Y014573D01*
X001797Y014608D01*
X001828Y014640D01*
X001861Y014669D01*
X001897Y014695D01*
X001935Y014717D01*
X001975Y014736D01*
X002016Y014752D01*
X002059Y014764D01*
X002102Y014772D01*
X002146Y014776D01*
X002190Y014776D01*
X002234Y014772D01*
X002277Y014764D01*
X002320Y014752D01*
X002361Y014736D01*
X002401Y014717D01*
X002439Y014695D01*
X002475Y014669D01*
X002508Y014640D01*
X002539Y014608D01*
X002566Y014573D01*
X002590Y014536D01*
X002611Y014497D01*
X002629Y014457D01*
X002642Y014415D01*
X002652Y014372D01*
X002658Y014328D01*
X002660Y014284D01*
X002658Y014240D01*
X002652Y014196D01*
X002642Y014153D01*
X002629Y014111D01*
X002611Y014071D01*
X002590Y014032D01*
X002566Y013995D01*
X002539Y013960D01*
X002508Y013928D01*
X002475Y013899D01*
X002439Y013873D01*
X002401Y013851D01*
X002361Y013832D01*
X002320Y013816D01*
X002277Y013804D01*
X002234Y013796D01*
X002190Y013792D01*
X002146Y013792D01*
X002102Y013796D01*
X002059Y013804D01*
X002016Y013816D01*
X001975Y013832D01*
X001935Y013851D01*
X001897Y013873D01*
X001861Y013899D01*
X001828Y013928D01*
X001797Y013960D01*
X001770Y013995D01*
X001746Y014032D01*
X001725Y014071D01*
X001707Y014111D01*
X001694Y014153D01*
X001684Y014196D01*
X001678Y014240D01*
X001676Y014284D01*
D11*
X004333Y014284D03*
X005333Y014284D03*
X006333Y014284D03*
X007333Y014284D03*
X008333Y014284D03*
X009333Y014284D03*
X010333Y014284D03*
X011333Y014284D03*
X012333Y014284D03*
X013333Y014284D03*
X014333Y014284D03*
X015333Y014284D03*
X016333Y014284D03*
X017333Y014284D03*
X018333Y014284D03*
X019333Y014284D03*
D12*
X020807Y014181D03*
X021555Y014181D03*
X019805Y009556D03*
X019057Y009556D03*
X019057Y007931D03*
X019805Y007931D03*
X019805Y006306D03*
X019057Y006306D03*
X021807Y004681D03*
X022555Y004681D03*
X023807Y004681D03*
X024555Y004681D03*
X025807Y004681D03*
X026555Y004681D03*
D13*
X027181Y006307D03*
X027181Y007055D03*
X027181Y009307D03*
X027181Y010055D03*
X021056Y011307D03*
X021056Y012055D03*
X013306Y012307D03*
X012306Y012307D03*
X011306Y012307D03*
X010306Y012307D03*
X010306Y013055D03*
X011306Y013055D03*
X012306Y013055D03*
X013306Y013055D03*
X007681Y013055D03*
X007681Y012307D03*
X006181Y012307D03*
X004681Y012307D03*
X004681Y013055D03*
X006181Y013055D03*
X006181Y011055D03*
X006181Y010307D03*
X005681Y004555D03*
X005681Y003807D03*
X005681Y003055D03*
X005681Y002307D03*
X007181Y002307D03*
X008681Y002307D03*
X008681Y003055D03*
X007181Y003055D03*
X010181Y003055D03*
X010181Y002307D03*
D14*
X009969Y007681D03*
X008394Y007681D03*
D15*
X005931Y008297D03*
X005931Y005816D03*
X012181Y005922D03*
X012181Y003441D03*
D16*
X009538Y004298D03*
X009538Y004553D03*
X009538Y004809D03*
X009538Y005065D03*
X007825Y005065D03*
X007825Y004809D03*
X007825Y004553D03*
X007825Y004298D03*
D17*
X016931Y006031D03*
X016931Y009831D03*
D18*
X038181Y005181D03*
X039181Y005181D03*
X040181Y005181D03*
X040181Y004181D03*
X039181Y004181D03*
X038181Y004181D03*
D19*
X036181Y004481D02*
X036181Y003881D01*
X035181Y003881D02*
X035181Y004481D01*
X034181Y004481D02*
X034181Y003881D01*
D20*
X005055Y011114D03*
X004307Y011114D03*
X004681Y010248D03*
D21*
X021491Y009284D03*
X021491Y008969D03*
X021491Y008654D03*
X021491Y008339D03*
X021491Y008024D03*
X021491Y007709D03*
X021491Y007394D03*
X021491Y007079D03*
X024871Y007079D03*
X024871Y007394D03*
X024871Y007709D03*
X024871Y008024D03*
X024871Y008339D03*
X024871Y008654D03*
X024871Y008969D03*
X024871Y009284D03*
D22*
X024284Y009871D03*
X023969Y009871D03*
X023654Y009871D03*
X023339Y009871D03*
X023024Y009871D03*
X022709Y009871D03*
X022394Y009871D03*
X022079Y009871D03*
X022079Y006491D03*
X022394Y006491D03*
X022709Y006491D03*
X023024Y006491D03*
X023339Y006491D03*
X023654Y006491D03*
X023969Y006491D03*
X024284Y006491D03*
D23*
X024580Y011681D03*
X024580Y012181D03*
X024580Y012681D03*
X024580Y013181D03*
X022533Y013181D03*
X022533Y012681D03*
X022533Y012181D03*
X022533Y011681D03*
X026783Y011681D03*
X026783Y012181D03*
X026783Y012681D03*
X026783Y013181D03*
X028830Y013181D03*
X028830Y012681D03*
X028830Y012181D03*
X028830Y011681D03*
D24*
G36*
X035509Y008964D02*
X035234Y009239D01*
X035509Y009514D01*
X035784Y009239D01*
X035509Y008964D01*
G37*
G36*
X036124Y009579D02*
X035849Y009854D01*
X036124Y010129D01*
X036399Y009854D01*
X036124Y009579D01*
G37*
G36*
X038291Y010076D02*
X038016Y009801D01*
X037741Y010076D01*
X038016Y010351D01*
X038291Y010076D01*
G37*
G36*
X038821Y009546D02*
X038546Y009271D01*
X038271Y009546D01*
X038546Y009821D01*
X038821Y009546D01*
G37*
G36*
X039351Y009016D02*
X039076Y008741D01*
X038801Y009016D01*
X039076Y009291D01*
X039351Y009016D01*
G37*
G36*
X035561Y007347D02*
X035286Y007072D01*
X035011Y007347D01*
X035286Y007622D01*
X035561Y007347D01*
G37*
G36*
X036092Y006817D02*
X035817Y006542D01*
X035542Y006817D01*
X035817Y007092D01*
X036092Y006817D01*
G37*
G36*
X036622Y006286D02*
X036347Y006011D01*
X036072Y006286D01*
X036347Y006561D01*
X036622Y006286D01*
G37*
G36*
X038239Y006234D02*
X037964Y006509D01*
X038239Y006784D01*
X038514Y006509D01*
X038239Y006234D01*
G37*
G36*
X038854Y006849D02*
X038579Y007124D01*
X038854Y007399D01*
X039129Y007124D01*
X038854Y006849D01*
G37*
D25*
X003181Y004681D03*
D26*
X003181Y006681D03*
D27*
X036000Y014197D03*
X038363Y014197D03*
D28*
X038166Y012268D03*
X036197Y012268D03*
D29*
X036181Y012341D01*
X036181Y012531D01*
X030871Y012531D01*
X030181Y013221D01*
X028901Y013221D01*
X028830Y013181D01*
X029461Y012661D02*
X029621Y012821D01*
X029461Y012661D02*
X028901Y012661D01*
X028830Y012681D01*
X028821Y012661D01*
X028501Y012661D01*
X028261Y012421D01*
X028261Y011701D01*
X028821Y011701D01*
X028830Y011681D01*
X027701Y011781D02*
X027301Y012181D01*
X026783Y012181D01*
X027701Y011781D02*
X027701Y010581D01*
X027221Y010101D01*
X027181Y010055D01*
X025541Y009701D02*
X025541Y008981D01*
X024901Y008981D01*
X024871Y008969D01*
X024871Y009284D02*
X024901Y009301D01*
X025141Y009541D01*
X025141Y010261D01*
X025461Y010581D01*
X025461Y013461D01*
X023851Y015071D01*
X023061Y015071D01*
X023061Y015061D01*
X023041Y015071D01*
X021621Y014181D02*
X021555Y014181D01*
X021621Y014181D02*
X021621Y013221D01*
X022101Y012741D01*
X022501Y012741D01*
X022533Y012681D01*
X022581Y012661D01*
X023061Y012661D01*
X023541Y012181D01*
X024580Y012181D01*
X024580Y012681D02*
X024501Y012741D01*
X023861Y012741D01*
X023061Y012181D02*
X022533Y012181D01*
X023061Y012181D02*
X023381Y011861D01*
X023381Y011381D01*
X023141Y011141D01*
X023301Y010821D02*
X023221Y010741D01*
X022981Y010741D01*
X022901Y010821D01*
X022021Y010821D01*
X022021Y009941D01*
X022079Y009871D01*
X022341Y009861D02*
X022394Y009871D01*
X022341Y009861D02*
X022341Y009061D01*
X022181Y008901D01*
X022181Y007541D01*
X021941Y007301D01*
X021941Y006981D01*
X021141Y006181D01*
X021141Y003941D01*
X022581Y003941D02*
X022581Y004661D01*
X022555Y004681D01*
X023807Y004681D02*
X023861Y004741D01*
X023861Y005221D01*
X023941Y005301D01*
X024421Y005301D02*
X024501Y005221D01*
X024501Y004741D01*
X024555Y004681D01*
X025221Y004501D02*
X025221Y004981D01*
X024021Y006181D01*
X024021Y006421D01*
X023969Y006491D01*
X024284Y006491D02*
X024341Y006421D01*
X024741Y006421D01*
X025061Y006581D02*
X025381Y006261D01*
X025381Y006341D01*
X025781Y006741D01*
X026181Y007141D02*
X024901Y007141D01*
X024871Y007079D01*
X024871Y007394D02*
X024821Y007461D01*
X024341Y007461D01*
X023941Y007381D02*
X024501Y006821D01*
X025061Y006821D01*
X025061Y006581D01*
X025381Y006261D02*
X025781Y005861D01*
X025781Y004741D01*
X025807Y004681D01*
X026501Y004741D02*
X026555Y004681D01*
X026501Y004741D02*
X026501Y005301D01*
X026581Y003941D02*
X027941Y005301D01*
X027941Y007061D01*
X027861Y007141D01*
X027221Y007061D02*
X027181Y007055D01*
X027221Y007061D02*
X027941Y007781D01*
X027941Y012661D01*
X027381Y013221D01*
X026821Y013221D01*
X026783Y013181D01*
X028830Y012181D02*
X035221Y012181D01*
X035221Y011701D01*
X035461Y011461D01*
X038101Y011461D01*
X038101Y012261D01*
X038166Y012268D01*
X038101Y013461D02*
X038101Y013941D01*
X038341Y014181D01*
X038363Y014197D01*
X036124Y009854D02*
X036181Y009781D01*
X036421Y009541D01*
X036421Y009461D01*
X035509Y009239D02*
X035461Y009301D01*
X034821Y009941D01*
X038181Y009221D02*
X038501Y009541D01*
X038546Y009546D01*
X038854Y007124D02*
X038901Y007061D01*
X039221Y006741D01*
X038239Y006509D02*
X038181Y006581D01*
X037861Y006901D01*
X035941Y004741D02*
X034021Y006661D01*
X037461Y004501D02*
X038181Y005221D01*
X038181Y005181D01*
X037461Y004501D02*
X037461Y004101D01*
X036101Y002741D01*
X036181Y004181D02*
X035941Y004421D01*
X035941Y004741D01*
X027181Y006307D02*
X027141Y006341D01*
X026581Y006341D01*
X026181Y006021D02*
X026181Y007141D01*
X026421Y007141D01*
X026421Y008101D01*
X027141Y008821D01*
X027141Y009301D01*
X027181Y009307D01*
X024661Y010261D02*
X024341Y009941D01*
X024284Y009871D01*
X023969Y009871D02*
X023941Y009941D01*
X023941Y010421D01*
X024901Y010821D02*
X025061Y010661D01*
X024901Y010821D02*
X023301Y010821D01*
X022821Y010421D02*
X022821Y010341D01*
X022981Y010181D01*
X022981Y009941D01*
X023024Y009871D01*
X023301Y009861D02*
X023339Y009871D01*
X023301Y009861D02*
X023301Y007621D01*
X022821Y007541D02*
X022421Y007141D01*
X022421Y006501D01*
X022394Y006491D01*
X022101Y006501D02*
X022079Y006491D01*
X022101Y006501D02*
X022101Y006821D01*
X022181Y006901D01*
X022181Y007221D01*
X022431Y007471D01*
X022431Y007681D01*
X022671Y007921D01*
X022671Y008706D01*
X022901Y009301D02*
X022661Y009541D01*
X022661Y009861D01*
X022709Y009871D01*
X023654Y009871D02*
X023701Y009861D01*
X023701Y009541D01*
X023941Y009301D01*
X023941Y007381D01*
X022821Y007061D02*
X022821Y006901D01*
X022741Y006821D01*
X022741Y006501D01*
X022709Y006491D01*
X022981Y006421D02*
X023024Y006491D01*
X022981Y006421D02*
X022981Y006181D01*
X022741Y005941D01*
X022421Y005941D01*
X022661Y005541D02*
X023301Y006181D01*
X023301Y006421D01*
X023339Y006491D01*
X023621Y006421D02*
X023654Y006491D01*
X023621Y006421D02*
X023621Y006181D01*
X023541Y006101D01*
X023541Y005941D01*
X022661Y005541D02*
X022021Y005541D01*
X019861Y006341D02*
X019805Y006306D01*
X019781Y006261D01*
X019621Y006101D01*
X019621Y005781D01*
X019461Y005621D01*
X016981Y005621D01*
X016981Y006021D01*
X016931Y006031D01*
X018421Y007061D02*
X018421Y008341D01*
X018421Y008421D01*
X018901Y008901D01*
X018901Y009461D01*
X018981Y009541D01*
X019057Y009556D01*
X020561Y010041D02*
X021301Y009301D01*
X021461Y009301D01*
X021491Y009284D01*
X021221Y008981D02*
X021141Y009061D01*
X020901Y009061D01*
X021221Y008981D02*
X021461Y008981D01*
X021491Y008969D01*
X021061Y008736D02*
X021061Y008661D01*
X021461Y008661D01*
X021491Y008654D01*
X021461Y008341D02*
X021216Y008341D01*
X021061Y008186D01*
X021061Y008021D01*
X020681Y008021D01*
X020661Y008021D01*
X020661Y007941D01*
X019861Y007941D01*
X019805Y007931D01*
X020341Y007381D02*
X020021Y007061D01*
X018421Y007061D01*
X019861Y006421D02*
X019861Y006341D01*
X019861Y006421D02*
X020581Y006421D01*
X021221Y007061D01*
X021461Y007061D01*
X021491Y007079D01*
X021461Y007381D02*
X021491Y007394D01*
X021461Y007381D02*
X020341Y007381D01*
X021061Y007709D02*
X021061Y008021D01*
X021461Y008341D02*
X021491Y008339D01*
X021491Y007709D02*
X021061Y007709D01*
X018421Y008341D02*
X016931Y009831D01*
X016981Y009861D01*
X016981Y010261D01*
X016901Y011541D02*
X014341Y014101D01*
X014341Y014261D01*
X014333Y014284D01*
X013333Y014284D02*
X013301Y014261D01*
X013301Y013061D01*
X013306Y013055D01*
X012341Y013061D02*
X012306Y013055D01*
X012341Y013061D02*
X012341Y014261D01*
X012333Y014284D01*
X011333Y014284D02*
X011301Y014261D01*
X011301Y013061D01*
X011306Y013055D01*
X010341Y013061D02*
X010306Y013055D01*
X010341Y013061D02*
X010341Y014261D01*
X010333Y014284D01*
X009381Y014261D02*
X009333Y014284D01*
X009381Y014261D02*
X009381Y011061D01*
X016101Y004341D01*
X012181Y005861D02*
X012181Y005922D01*
X012181Y005941D01*
X009538Y005065D02*
X009461Y005061D01*
X009541Y004821D02*
X009538Y004809D01*
X009541Y004581D02*
X009538Y004553D01*
X009541Y004581D02*
X009781Y004581D01*
X009861Y004553D01*
X009538Y004298D02*
X009461Y004261D01*
X009541Y004261D02*
X009538Y004298D01*
X010101Y003781D02*
X010101Y003701D01*
X010181Y003621D01*
X010181Y003181D01*
X009556Y003181D01*
X009461Y003086D01*
X009461Y001541D01*
X007941Y001541D01*
X007221Y002261D01*
X007181Y002307D01*
X007181Y003055D02*
X007141Y003061D01*
X007141Y004171D01*
X007141Y004581D01*
X007781Y004581D01*
X007825Y004553D01*
X007825Y004298D02*
X007861Y004261D01*
X008661Y003461D01*
X008661Y003061D01*
X008681Y003055D01*
X010181Y003055D02*
X010181Y003181D01*
X006421Y003546D02*
X006306Y003431D01*
X005701Y003431D01*
X005701Y003781D01*
X005681Y003807D01*
X006421Y003546D02*
X006421Y004821D01*
X007781Y004821D01*
X007825Y004809D01*
X005681Y004555D02*
X005621Y004581D01*
X003941Y004581D01*
X003941Y005861D01*
X003701Y006101D01*
X008341Y007701D02*
X008394Y007681D01*
X008341Y007701D02*
X008341Y008341D01*
X009941Y007621D02*
X009969Y007681D01*
X012101Y008981D02*
X012101Y010021D01*
X010101Y009301D02*
X008661Y010741D01*
X008661Y013701D01*
X008341Y014021D01*
X008341Y014261D01*
X008333Y014284D01*
X007381Y014261D02*
X007381Y014101D01*
X008421Y013061D01*
X008421Y010501D01*
X009621Y009301D01*
X006341Y009701D02*
X006181Y009861D01*
X006181Y010307D01*
X005221Y010261D02*
X004741Y010261D01*
X004681Y010248D01*
X005055Y011114D02*
X005061Y011141D01*
X006181Y012261D01*
X006181Y012307D01*
X006181Y012341D01*
X004741Y012341D01*
X004681Y012307D01*
X004681Y013055D02*
X004741Y013061D01*
X005301Y013621D01*
X005301Y014261D01*
X005333Y014284D01*
X007333Y014284D02*
X007381Y014261D01*
X007681Y013055D02*
X007621Y012981D01*
X006901Y012981D01*
X006181Y012981D01*
X006181Y013055D01*
X006901Y012981D02*
X006901Y011781D01*
X006181Y011061D01*
X006181Y011055D01*
X005941Y008341D02*
X005931Y008297D01*
X005861Y008261D01*
X005701Y003431D02*
X005701Y003061D01*
X005681Y003055D01*
X022581Y003941D02*
X026581Y003941D01*
X026261Y005941D02*
X026181Y006021D01*
X025711Y008021D02*
X024901Y008021D01*
X024871Y008024D01*
X020561Y010041D02*
X020561Y012881D01*
X021221Y013541D01*
X020807Y014181D02*
X020741Y014181D01*
X019861Y015061D01*
X018581Y015061D01*
X018581Y014581D01*
X018341Y014341D01*
X018333Y014284D01*
X017381Y014261D02*
X017381Y014021D01*
X019436Y011966D01*
X021056Y012055D02*
X021056Y012431D01*
X021306Y012681D01*
X017381Y014261D02*
X017333Y014284D01*
D30*
X014556Y008306D02*
X013931Y007681D01*
X013061Y006821D02*
X012181Y005941D01*
X012181Y005861D02*
X010101Y003781D01*
X010101Y003701D02*
X009541Y004261D01*
X009461Y004261D02*
X009061Y004261D01*
X008821Y004501D01*
X008821Y005061D01*
X009461Y005061D01*
X009541Y004821D02*
X009941Y004821D01*
X009941Y007621D01*
X008341Y008341D02*
X005941Y008341D01*
X005861Y008261D02*
X003701Y006101D01*
X003221Y006581D01*
X003221Y006661D01*
X003181Y006681D01*
D31*
X007141Y004171D03*
X009431Y001556D03*
X016101Y004341D03*
X021141Y003941D03*
X023941Y005301D03*
X024421Y005301D03*
X023541Y005941D03*
X022421Y005941D03*
X022021Y005541D03*
X024741Y006421D03*
X025781Y006741D03*
X026581Y006341D03*
X026261Y005941D03*
X026501Y005301D03*
X025221Y004501D03*
X022821Y007061D03*
X022821Y007541D03*
X023301Y007621D03*
X024341Y007461D03*
X025711Y008021D03*
X027861Y007141D03*
X022671Y008706D03*
X022901Y009301D03*
X020901Y009061D03*
X020681Y008021D03*
X025541Y009701D03*
X024661Y010261D03*
X023941Y010421D03*
X025061Y010661D03*
X023141Y011141D03*
X022821Y010421D03*
X019436Y011966D03*
X021306Y012681D03*
X021221Y013541D03*
X023861Y012741D03*
X029621Y012821D03*
X023041Y015071D03*
X016901Y011541D03*
X012101Y010021D03*
X010101Y009301D03*
X009621Y009301D03*
X012101Y008981D03*
X014556Y008306D03*
X013931Y007681D03*
X013061Y006821D03*
X006341Y009701D03*
X005221Y010261D03*
X034021Y006661D03*
X037861Y006901D03*
X039221Y006741D03*
X038181Y009221D03*
X036421Y009461D03*
X034821Y009941D03*
X038101Y013461D03*
X036101Y002741D03*
D32*
X035781Y002908D02*
X032182Y002908D01*
X032235Y002886D02*
X031885Y003031D01*
X031506Y003031D01*
X031156Y002886D01*
X030888Y002618D01*
X030743Y002268D01*
X030743Y001890D01*
X030888Y001540D01*
X031156Y001272D01*
X031506Y001127D01*
X031885Y001127D01*
X032235Y001272D01*
X032502Y001540D01*
X032647Y001890D01*
X032647Y002268D01*
X032502Y002618D01*
X032235Y002886D01*
X032331Y002789D02*
X035741Y002789D01*
X035741Y002813D02*
X035741Y002670D01*
X035796Y002537D01*
X035897Y002436D01*
X036030Y002381D01*
X036173Y002381D01*
X036305Y002436D01*
X036407Y002537D01*
X036461Y002670D01*
X036461Y002804D01*
X037548Y003891D01*
X037671Y004014D01*
X037671Y004414D01*
X037985Y004728D01*
X037991Y004721D01*
X038372Y004721D01*
X038641Y004991D01*
X038641Y005372D01*
X038372Y005641D01*
X037991Y005641D01*
X037721Y005372D01*
X037721Y005058D01*
X037251Y004588D01*
X037251Y004414D01*
X037251Y004188D01*
X036164Y003101D01*
X036030Y003101D01*
X035897Y003047D01*
X035796Y002945D01*
X035741Y002813D01*
X035741Y002671D02*
X032450Y002671D01*
X032530Y002552D02*
X035790Y002552D01*
X035903Y002434D02*
X032579Y002434D01*
X032628Y002315D02*
X041221Y002315D01*
X041221Y002197D02*
X032647Y002197D01*
X032647Y002078D02*
X041221Y002078D01*
X041221Y001960D02*
X032647Y001960D01*
X032627Y001841D02*
X041221Y001841D01*
X041221Y001722D02*
X032578Y001722D01*
X032529Y001604D02*
X041221Y001604D01*
X041221Y001485D02*
X032448Y001485D01*
X032329Y001367D02*
X041221Y001367D01*
X041221Y001248D02*
X032178Y001248D01*
X031891Y001130D02*
X041221Y001130D01*
X041221Y001011D02*
X000641Y001011D01*
X000641Y000893D02*
X041221Y000893D01*
X041221Y000774D02*
X000641Y000774D01*
X000641Y000656D02*
X041221Y000656D01*
X041221Y000641D02*
X041221Y015721D01*
X000641Y015721D01*
X000641Y000641D01*
X041221Y000641D01*
X041221Y002434D02*
X036299Y002434D01*
X036413Y002552D02*
X041221Y002552D01*
X041221Y002671D02*
X036461Y002671D01*
X036461Y002789D02*
X041221Y002789D01*
X041221Y002908D02*
X036565Y002908D01*
X036683Y003026D02*
X041221Y003026D01*
X041221Y003145D02*
X036802Y003145D01*
X036920Y003264D02*
X041221Y003264D01*
X041221Y003382D02*
X037039Y003382D01*
X037158Y003501D02*
X041221Y003501D01*
X041221Y003619D02*
X037276Y003619D01*
X037395Y003738D02*
X037975Y003738D01*
X037991Y003721D02*
X038141Y003721D01*
X038141Y004141D01*
X038221Y004141D01*
X038221Y003721D01*
X038372Y003721D01*
X038641Y003991D01*
X038641Y004141D01*
X038222Y004141D01*
X038222Y004221D01*
X038641Y004221D01*
X038641Y004372D01*
X038372Y004641D01*
X038221Y004641D01*
X038221Y004222D01*
X038141Y004222D01*
X038141Y004641D01*
X037991Y004641D01*
X037721Y004372D01*
X037721Y004221D01*
X038141Y004221D01*
X038141Y004141D01*
X037721Y004141D01*
X037721Y003991D01*
X037991Y003721D01*
X038141Y003738D02*
X038221Y003738D01*
X038221Y003856D02*
X038141Y003856D01*
X038141Y003975D02*
X038221Y003975D01*
X038221Y004093D02*
X038141Y004093D01*
X038141Y004212D02*
X037671Y004212D01*
X037671Y004330D02*
X037721Y004330D01*
X037706Y004449D02*
X037798Y004449D01*
X037824Y004568D02*
X037917Y004568D01*
X037943Y004686D02*
X041221Y004686D01*
X041221Y004568D02*
X040446Y004568D01*
X040372Y004641D02*
X039991Y004641D01*
X039721Y004372D01*
X039721Y003991D01*
X039991Y003721D01*
X040372Y003721D01*
X040641Y003991D01*
X040641Y004372D01*
X040372Y004641D01*
X040372Y004721D02*
X040641Y004991D01*
X040641Y005372D01*
X040372Y005641D01*
X039991Y005641D01*
X039721Y005372D01*
X039721Y004991D01*
X039991Y004721D01*
X040372Y004721D01*
X040455Y004805D02*
X041221Y004805D01*
X041221Y004923D02*
X040574Y004923D01*
X040641Y005042D02*
X041221Y005042D01*
X041221Y005160D02*
X040641Y005160D01*
X040641Y005279D02*
X041221Y005279D01*
X041221Y005397D02*
X040616Y005397D01*
X040497Y005516D02*
X041221Y005516D01*
X041221Y005634D02*
X040379Y005634D01*
X039984Y005634D02*
X039379Y005634D01*
X039372Y005641D02*
X038991Y005641D01*
X038721Y005372D01*
X038721Y004991D01*
X038991Y004721D01*
X039372Y004721D01*
X039641Y004991D01*
X039641Y005372D01*
X039372Y005641D01*
X039497Y005516D02*
X039865Y005516D01*
X039747Y005397D02*
X039616Y005397D01*
X039641Y005279D02*
X039721Y005279D01*
X039721Y005160D02*
X039641Y005160D01*
X039641Y005042D02*
X039721Y005042D01*
X039789Y004923D02*
X039574Y004923D01*
X039455Y004805D02*
X039908Y004805D01*
X039641Y004372D02*
X039372Y004641D01*
X038991Y004641D01*
X038721Y004372D01*
X038721Y003991D01*
X038991Y003721D01*
X039372Y003721D01*
X039641Y003991D01*
X039641Y004372D01*
X039641Y004330D02*
X039721Y004330D01*
X039721Y004212D02*
X039641Y004212D01*
X039641Y004093D02*
X039721Y004093D01*
X039737Y003975D02*
X039625Y003975D01*
X039507Y003856D02*
X039856Y003856D01*
X039975Y003738D02*
X039388Y003738D01*
X038975Y003738D02*
X038388Y003738D01*
X038507Y003856D02*
X038856Y003856D01*
X038737Y003975D02*
X038625Y003975D01*
X038641Y004093D02*
X038721Y004093D01*
X038721Y004212D02*
X038222Y004212D01*
X038221Y004330D02*
X038141Y004330D01*
X038141Y004449D02*
X038221Y004449D01*
X038221Y004568D02*
X038141Y004568D01*
X038446Y004568D02*
X038917Y004568D01*
X038798Y004449D02*
X038564Y004449D01*
X038641Y004330D02*
X038721Y004330D01*
X039446Y004568D02*
X039917Y004568D01*
X039798Y004449D02*
X039564Y004449D01*
X038908Y004805D02*
X038455Y004805D01*
X038574Y004923D02*
X038789Y004923D01*
X038721Y005042D02*
X038641Y005042D01*
X038641Y005160D02*
X038721Y005160D01*
X038721Y005279D02*
X038641Y005279D01*
X038616Y005397D02*
X038747Y005397D01*
X038865Y005516D02*
X038497Y005516D01*
X038379Y005634D02*
X038984Y005634D01*
X038340Y006109D02*
X041221Y006109D01*
X041221Y006227D02*
X038459Y006227D01*
X038577Y006346D02*
X041221Y006346D01*
X041221Y006464D02*
X039453Y006464D01*
X039425Y006436D02*
X039527Y006537D01*
X039581Y006670D01*
X039581Y006813D01*
X039527Y006945D01*
X039425Y007047D01*
X039293Y007101D01*
X039289Y007101D01*
X039289Y007191D01*
X038920Y007560D01*
X038787Y007560D01*
X038418Y007191D01*
X038418Y007058D01*
X038787Y006689D01*
X038861Y006689D01*
X038861Y006670D01*
X038916Y006537D01*
X039017Y006436D01*
X039150Y006381D01*
X039293Y006381D01*
X039425Y006436D01*
X039545Y006583D02*
X041221Y006583D01*
X041221Y006701D02*
X039581Y006701D01*
X039579Y006820D02*
X041221Y006820D01*
X041221Y006938D02*
X039529Y006938D01*
X039400Y007057D02*
X041221Y007057D01*
X041221Y007175D02*
X039289Y007175D01*
X039186Y007294D02*
X041221Y007294D01*
X041221Y007413D02*
X039067Y007413D01*
X038949Y007531D02*
X041221Y007531D01*
X041221Y007650D02*
X035486Y007650D01*
X035511Y007624D02*
X035385Y007751D01*
X035348Y007772D01*
X035307Y007783D01*
X035265Y007783D01*
X035225Y007772D01*
X035188Y007751D01*
X035062Y007625D01*
X035286Y007400D01*
X035233Y007347D01*
X035009Y007571D01*
X034883Y007445D01*
X034861Y007409D01*
X034851Y007368D01*
X034851Y007326D01*
X034861Y007285D01*
X034883Y007249D01*
X035009Y007123D01*
X035233Y007347D01*
X035286Y007294D01*
X035180Y007294D01*
X035286Y007294D02*
X035062Y007069D01*
X035188Y006943D01*
X035225Y006922D01*
X035265Y006911D01*
X035307Y006911D01*
X035348Y006922D01*
X035385Y006943D01*
X035511Y007069D01*
X035286Y007294D01*
X035339Y007347D01*
X035564Y007123D01*
X035690Y007249D01*
X035711Y007285D01*
X035722Y007326D01*
X035722Y007368D01*
X035711Y007409D01*
X035690Y007445D01*
X035564Y007571D01*
X035340Y007347D01*
X035286Y007400D01*
X035511Y007624D01*
X035524Y007531D02*
X035417Y007531D01*
X035405Y007413D02*
X035299Y007413D01*
X035274Y007413D02*
X035168Y007413D01*
X035155Y007531D02*
X035049Y007531D01*
X034968Y007531D02*
X027988Y007531D01*
X027951Y007494D02*
X028028Y007571D01*
X028151Y007694D01*
X028151Y011514D01*
X028174Y011491D01*
X028243Y011491D01*
X028331Y011403D01*
X029329Y011403D01*
X029423Y011497D01*
X029423Y011866D01*
X029357Y011931D01*
X029397Y011971D01*
X035011Y011971D01*
X035011Y011788D01*
X035011Y011614D01*
X035251Y011374D01*
X035374Y011251D01*
X038014Y011251D01*
X038188Y011251D01*
X038311Y011374D01*
X038311Y011714D01*
X038744Y011714D01*
X038837Y011808D01*
X038837Y012728D01*
X038744Y012822D01*
X037854Y012822D01*
X037878Y012878D01*
X037878Y013155D01*
X037862Y013191D01*
X037897Y013156D01*
X038030Y013101D01*
X038173Y013101D01*
X038305Y013156D01*
X038407Y013257D01*
X038461Y013390D01*
X038461Y013533D01*
X038432Y013604D01*
X038941Y013604D01*
X039034Y013698D01*
X039034Y014696D01*
X038941Y014790D01*
X037852Y014790D01*
X037772Y014985D01*
X037576Y015181D01*
X037320Y015287D01*
X037043Y015287D01*
X036787Y015181D01*
X036591Y014985D01*
X036510Y014790D01*
X035422Y014790D01*
X035329Y014696D01*
X035329Y013698D01*
X035422Y013604D01*
X036578Y013604D01*
X036672Y013698D01*
X036672Y014116D01*
X036787Y014001D01*
X037043Y013895D01*
X037320Y013895D01*
X037576Y014001D01*
X037691Y014116D01*
X037691Y013698D01*
X037775Y013614D01*
X037741Y013533D01*
X037741Y013441D01*
X037576Y013606D01*
X037320Y013712D01*
X037043Y013712D01*
X036787Y013606D01*
X036591Y013410D01*
X036485Y013155D01*
X036485Y012878D01*
X036508Y012822D01*
X035619Y012822D01*
X035539Y012741D01*
X030958Y012741D01*
X030268Y013431D01*
X030094Y013431D01*
X029357Y013431D01*
X029329Y013459D01*
X028331Y013459D01*
X028237Y013366D01*
X028237Y012997D01*
X028303Y012931D01*
X028237Y012866D01*
X028237Y012694D01*
X028151Y012608D01*
X028151Y012748D01*
X027591Y013308D01*
X027468Y013431D01*
X027310Y013431D01*
X027282Y013459D01*
X026283Y013459D01*
X026190Y013366D01*
X026190Y012997D01*
X026256Y012930D01*
X026251Y012928D01*
X026222Y012898D01*
X026201Y012861D01*
X026190Y012821D01*
X026190Y012682D01*
X026782Y012682D01*
X026782Y012681D01*
X026190Y012681D01*
X026190Y012542D01*
X026201Y012502D01*
X026222Y012465D01*
X026251Y012435D01*
X026256Y012432D01*
X026190Y012366D01*
X026190Y011997D01*
X026256Y011930D01*
X026251Y011928D01*
X026222Y011898D01*
X026201Y011861D01*
X026190Y011821D01*
X026190Y011682D01*
X026782Y011682D01*
X026782Y011681D01*
X026190Y011681D01*
X026190Y011542D01*
X026201Y011502D01*
X026222Y011465D01*
X026251Y011435D01*
X026288Y011414D01*
X026329Y011403D01*
X026783Y011403D01*
X027237Y011403D01*
X027278Y011414D01*
X027314Y011435D01*
X027344Y011465D01*
X027365Y011502D01*
X027376Y011542D01*
X027376Y011681D01*
X026783Y011681D01*
X026783Y011403D01*
X026783Y011681D01*
X026783Y011681D01*
X026783Y011682D01*
X027376Y011682D01*
X027376Y011810D01*
X027491Y011694D01*
X027491Y010668D01*
X027294Y010471D01*
X026820Y010471D01*
X026726Y010378D01*
X026726Y009733D01*
X026778Y009681D01*
X026726Y009630D01*
X026726Y008985D01*
X026820Y008891D01*
X026915Y008891D01*
X026211Y008188D01*
X026211Y008014D01*
X026211Y007351D01*
X026094Y007351D01*
X025281Y007351D01*
X025281Y007533D01*
X025281Y007811D01*
X025412Y007811D01*
X025507Y007716D01*
X025640Y007661D01*
X025783Y007661D01*
X025915Y007716D01*
X026017Y007817D01*
X026071Y007950D01*
X026071Y008093D01*
X026017Y008225D01*
X025915Y008327D01*
X025783Y008381D01*
X025640Y008381D01*
X025507Y008327D01*
X025412Y008231D01*
X025281Y008231D01*
X025281Y008339D01*
X025281Y008470D01*
X025280Y008476D01*
X025281Y008478D01*
X025281Y008771D01*
X025454Y008771D01*
X025628Y008771D01*
X025751Y008894D01*
X025751Y009402D01*
X025847Y009497D01*
X025901Y009630D01*
X025901Y009773D01*
X025847Y009905D01*
X025745Y010007D01*
X025613Y010061D01*
X025470Y010061D01*
X025351Y010012D01*
X025351Y010174D01*
X025548Y010371D01*
X025671Y010494D01*
X025671Y013374D01*
X025671Y013548D01*
X024061Y015158D01*
X023938Y015281D01*
X023341Y015281D01*
X023245Y015377D01*
X023113Y015431D01*
X022970Y015431D01*
X022837Y015377D01*
X022736Y015275D01*
X022681Y015143D01*
X022681Y015000D01*
X022736Y014867D01*
X022837Y014766D01*
X022970Y014711D01*
X023113Y014711D01*
X023245Y014766D01*
X023341Y014861D01*
X023764Y014861D01*
X025251Y013374D01*
X025251Y010972D01*
X025133Y011021D01*
X024998Y011021D01*
X024988Y011031D01*
X024814Y011031D01*
X023485Y011031D01*
X023501Y011070D01*
X023501Y011204D01*
X023591Y011294D01*
X023591Y011948D01*
X023568Y011971D01*
X024013Y011971D01*
X024053Y011931D01*
X023987Y011866D01*
X023987Y011497D01*
X024081Y011403D01*
X025079Y011403D01*
X025173Y011497D01*
X025173Y011866D01*
X025107Y011931D01*
X025173Y011997D01*
X025173Y012366D01*
X025107Y012431D01*
X025173Y012497D01*
X025173Y012866D01*
X025107Y012931D01*
X025173Y012997D01*
X025173Y013366D01*
X025079Y013459D01*
X024081Y013459D01*
X023987Y013366D01*
X023987Y013079D01*
X023933Y013101D01*
X023790Y013101D01*
X023657Y013047D01*
X023556Y012945D01*
X023501Y012813D01*
X023501Y012670D01*
X023556Y012537D01*
X023657Y012436D01*
X023766Y012391D01*
X023628Y012391D01*
X023271Y012748D01*
X023148Y012871D01*
X023120Y012871D01*
X023060Y012931D01*
X023126Y012997D01*
X023126Y013366D01*
X023032Y013459D01*
X022033Y013459D01*
X021940Y013366D01*
X021940Y013200D01*
X021831Y013308D01*
X021831Y013726D01*
X021878Y013726D01*
X021971Y013820D01*
X021971Y014543D01*
X021878Y014637D01*
X021233Y014637D01*
X021181Y014585D01*
X021130Y014637D01*
X020583Y014637D01*
X020071Y015148D01*
X019948Y015271D01*
X018668Y015271D01*
X018494Y015271D01*
X018371Y015148D01*
X018371Y014774D01*
X018236Y014774D01*
X018055Y014699D01*
X017918Y014561D01*
X017843Y014381D01*
X017843Y014186D01*
X017918Y014006D01*
X018055Y013868D01*
X018236Y013794D01*
X018430Y013794D01*
X018611Y013868D01*
X018748Y014006D01*
X018823Y014186D01*
X018823Y014381D01*
X018781Y014484D01*
X018791Y014494D01*
X018791Y014668D01*
X018791Y014851D01*
X019774Y014851D01*
X020391Y014234D01*
X020391Y013820D01*
X020485Y013726D01*
X020908Y013726D01*
X020861Y013613D01*
X020861Y013478D01*
X020474Y013091D01*
X020351Y012968D01*
X020351Y010128D01*
X020351Y009954D01*
X020884Y009421D01*
X020830Y009421D01*
X020697Y009367D01*
X020596Y009265D01*
X020541Y009133D01*
X020541Y008990D01*
X020596Y008857D01*
X020697Y008756D01*
X020830Y008701D01*
X020973Y008701D01*
X021081Y008746D01*
X021081Y008654D01*
X021491Y008654D01*
X021491Y008654D01*
X021081Y008654D01*
X021081Y008523D01*
X021083Y008517D01*
X021081Y008515D01*
X021081Y008503D01*
X021006Y008428D01*
X020895Y008317D01*
X020885Y008327D01*
X020753Y008381D01*
X020610Y008381D01*
X020477Y008327D01*
X020376Y008225D01*
X020346Y008151D01*
X020221Y008151D01*
X020221Y008293D01*
X020128Y008387D01*
X019483Y008387D01*
X019431Y008335D01*
X019412Y008355D01*
X019375Y008376D01*
X019334Y008387D01*
X019117Y008387D01*
X019117Y007992D01*
X018997Y007992D01*
X018997Y008387D01*
X018780Y008387D01*
X018740Y008376D01*
X018703Y008355D01*
X018673Y008325D01*
X018652Y008288D01*
X018641Y008248D01*
X018641Y007991D01*
X018997Y007991D01*
X018997Y007871D01*
X019117Y007871D01*
X019117Y007476D01*
X019334Y007476D01*
X019375Y007487D01*
X019412Y007508D01*
X019431Y007528D01*
X019483Y007476D01*
X020128Y007476D01*
X020221Y007570D01*
X020221Y007731D01*
X020462Y007731D01*
X020477Y007716D01*
X020610Y007661D01*
X020753Y007661D01*
X020851Y007702D01*
X020851Y007622D01*
X020882Y007591D01*
X020428Y007591D01*
X020254Y007591D01*
X019934Y007271D01*
X018631Y007271D01*
X018631Y008254D01*
X018631Y008334D01*
X018988Y008691D01*
X019111Y008814D01*
X019111Y009101D01*
X019380Y009101D01*
X019431Y009153D01*
X019451Y009133D01*
X019488Y009112D01*
X019528Y009101D01*
X019745Y009101D01*
X019745Y009496D01*
X019865Y009496D01*
X019865Y009101D01*
X020082Y009101D01*
X020123Y009112D01*
X020160Y009133D01*
X020189Y009163D01*
X020210Y009199D01*
X020221Y009240D01*
X020221Y009496D01*
X019866Y009496D01*
X019866Y009616D01*
X020221Y009616D01*
X020221Y009873D01*
X020210Y009913D01*
X020189Y009950D01*
X020160Y009980D01*
X020123Y010001D01*
X020082Y010012D01*
X019865Y010012D01*
X019865Y009617D01*
X019745Y009617D01*
X019745Y010012D01*
X019528Y010012D01*
X019488Y010001D01*
X019451Y009980D01*
X019431Y009960D01*
X019380Y010012D01*
X018735Y010012D01*
X018641Y009918D01*
X018641Y009195D01*
X018691Y009145D01*
X018691Y008988D01*
X018381Y008678D01*
X017471Y009588D01*
X017471Y010948D01*
X017378Y011041D01*
X016485Y011041D01*
X016391Y010948D01*
X016391Y008715D01*
X016485Y008621D01*
X017378Y008621D01*
X017471Y008715D01*
X017471Y008994D01*
X018211Y008254D01*
X018211Y006974D01*
X018334Y006851D01*
X018508Y006851D01*
X020108Y006851D01*
X020231Y006974D01*
X020428Y007171D01*
X021034Y007171D01*
X020494Y006631D01*
X020221Y006631D01*
X020221Y006668D01*
X020128Y006762D01*
X019483Y006762D01*
X019431Y006710D01*
X019412Y006730D01*
X019375Y006751D01*
X019334Y006762D01*
X019117Y006762D01*
X019117Y006367D01*
X018997Y006367D01*
X018997Y006762D01*
X018780Y006762D01*
X018740Y006751D01*
X018703Y006730D01*
X018673Y006700D01*
X018652Y006663D01*
X018641Y006623D01*
X018641Y006366D01*
X018997Y006366D01*
X018997Y006246D01*
X019117Y006246D01*
X019117Y005851D01*
X019334Y005851D01*
X019375Y005862D01*
X019411Y005883D01*
X019411Y005868D01*
X019374Y005831D01*
X017471Y005831D01*
X017471Y007148D01*
X017378Y007241D01*
X016485Y007241D01*
X016391Y007148D01*
X016391Y004915D01*
X016485Y004821D01*
X017378Y004821D01*
X017471Y004915D01*
X017471Y005411D01*
X019548Y005411D01*
X019671Y005534D01*
X019831Y005694D01*
X019831Y005851D01*
X020128Y005851D01*
X020221Y005945D01*
X020221Y006211D01*
X020668Y006211D01*
X020791Y006334D01*
X021266Y006809D01*
X021472Y006809D01*
X020931Y006268D01*
X020931Y006094D01*
X020931Y004241D01*
X020836Y004145D01*
X020781Y004013D01*
X020781Y003870D01*
X020836Y003737D01*
X020937Y003636D01*
X021070Y003581D01*
X021213Y003581D01*
X021345Y003636D01*
X021447Y003737D01*
X021501Y003870D01*
X021501Y004013D01*
X021447Y004145D01*
X021351Y004241D01*
X021351Y006094D01*
X021809Y006552D01*
X021809Y006175D01*
X021903Y006081D01*
X022090Y006081D01*
X022061Y006013D01*
X022061Y005901D01*
X021950Y005901D01*
X021817Y005847D01*
X021716Y005745D01*
X021661Y005613D01*
X021661Y005470D01*
X021716Y005337D01*
X021817Y005236D01*
X021950Y005181D01*
X022093Y005181D01*
X022225Y005236D01*
X022321Y005331D01*
X022748Y005331D01*
X022871Y005454D01*
X023212Y005795D01*
X023236Y005737D01*
X023337Y005636D01*
X023470Y005581D01*
X023613Y005581D01*
X023745Y005636D01*
X023847Y005737D01*
X023901Y005870D01*
X023901Y006004D01*
X024275Y005631D01*
X024217Y005607D01*
X024181Y005570D01*
X024145Y005607D01*
X024013Y005661D01*
X023870Y005661D01*
X023737Y005607D01*
X023636Y005505D01*
X023581Y005373D01*
X023581Y005230D01*
X023620Y005137D01*
X023485Y005137D01*
X023391Y005043D01*
X023391Y004320D01*
X023485Y004226D01*
X024130Y004226D01*
X024181Y004278D01*
X024233Y004226D01*
X024878Y004226D01*
X024933Y004281D01*
X025017Y004196D01*
X025126Y004151D01*
X022791Y004151D01*
X022791Y004226D01*
X022878Y004226D01*
X022971Y004320D01*
X022971Y005043D01*
X022878Y005137D01*
X022233Y005137D01*
X022181Y005085D01*
X022162Y005105D01*
X022125Y005126D01*
X022084Y005137D01*
X021867Y005137D01*
X021867Y004742D01*
X021747Y004742D01*
X021747Y005137D01*
X021530Y005137D01*
X021490Y005126D01*
X021453Y005105D01*
X021423Y005075D01*
X021402Y005038D01*
X021391Y004998D01*
X021391Y004741D01*
X021747Y004741D01*
X021747Y004621D01*
X021867Y004621D01*
X021867Y004226D01*
X022084Y004226D01*
X022125Y004237D01*
X022162Y004258D01*
X022181Y004278D01*
X022233Y004226D01*
X022371Y004226D01*
X022371Y003854D01*
X022494Y003731D01*
X022668Y003731D01*
X026668Y003731D01*
X026791Y003854D01*
X028151Y005214D01*
X028151Y005388D01*
X028151Y006922D01*
X028167Y006937D01*
X028221Y007070D01*
X028221Y007213D01*
X028167Y007345D01*
X028065Y007447D01*
X027951Y007494D01*
X028099Y007413D02*
X034864Y007413D01*
X034859Y007294D02*
X028188Y007294D01*
X028221Y007175D02*
X034956Y007175D01*
X035062Y007175D02*
X035168Y007175D01*
X035074Y007057D02*
X028216Y007057D01*
X028167Y006938D02*
X033789Y006938D01*
X033817Y006967D02*
X033716Y006865D01*
X033661Y006733D01*
X033661Y006590D01*
X033716Y006457D01*
X033817Y006356D01*
X033950Y006301D01*
X034084Y006301D01*
X035731Y004654D01*
X035731Y004597D01*
X035721Y004573D01*
X035721Y003790D01*
X035791Y003621D01*
X035921Y003491D01*
X036090Y003421D01*
X036273Y003421D01*
X036442Y003491D01*
X036571Y003621D01*
X036641Y003790D01*
X036641Y004573D01*
X036571Y004742D01*
X036442Y004871D01*
X036273Y004941D01*
X036090Y004941D01*
X036053Y004926D01*
X034381Y006598D01*
X034381Y006733D01*
X034327Y006865D01*
X034225Y006967D01*
X034093Y007021D01*
X033950Y007021D01*
X033817Y006967D01*
X033697Y006820D02*
X028151Y006820D01*
X028151Y006701D02*
X033661Y006701D01*
X033664Y006583D02*
X028151Y006583D01*
X028151Y006464D02*
X033713Y006464D01*
X033843Y006346D02*
X028151Y006346D01*
X028151Y006227D02*
X034159Y006227D01*
X034277Y006109D02*
X028151Y006109D01*
X028151Y005990D02*
X034396Y005990D01*
X034514Y005871D02*
X028151Y005871D01*
X028151Y005753D02*
X034633Y005753D01*
X034751Y005634D02*
X028151Y005634D01*
X028151Y005516D02*
X034870Y005516D01*
X034989Y005397D02*
X028151Y005397D01*
X028151Y005279D02*
X035107Y005279D01*
X035226Y005160D02*
X028097Y005160D01*
X027979Y005042D02*
X035344Y005042D01*
X035317Y004923D02*
X035463Y004923D01*
X035442Y004871D02*
X035273Y004941D01*
X035090Y004941D01*
X034921Y004871D01*
X034791Y004742D01*
X034721Y004573D01*
X034721Y003790D01*
X034791Y003621D01*
X034921Y003491D01*
X035090Y003421D01*
X035273Y003421D01*
X035442Y003491D01*
X035571Y003621D01*
X035641Y003790D01*
X035641Y004573D01*
X035571Y004742D01*
X035442Y004871D01*
X035509Y004805D02*
X035581Y004805D01*
X035595Y004686D02*
X035700Y004686D01*
X035721Y004568D02*
X035641Y004568D01*
X035641Y004449D02*
X035721Y004449D01*
X035721Y004330D02*
X035641Y004330D01*
X035641Y004212D02*
X035721Y004212D01*
X035721Y004093D02*
X035641Y004093D01*
X035641Y003975D02*
X035721Y003975D01*
X035721Y003856D02*
X035641Y003856D01*
X035620Y003738D02*
X035743Y003738D01*
X035793Y003619D02*
X035570Y003619D01*
X035451Y003501D02*
X035912Y003501D01*
X036208Y003145D02*
X012893Y003145D01*
X012893Y003264D02*
X036327Y003264D01*
X036445Y003382D02*
X012242Y003382D01*
X012242Y003381D02*
X012242Y003501D01*
X012893Y003501D01*
X012893Y003935D01*
X012882Y003975D01*
X020781Y003975D01*
X020787Y003856D02*
X012893Y003856D01*
X012893Y003738D02*
X020836Y003738D01*
X020979Y003619D02*
X012893Y003619D01*
X012241Y003619D02*
X012121Y003619D01*
X012121Y003501D02*
X012121Y004074D01*
X011609Y004074D01*
X011568Y004063D01*
X011532Y004042D01*
X011502Y004012D01*
X011481Y003975D01*
X010634Y003975D01*
X010516Y003856D02*
X011470Y003856D01*
X011470Y003935D02*
X011470Y003501D01*
X012121Y003501D01*
X012121Y003381D01*
X011470Y003381D01*
X011470Y002948D01*
X011481Y002907D01*
X011502Y002871D01*
X011532Y002841D01*
X011568Y002820D01*
X011609Y002809D01*
X012121Y002809D01*
X012121Y003381D01*
X012241Y003381D01*
X012241Y002809D01*
X012754Y002809D01*
X012794Y002820D01*
X012831Y002841D01*
X012861Y002871D01*
X012882Y002907D01*
X012893Y002948D01*
X012893Y003381D01*
X012242Y003381D01*
X012241Y003264D02*
X012121Y003264D01*
X012121Y003382D02*
X010632Y003382D01*
X010637Y003378D02*
X010543Y003471D01*
X010391Y003471D01*
X010391Y003708D01*
X010380Y003720D01*
X011949Y005289D01*
X012799Y005289D01*
X012893Y005383D01*
X012893Y006313D01*
X013041Y006461D01*
X013133Y006461D01*
X013265Y006516D01*
X013367Y006617D01*
X013414Y006732D01*
X015741Y004404D01*
X015741Y004270D01*
X015796Y004137D01*
X015897Y004036D01*
X016030Y003981D01*
X016173Y003981D01*
X016305Y004036D01*
X016407Y004137D01*
X016461Y004270D01*
X016461Y004413D01*
X016407Y004545D01*
X016305Y004647D01*
X016173Y004701D01*
X016038Y004701D01*
X012118Y008621D01*
X012173Y008621D01*
X012305Y008676D01*
X012407Y008777D01*
X012461Y008910D01*
X012461Y009053D01*
X012407Y009185D01*
X012311Y009281D01*
X012311Y009722D01*
X012407Y009817D01*
X012461Y009950D01*
X012461Y010093D01*
X012407Y010225D01*
X012305Y010327D01*
X012173Y010381D01*
X012030Y010381D01*
X011897Y010327D01*
X011796Y010225D01*
X011741Y010093D01*
X011741Y009950D01*
X011796Y009817D01*
X011891Y009722D01*
X011891Y009281D01*
X011796Y009185D01*
X011741Y009053D01*
X011741Y008998D01*
X009591Y011148D01*
X009591Y013860D01*
X009611Y013868D01*
X009748Y014006D01*
X009823Y014186D01*
X009823Y014381D01*
X009748Y014561D01*
X009611Y014699D01*
X009430Y014774D01*
X009236Y014774D01*
X009055Y014699D01*
X008918Y014561D01*
X008843Y014381D01*
X008843Y014186D01*
X008918Y014006D01*
X009055Y013868D01*
X009171Y013820D01*
X009171Y010974D01*
X009294Y010851D01*
X012972Y007174D01*
X012857Y007127D01*
X012756Y007025D01*
X012701Y006893D01*
X012701Y006801D01*
X012455Y006554D01*
X011564Y006554D01*
X011470Y006460D01*
X011470Y005490D01*
X010061Y004081D01*
X009934Y004208D01*
X009934Y004444D01*
X009934Y004553D01*
X009538Y004553D01*
X009538Y004554D01*
X009934Y004554D01*
X009934Y004581D01*
X009989Y004581D01*
X010077Y004618D01*
X010145Y004685D01*
X010181Y004774D01*
X010181Y006636D01*
X010429Y006636D01*
X010522Y006729D01*
X010522Y008634D01*
X010429Y008727D01*
X009509Y008727D01*
X009415Y008634D01*
X009415Y006729D01*
X009509Y006636D01*
X009701Y006636D01*
X009701Y005314D01*
X009235Y005314D01*
X009223Y005301D01*
X008869Y005301D01*
X008774Y005301D01*
X008685Y005265D01*
X008618Y005197D01*
X008581Y005109D01*
X008581Y004549D01*
X008581Y004454D01*
X008618Y004365D01*
X008858Y004125D01*
X008925Y004058D01*
X009014Y004021D01*
X009442Y004021D01*
X009965Y003498D01*
X009971Y003495D01*
X009971Y003471D01*
X009820Y003471D01*
X009740Y003391D01*
X009469Y003391D01*
X009346Y003268D01*
X009251Y003173D01*
X009251Y002999D01*
X009251Y001871D01*
X009227Y001862D01*
X009126Y001760D01*
X009123Y001751D01*
X008028Y001751D01*
X007637Y002143D01*
X007637Y002630D01*
X007585Y002681D01*
X007637Y002733D01*
X007637Y003378D01*
X007543Y003471D01*
X007351Y003471D01*
X007351Y003872D01*
X007447Y003967D01*
X007493Y004079D01*
X007523Y004049D01*
X007777Y004049D01*
X008355Y003471D01*
X008320Y003471D01*
X008226Y003378D01*
X008226Y002733D01*
X008278Y002681D01*
X008258Y002662D01*
X008237Y002625D01*
X008226Y002584D01*
X008226Y002367D01*
X008621Y002367D01*
X008621Y002247D01*
X008741Y002247D01*
X008741Y001891D01*
X008998Y001891D01*
X009038Y001902D01*
X009075Y001923D01*
X009105Y001953D01*
X009126Y001990D01*
X009137Y002030D01*
X009137Y002247D01*
X008742Y002247D01*
X008742Y002367D01*
X009137Y002367D01*
X009137Y002584D01*
X009126Y002625D01*
X009105Y002662D01*
X009085Y002681D01*
X009137Y002733D01*
X009137Y003378D01*
X009043Y003471D01*
X008871Y003471D01*
X008871Y003548D01*
X008748Y003671D01*
X008221Y004198D01*
X008221Y004452D01*
X008221Y004708D01*
X008221Y004964D01*
X008221Y005065D01*
X007826Y005065D01*
X007826Y005065D01*
X008221Y005065D01*
X008221Y005175D01*
X008210Y005216D01*
X008189Y005252D01*
X008160Y005282D01*
X008123Y005303D01*
X008082Y005314D01*
X007825Y005314D01*
X007568Y005314D01*
X007527Y005303D01*
X007491Y005282D01*
X007461Y005252D01*
X007440Y005216D01*
X007429Y005175D01*
X007429Y005065D01*
X007429Y005031D01*
X006508Y005031D01*
X006334Y005031D01*
X006211Y004908D01*
X006211Y003641D01*
X006137Y003641D01*
X006137Y004130D01*
X006085Y004181D01*
X006137Y004233D01*
X006137Y004878D01*
X006043Y004971D01*
X005320Y004971D01*
X005226Y004878D01*
X005226Y004791D01*
X004151Y004791D01*
X004151Y005774D01*
X004151Y005948D01*
X004020Y006080D01*
X005604Y007664D01*
X006549Y007664D01*
X006643Y007758D01*
X006643Y008101D01*
X007840Y008101D01*
X007840Y006729D01*
X007934Y006636D01*
X008854Y006636D01*
X008948Y006729D01*
X008948Y008634D01*
X008854Y008727D01*
X007934Y008727D01*
X007840Y008634D01*
X007840Y008581D01*
X006643Y008581D01*
X006643Y008835D01*
X011311Y008835D01*
X011429Y008717D02*
X010439Y008717D01*
X010522Y008598D02*
X011548Y008598D01*
X011666Y008479D02*
X010522Y008479D01*
X010522Y008361D02*
X011785Y008361D01*
X011903Y008242D02*
X010522Y008242D01*
X010522Y008124D02*
X012022Y008124D01*
X012141Y008005D02*
X010522Y008005D01*
X010522Y007887D02*
X012259Y007887D01*
X012378Y007768D02*
X010522Y007768D01*
X010522Y007650D02*
X012496Y007650D01*
X012615Y007531D02*
X010522Y007531D01*
X010522Y007413D02*
X012733Y007413D01*
X012852Y007294D02*
X010522Y007294D01*
X010522Y007175D02*
X012970Y007175D01*
X012788Y007057D02*
X010522Y007057D01*
X010522Y006938D02*
X012720Y006938D01*
X012701Y006820D02*
X010522Y006820D01*
X010494Y006701D02*
X012602Y006701D01*
X012483Y006583D02*
X010181Y006583D01*
X010181Y006464D02*
X011474Y006464D01*
X011470Y006346D02*
X010181Y006346D01*
X010181Y006227D02*
X011470Y006227D01*
X011470Y006109D02*
X010181Y006109D01*
X010181Y005990D02*
X011470Y005990D01*
X011470Y005871D02*
X010181Y005871D01*
X010181Y005753D02*
X011470Y005753D01*
X011470Y005634D02*
X010181Y005634D01*
X010181Y005516D02*
X011470Y005516D01*
X011378Y005397D02*
X010181Y005397D01*
X010181Y005279D02*
X011259Y005279D01*
X011141Y005160D02*
X010181Y005160D01*
X010181Y005042D02*
X011022Y005042D01*
X010904Y004923D02*
X010181Y004923D01*
X010181Y004805D02*
X010785Y004805D01*
X010667Y004686D02*
X010145Y004686D01*
X009934Y004568D02*
X010548Y004568D01*
X010430Y004449D02*
X009934Y004449D01*
X009934Y004330D02*
X010311Y004330D01*
X010192Y004212D02*
X009934Y004212D01*
X010049Y004093D02*
X010074Y004093D01*
X010753Y004093D02*
X015840Y004093D01*
X015765Y004212D02*
X010871Y004212D01*
X010990Y004330D02*
X015741Y004330D01*
X015697Y004449D02*
X011108Y004449D01*
X011227Y004568D02*
X015578Y004568D01*
X015460Y004686D02*
X011345Y004686D01*
X011464Y004805D02*
X015341Y004805D01*
X015223Y004923D02*
X011583Y004923D01*
X011701Y005042D02*
X015104Y005042D01*
X014986Y005160D02*
X011820Y005160D01*
X011938Y005279D02*
X014867Y005279D01*
X014749Y005397D02*
X012893Y005397D01*
X012893Y005516D02*
X014630Y005516D01*
X014511Y005634D02*
X012893Y005634D01*
X012893Y005753D02*
X014393Y005753D01*
X014274Y005871D02*
X012893Y005871D01*
X012893Y005990D02*
X014156Y005990D01*
X014037Y006109D02*
X012893Y006109D01*
X012893Y006227D02*
X013919Y006227D01*
X013800Y006346D02*
X012925Y006346D01*
X013140Y006464D02*
X013682Y006464D01*
X013563Y006583D02*
X013332Y006583D01*
X013401Y006701D02*
X013445Y006701D01*
X013920Y006820D02*
X016391Y006820D01*
X016391Y006938D02*
X013801Y006938D01*
X013683Y007057D02*
X016391Y007057D01*
X016419Y007175D02*
X013564Y007175D01*
X013446Y007294D02*
X018211Y007294D01*
X018211Y007175D02*
X017444Y007175D01*
X017471Y007057D02*
X018211Y007057D01*
X018247Y006938D02*
X017471Y006938D01*
X017471Y006820D02*
X020683Y006820D01*
X020801Y006938D02*
X020195Y006938D01*
X020314Y007057D02*
X020920Y007057D01*
X020076Y007413D02*
X018631Y007413D01*
X018631Y007531D02*
X018680Y007531D01*
X018673Y007538D02*
X018703Y007508D01*
X018740Y007487D01*
X018780Y007476D01*
X018997Y007476D01*
X018997Y007871D01*
X018641Y007871D01*
X018641Y007615D01*
X018652Y007574D01*
X018673Y007538D01*
X018641Y007650D02*
X018631Y007650D01*
X018631Y007768D02*
X018641Y007768D01*
X018631Y007887D02*
X018997Y007887D01*
X018997Y008005D02*
X019117Y008005D01*
X019117Y008124D02*
X018997Y008124D01*
X018997Y008242D02*
X019117Y008242D01*
X019117Y008361D02*
X018997Y008361D01*
X018776Y008479D02*
X021058Y008479D01*
X021081Y008598D02*
X018895Y008598D01*
X019014Y008717D02*
X020793Y008717D01*
X020619Y008835D02*
X019111Y008835D01*
X019111Y008954D02*
X020556Y008954D01*
X020541Y009072D02*
X019111Y009072D01*
X018691Y009072D02*
X017988Y009072D01*
X018106Y008954D02*
X018657Y008954D01*
X018538Y008835D02*
X018225Y008835D01*
X018343Y008717D02*
X018420Y008717D01*
X017868Y008598D02*
X014774Y008598D01*
X014760Y008612D02*
X014628Y008666D01*
X014485Y008666D01*
X014352Y008612D01*
X014251Y008510D01*
X014196Y008378D01*
X014196Y008286D01*
X013952Y008041D01*
X013860Y008041D01*
X013727Y007987D01*
X013626Y007885D01*
X013571Y007753D01*
X013571Y007610D01*
X013626Y007477D01*
X013727Y007376D01*
X013860Y007321D01*
X014003Y007321D01*
X014135Y007376D01*
X014237Y007477D01*
X014291Y007610D01*
X014291Y007702D01*
X014536Y007946D01*
X014628Y007946D01*
X014760Y008001D01*
X014862Y008102D01*
X014916Y008235D01*
X014916Y008378D01*
X014862Y008510D01*
X014760Y008612D01*
X014874Y008479D02*
X017986Y008479D01*
X018105Y008361D02*
X014916Y008361D01*
X014916Y008242D02*
X018211Y008242D01*
X018211Y008124D02*
X014870Y008124D01*
X014764Y008005D02*
X018211Y008005D01*
X018211Y007887D02*
X014476Y007887D01*
X014358Y007768D02*
X018211Y007768D01*
X018211Y007650D02*
X014291Y007650D01*
X014259Y007531D02*
X018211Y007531D01*
X018211Y007413D02*
X014172Y007413D01*
X013691Y007413D02*
X013327Y007413D01*
X013209Y007531D02*
X013604Y007531D01*
X013571Y007650D02*
X013090Y007650D01*
X012972Y007768D02*
X013578Y007768D01*
X013628Y007887D02*
X012853Y007887D01*
X012734Y008005D02*
X013773Y008005D01*
X014034Y008124D02*
X012616Y008124D01*
X012497Y008242D02*
X014153Y008242D01*
X014196Y008361D02*
X012379Y008361D01*
X012260Y008479D02*
X014238Y008479D01*
X014339Y008598D02*
X012142Y008598D01*
X012346Y008717D02*
X016391Y008717D01*
X016391Y008835D02*
X012430Y008835D01*
X012461Y008954D02*
X016391Y008954D01*
X016391Y009072D02*
X012453Y009072D01*
X012401Y009191D02*
X016391Y009191D01*
X016391Y009309D02*
X012311Y009309D01*
X012311Y009428D02*
X016391Y009428D01*
X016391Y009546D02*
X012311Y009546D01*
X012311Y009665D02*
X016391Y009665D01*
X016391Y009783D02*
X012373Y009783D01*
X012442Y009902D02*
X016391Y009902D01*
X016391Y010021D02*
X012461Y010021D01*
X012442Y010139D02*
X016391Y010139D01*
X016391Y010258D02*
X012374Y010258D01*
X012186Y010376D02*
X016391Y010376D01*
X016391Y010495D02*
X010245Y010495D01*
X010127Y010613D02*
X016391Y010613D01*
X016391Y010732D02*
X010008Y010732D01*
X009889Y010850D02*
X016391Y010850D01*
X016413Y010969D02*
X009771Y010969D01*
X009652Y011087D02*
X020351Y011087D01*
X020351Y010969D02*
X017450Y010969D01*
X017471Y010850D02*
X020351Y010850D01*
X020351Y010732D02*
X017471Y010732D01*
X017471Y010613D02*
X020351Y010613D01*
X020351Y010495D02*
X017471Y010495D01*
X017471Y010376D02*
X020351Y010376D01*
X020351Y010258D02*
X017471Y010258D01*
X017471Y010139D02*
X020351Y010139D01*
X020351Y010021D02*
X017471Y010021D01*
X017471Y009902D02*
X018641Y009902D01*
X018641Y009783D02*
X017471Y009783D01*
X017471Y009665D02*
X018641Y009665D01*
X018641Y009546D02*
X017513Y009546D01*
X017632Y009428D02*
X018641Y009428D01*
X018641Y009309D02*
X017751Y009309D01*
X017869Y009191D02*
X018646Y009191D01*
X017749Y008717D02*
X017471Y008717D01*
X017471Y008835D02*
X017631Y008835D01*
X017512Y008954D02*
X017471Y008954D01*
X018658Y008361D02*
X018714Y008361D01*
X018641Y008242D02*
X018631Y008242D01*
X018631Y008124D02*
X018641Y008124D01*
X018631Y008005D02*
X018641Y008005D01*
X018997Y007768D02*
X019117Y007768D01*
X019117Y007650D02*
X018997Y007650D01*
X018997Y007531D02*
X019117Y007531D01*
X018631Y007294D02*
X019957Y007294D01*
X020183Y007531D02*
X020194Y007531D01*
X020221Y007650D02*
X020851Y007650D01*
X021492Y008024D02*
X021492Y008024D01*
X021901Y008024D01*
X021901Y008155D01*
X021900Y008161D01*
X021901Y008163D01*
X021901Y008515D01*
X021900Y008517D01*
X021901Y008523D01*
X021901Y008654D01*
X021901Y008785D01*
X021900Y008791D01*
X021901Y008793D01*
X021901Y009145D01*
X021901Y009460D01*
X021808Y009554D01*
X021346Y009554D01*
X020771Y010128D01*
X020771Y010891D01*
X020996Y010891D01*
X020996Y011247D01*
X021116Y011247D01*
X021116Y010891D01*
X021373Y010891D01*
X021413Y010902D01*
X021450Y010923D01*
X021480Y010953D01*
X021501Y010990D01*
X021512Y011030D01*
X021512Y011247D01*
X021117Y011247D01*
X021117Y011367D01*
X021512Y011367D01*
X021512Y011584D01*
X021501Y011625D01*
X021480Y011662D01*
X021460Y011681D01*
X021512Y011733D01*
X021512Y012378D01*
X021612Y012477D01*
X021666Y012610D01*
X021666Y012753D01*
X021612Y012885D01*
X021510Y012987D01*
X021378Y013041D01*
X021235Y013041D01*
X021102Y012987D01*
X021001Y012885D01*
X020946Y012753D01*
X020946Y012618D01*
X020846Y012518D01*
X020846Y012471D01*
X020771Y012471D01*
X020771Y012794D01*
X021158Y013181D01*
X021293Y013181D01*
X021411Y013230D01*
X021411Y013134D01*
X021891Y012654D01*
X021940Y012606D01*
X021940Y012497D01*
X022005Y012431D01*
X021940Y012366D01*
X021940Y011997D01*
X022006Y011930D01*
X022001Y011928D01*
X021972Y011898D01*
X021951Y011861D01*
X021940Y011821D01*
X021940Y011682D01*
X022532Y011682D01*
X022532Y011681D01*
X021940Y011681D01*
X021940Y011542D01*
X021951Y011502D01*
X021972Y011465D01*
X022001Y011435D01*
X022038Y011414D01*
X022079Y011403D01*
X022533Y011403D01*
X022894Y011403D01*
X022836Y011345D01*
X022781Y011213D01*
X022781Y011070D01*
X022797Y011031D01*
X022108Y011031D01*
X021934Y011031D01*
X021811Y010908D01*
X021811Y010190D01*
X021809Y010188D01*
X021809Y009927D01*
X021804Y009875D01*
X021809Y009869D01*
X021809Y009555D01*
X021903Y009461D01*
X022131Y009461D01*
X022131Y009148D01*
X022094Y009111D01*
X021971Y008988D01*
X021971Y007628D01*
X021901Y007558D01*
X021901Y007570D01*
X021901Y007885D01*
X021900Y007887D01*
X021971Y007887D01*
X021901Y007893D02*
X021901Y008024D01*
X021492Y008024D01*
X021901Y008005D02*
X021971Y008005D01*
X021971Y008124D02*
X021901Y008124D01*
X021901Y008242D02*
X021971Y008242D01*
X021971Y008361D02*
X021901Y008361D01*
X021901Y008479D02*
X021971Y008479D01*
X021971Y008598D02*
X021901Y008598D01*
X021901Y008654D02*
X021492Y008654D01*
X021901Y008654D01*
X021901Y008717D02*
X021971Y008717D01*
X021971Y008835D02*
X021901Y008835D01*
X021901Y008954D02*
X021971Y008954D01*
X021901Y009072D02*
X022055Y009072D01*
X022131Y009191D02*
X021901Y009191D01*
X021901Y009309D02*
X022131Y009309D01*
X022131Y009428D02*
X021901Y009428D01*
X021818Y009546D02*
X021815Y009546D01*
X021809Y009665D02*
X021235Y009665D01*
X021116Y009783D02*
X021809Y009783D01*
X021807Y009902D02*
X020998Y009902D01*
X020879Y010021D02*
X021809Y010021D01*
X021809Y010139D02*
X020771Y010139D01*
X020771Y010258D02*
X021811Y010258D01*
X021811Y010376D02*
X020771Y010376D01*
X020771Y010495D02*
X021811Y010495D01*
X021811Y010613D02*
X020771Y010613D01*
X020771Y010732D02*
X021811Y010732D01*
X021811Y010850D02*
X020771Y010850D01*
X020996Y010969D02*
X021116Y010969D01*
X021116Y011087D02*
X020996Y011087D01*
X020996Y011206D02*
X021116Y011206D01*
X021117Y011324D02*
X022828Y011324D01*
X022781Y011206D02*
X021512Y011206D01*
X021512Y011087D02*
X022781Y011087D01*
X022533Y011403D02*
X022533Y011681D01*
X022533Y011681D01*
X022533Y011682D01*
X023126Y011682D01*
X023126Y011820D01*
X023171Y011774D01*
X023171Y011501D01*
X023115Y011501D01*
X023115Y011502D01*
X023126Y011542D01*
X023126Y011681D01*
X022533Y011681D01*
X022533Y011403D01*
X022533Y011443D02*
X022533Y011443D01*
X022533Y011562D02*
X022533Y011562D01*
X022533Y011680D02*
X022533Y011680D01*
X021991Y011917D02*
X021512Y011917D01*
X021512Y011799D02*
X021940Y011799D01*
X021940Y011680D02*
X021461Y011680D01*
X021512Y011562D02*
X021940Y011562D01*
X021994Y011443D02*
X021512Y011443D01*
X021489Y010969D02*
X021872Y010969D01*
X023126Y011562D02*
X023171Y011562D01*
X023171Y011680D02*
X023126Y011680D01*
X023126Y011799D02*
X023147Y011799D01*
X023591Y011799D02*
X023987Y011799D01*
X023987Y011680D02*
X023591Y011680D01*
X023591Y011562D02*
X023987Y011562D01*
X024041Y011443D02*
X023591Y011443D01*
X023591Y011324D02*
X025251Y011324D01*
X025251Y011206D02*
X023503Y011206D01*
X023501Y011087D02*
X025251Y011087D01*
X025671Y011087D02*
X027491Y011087D01*
X027491Y010969D02*
X025671Y010969D01*
X025671Y010850D02*
X027491Y010850D01*
X027491Y010732D02*
X025671Y010732D01*
X025671Y010613D02*
X027436Y010613D01*
X027318Y010495D02*
X025671Y010495D01*
X025553Y010376D02*
X026726Y010376D01*
X026726Y010258D02*
X025435Y010258D01*
X025351Y010139D02*
X026726Y010139D01*
X026726Y010021D02*
X025712Y010021D01*
X025848Y009902D02*
X026726Y009902D01*
X026726Y009783D02*
X025897Y009783D01*
X025901Y009665D02*
X026761Y009665D01*
X026726Y009546D02*
X025867Y009546D01*
X025777Y009428D02*
X026726Y009428D01*
X026726Y009309D02*
X025751Y009309D01*
X025751Y009191D02*
X026726Y009191D01*
X026726Y009072D02*
X025751Y009072D01*
X025751Y008954D02*
X026758Y008954D01*
X026858Y008835D02*
X025692Y008835D01*
X025281Y008717D02*
X026740Y008717D01*
X026621Y008598D02*
X025281Y008598D01*
X025281Y008479D02*
X026503Y008479D01*
X026384Y008361D02*
X025832Y008361D01*
X026000Y008242D02*
X026265Y008242D01*
X026211Y008124D02*
X026059Y008124D01*
X026071Y008005D02*
X026211Y008005D01*
X026211Y007887D02*
X026045Y007887D01*
X025967Y007768D02*
X026211Y007768D01*
X026211Y007650D02*
X025281Y007650D01*
X025281Y007768D02*
X025456Y007768D01*
X025281Y007531D02*
X026211Y007531D01*
X026211Y007413D02*
X025281Y007413D01*
X024461Y007801D02*
X024413Y007821D01*
X024270Y007821D01*
X024151Y007772D01*
X024151Y009388D01*
X024078Y009461D01*
X024145Y009461D01*
X024460Y009461D01*
X024554Y009555D01*
X024554Y009857D01*
X024598Y009901D01*
X024733Y009901D01*
X024865Y009956D01*
X024931Y010022D01*
X024931Y009628D01*
X024857Y009554D01*
X024555Y009554D01*
X024461Y009460D01*
X024461Y009107D01*
X024461Y008793D01*
X024461Y008478D01*
X024463Y008476D01*
X024461Y008470D01*
X024461Y008339D01*
X024871Y008339D01*
X024871Y008339D01*
X024461Y008339D01*
X024461Y008208D01*
X024463Y008202D01*
X024461Y008200D01*
X024461Y007848D01*
X024461Y007801D01*
X024461Y007887D02*
X024151Y007887D01*
X024151Y008005D02*
X024461Y008005D01*
X024461Y008124D02*
X024151Y008124D01*
X024151Y008242D02*
X024461Y008242D01*
X024461Y008361D02*
X024151Y008361D01*
X024151Y008479D02*
X024461Y008479D01*
X024461Y008598D02*
X024151Y008598D01*
X024151Y008717D02*
X024461Y008717D01*
X024461Y008835D02*
X024151Y008835D01*
X024151Y008954D02*
X024461Y008954D01*
X024461Y009072D02*
X024151Y009072D01*
X024151Y009191D02*
X024461Y009191D01*
X024461Y009309D02*
X024151Y009309D01*
X024112Y009428D02*
X024461Y009428D01*
X024545Y009546D02*
X024548Y009546D01*
X024554Y009665D02*
X024931Y009665D01*
X024931Y009783D02*
X024554Y009783D01*
X024734Y009902D02*
X024931Y009902D01*
X024930Y010021D02*
X024931Y010021D01*
X025351Y010021D02*
X025371Y010021D01*
X025671Y011206D02*
X027491Y011206D01*
X027491Y011324D02*
X025671Y011324D01*
X025671Y011443D02*
X026244Y011443D01*
X026190Y011562D02*
X025671Y011562D01*
X025671Y011680D02*
X026190Y011680D01*
X026190Y011799D02*
X025671Y011799D01*
X025671Y011917D02*
X026241Y011917D01*
X026190Y012036D02*
X025671Y012036D01*
X025671Y012154D02*
X026190Y012154D01*
X026190Y012273D02*
X025671Y012273D01*
X025671Y012391D02*
X026215Y012391D01*
X026198Y012510D02*
X025671Y012510D01*
X025671Y012628D02*
X026190Y012628D01*
X026190Y012747D02*
X025671Y012747D01*
X025671Y012866D02*
X026203Y012866D01*
X026203Y012984D02*
X025671Y012984D01*
X025671Y013103D02*
X026190Y013103D01*
X026190Y013221D02*
X025671Y013221D01*
X025671Y013340D02*
X026190Y013340D01*
X026282Y013458D02*
X025671Y013458D01*
X025643Y013577D02*
X031056Y013577D01*
X031156Y013477D02*
X031506Y013332D01*
X031885Y013332D01*
X032235Y013477D01*
X032502Y013744D01*
X032647Y014094D01*
X032647Y014473D01*
X032502Y014823D01*
X032235Y015091D01*
X031885Y015236D01*
X031506Y015236D01*
X031156Y015091D01*
X030888Y014823D01*
X030743Y014473D01*
X030743Y014094D01*
X030888Y013744D01*
X031156Y013477D01*
X031200Y013458D02*
X029331Y013458D01*
X030360Y013340D02*
X031486Y013340D01*
X031904Y013340D02*
X036562Y013340D01*
X036513Y013221D02*
X030479Y013221D01*
X030597Y013103D02*
X036485Y013103D01*
X036485Y012984D02*
X030716Y012984D01*
X030834Y012866D02*
X036490Y012866D01*
X035544Y012747D02*
X030953Y012747D01*
X032190Y013458D02*
X036639Y013458D01*
X036758Y013577D02*
X032335Y013577D01*
X032453Y013695D02*
X035331Y013695D01*
X035329Y013814D02*
X032531Y013814D01*
X032580Y013932D02*
X035329Y013932D01*
X035329Y014051D02*
X032629Y014051D01*
X032647Y014170D02*
X035329Y014170D01*
X035329Y014288D02*
X032647Y014288D01*
X032647Y014407D02*
X035329Y014407D01*
X035329Y014525D02*
X032626Y014525D01*
X032577Y014644D02*
X035329Y014644D01*
X035394Y014762D02*
X032528Y014762D01*
X032445Y014881D02*
X036548Y014881D01*
X036605Y014999D02*
X032326Y014999D01*
X032169Y015118D02*
X036724Y015118D01*
X036921Y015236D02*
X023983Y015236D01*
X024102Y015118D02*
X031221Y015118D01*
X031064Y014999D02*
X024220Y014999D01*
X024339Y014881D02*
X030946Y014881D01*
X030863Y014762D02*
X024458Y014762D01*
X024576Y014644D02*
X030814Y014644D01*
X030765Y014525D02*
X024695Y014525D01*
X024813Y014407D02*
X030743Y014407D01*
X030743Y014288D02*
X024932Y014288D01*
X025050Y014170D02*
X030743Y014170D01*
X030761Y014051D02*
X025169Y014051D01*
X025287Y013932D02*
X030810Y013932D01*
X030859Y013814D02*
X025406Y013814D01*
X025524Y013695D02*
X030937Y013695D01*
X028329Y013458D02*
X027283Y013458D01*
X027560Y013340D02*
X028237Y013340D01*
X028237Y013221D02*
X027679Y013221D01*
X027797Y013103D02*
X028237Y013103D01*
X028250Y012984D02*
X027916Y012984D01*
X028034Y012866D02*
X028237Y012866D01*
X028237Y012747D02*
X028151Y012747D01*
X028151Y012628D02*
X028172Y012628D01*
X027731Y012574D02*
X027731Y012048D01*
X027511Y012268D01*
X027388Y012391D01*
X027350Y012391D01*
X027731Y012391D01*
X027731Y012273D02*
X027507Y012273D01*
X027625Y012154D02*
X027731Y012154D01*
X027350Y012391D02*
X027309Y012432D01*
X027314Y012435D01*
X027344Y012465D01*
X027365Y012502D01*
X027376Y012542D01*
X027376Y012681D01*
X026783Y012681D01*
X026783Y012682D01*
X027376Y012682D01*
X027376Y012821D01*
X027365Y012861D01*
X027344Y012898D01*
X027314Y012928D01*
X027309Y012930D01*
X027342Y012964D01*
X027731Y012574D01*
X027731Y012510D02*
X027367Y012510D01*
X027376Y012628D02*
X027677Y012628D01*
X027559Y012747D02*
X027376Y012747D01*
X027362Y012866D02*
X027440Y012866D01*
X025251Y012866D02*
X025173Y012866D01*
X025160Y012984D02*
X025251Y012984D01*
X025251Y013103D02*
X025173Y013103D01*
X025173Y013221D02*
X025251Y013221D01*
X025251Y013340D02*
X025173Y013340D01*
X025168Y013458D02*
X025081Y013458D01*
X025049Y013577D02*
X021831Y013577D01*
X021831Y013695D02*
X024930Y013695D01*
X024812Y013814D02*
X021965Y013814D01*
X021971Y013932D02*
X024693Y013932D01*
X024575Y014051D02*
X021971Y014051D01*
X021971Y014170D02*
X024456Y014170D01*
X024338Y014288D02*
X021971Y014288D01*
X021971Y014407D02*
X024219Y014407D01*
X024101Y014525D02*
X021971Y014525D01*
X022731Y014881D02*
X020339Y014881D01*
X020220Y014999D02*
X022682Y014999D01*
X022681Y015118D02*
X020102Y015118D01*
X019983Y015236D02*
X022720Y015236D01*
X022816Y015355D02*
X000641Y015355D01*
X000641Y015474D02*
X041221Y015474D01*
X041221Y015592D02*
X000641Y015592D01*
X000641Y015711D02*
X041221Y015711D01*
X041221Y015355D02*
X023267Y015355D01*
X023236Y014762D02*
X023864Y014762D01*
X023982Y014644D02*
X020576Y014644D01*
X020458Y014762D02*
X022847Y014762D01*
X020391Y014170D02*
X019811Y014170D01*
X019811Y014169D02*
X019823Y014245D01*
X019823Y014245D01*
X019372Y014245D01*
X019372Y014322D01*
X019823Y014322D01*
X019823Y014322D01*
X019811Y014399D01*
X019787Y014472D01*
X019752Y014541D01*
X019707Y014603D01*
X019652Y014658D01*
X019590Y014703D01*
X019521Y014738D01*
X019448Y014762D01*
X019372Y014774D01*
X019371Y014774D01*
X019371Y014322D01*
X019294Y014322D01*
X019294Y014245D01*
X018843Y014245D01*
X018855Y014169D01*
X018879Y014096D01*
X018914Y014027D01*
X018959Y013965D01*
X019014Y013910D01*
X019076Y013865D01*
X019145Y013830D01*
X019218Y013806D01*
X019294Y013794D01*
X019294Y013794D01*
X019294Y014245D01*
X019371Y014245D01*
X019371Y013794D01*
X019372Y013794D01*
X019448Y013806D01*
X019521Y013830D01*
X019590Y013865D01*
X019652Y013910D01*
X019707Y013965D01*
X019752Y014027D01*
X019787Y014096D01*
X019811Y014169D01*
X019764Y014051D02*
X020391Y014051D01*
X020391Y013932D02*
X019675Y013932D01*
X019473Y013814D02*
X020397Y013814D01*
X020896Y013695D02*
X018004Y013695D01*
X017886Y013814D02*
X018187Y013814D01*
X017991Y013932D02*
X017767Y013932D01*
X017721Y013979D02*
X017748Y014006D01*
X017823Y014186D01*
X017823Y014381D01*
X017748Y014561D01*
X017611Y014699D01*
X017430Y014774D01*
X017236Y014774D01*
X017055Y014699D01*
X016918Y014561D01*
X016843Y014381D01*
X016843Y014186D01*
X016918Y014006D01*
X017055Y013868D01*
X017236Y013794D01*
X017312Y013794D01*
X019076Y012029D01*
X019076Y011895D01*
X019131Y011762D01*
X019232Y011661D01*
X019365Y011606D01*
X019508Y011606D01*
X019640Y011661D01*
X019742Y011762D01*
X019796Y011895D01*
X019796Y012038D01*
X019742Y012170D01*
X019640Y012272D01*
X019508Y012326D01*
X019373Y012326D01*
X017721Y013979D01*
X017767Y014051D02*
X017899Y014051D01*
X017850Y014170D02*
X017816Y014170D01*
X017823Y014288D02*
X017843Y014288D01*
X017854Y014407D02*
X017812Y014407D01*
X017763Y014525D02*
X017903Y014525D01*
X018000Y014644D02*
X017666Y014644D01*
X017458Y014762D02*
X018208Y014762D01*
X018371Y014881D02*
X002917Y014881D01*
X002975Y014823D02*
X002707Y015091D01*
X002357Y015236D01*
X001978Y015236D01*
X001628Y015091D01*
X001360Y014823D01*
X001216Y014473D01*
X001216Y014094D01*
X001360Y013744D01*
X001628Y013477D01*
X001978Y013332D01*
X002357Y013332D01*
X002707Y013477D01*
X002975Y013744D01*
X003120Y014094D01*
X003120Y014473D01*
X002975Y014823D01*
X003000Y014762D02*
X004222Y014762D01*
X004218Y014762D02*
X004145Y014738D01*
X004076Y014703D01*
X004014Y014658D01*
X003959Y014603D01*
X003914Y014541D01*
X003879Y014472D01*
X003855Y014399D01*
X003843Y014322D01*
X004294Y014322D01*
X004294Y014245D01*
X003843Y014245D01*
X003855Y014169D01*
X003879Y014096D01*
X003914Y014027D01*
X003959Y013965D01*
X004014Y013910D01*
X004076Y013865D01*
X004145Y013830D01*
X004218Y013806D01*
X004294Y013794D01*
X004294Y013794D01*
X004294Y014245D01*
X004371Y014245D01*
X004371Y013794D01*
X004372Y013794D01*
X004448Y013806D01*
X004521Y013830D01*
X004590Y013865D01*
X004652Y013910D01*
X004707Y013965D01*
X004752Y014027D01*
X004787Y014096D01*
X004811Y014169D01*
X004823Y014245D01*
X004823Y014245D01*
X004372Y014245D01*
X004372Y014322D01*
X004823Y014322D01*
X004823Y014322D01*
X004811Y014399D01*
X004787Y014472D01*
X004752Y014541D01*
X004707Y014603D01*
X004652Y014658D01*
X004590Y014703D01*
X004521Y014738D01*
X004448Y014762D01*
X004372Y014774D01*
X004371Y014774D01*
X004371Y014322D01*
X004294Y014322D01*
X004294Y014774D01*
X004218Y014762D01*
X004294Y014762D02*
X004371Y014762D01*
X004444Y014762D02*
X005208Y014762D01*
X005236Y014774D02*
X005055Y014699D01*
X004918Y014561D01*
X004843Y014381D01*
X004843Y014186D01*
X004918Y014006D01*
X005055Y013868D01*
X005091Y013853D01*
X005091Y013708D01*
X004854Y013471D01*
X004320Y013471D01*
X004226Y013378D01*
X004226Y012733D01*
X004278Y012681D01*
X004226Y012630D01*
X004226Y011985D01*
X004320Y011891D01*
X005043Y011891D01*
X005137Y011985D01*
X005137Y012131D01*
X005726Y012131D01*
X005726Y012103D01*
X005173Y011550D01*
X004792Y011550D01*
X004699Y011456D01*
X004699Y010773D01*
X004787Y010684D01*
X004544Y010684D01*
X004566Y010690D01*
X004602Y010711D01*
X004632Y010741D01*
X004653Y010777D01*
X004664Y010818D01*
X004664Y011076D01*
X004346Y011076D01*
X004346Y011153D01*
X004664Y011153D01*
X004664Y011411D01*
X004653Y011452D01*
X004632Y011488D01*
X004602Y011518D01*
X004566Y011539D01*
X004525Y011550D01*
X004346Y011550D01*
X004346Y011153D01*
X004269Y011153D01*
X004269Y011550D01*
X004089Y011550D01*
X004049Y011539D01*
X004012Y011518D01*
X003983Y011488D01*
X003961Y011452D01*
X003951Y011411D01*
X003951Y011153D01*
X004269Y011153D01*
X004269Y011076D01*
X004346Y011076D01*
X004346Y010679D01*
X004413Y010679D01*
X004325Y010590D01*
X004325Y009906D01*
X004418Y009813D01*
X004945Y009813D01*
X005038Y009906D01*
X005038Y009948D01*
X005150Y009901D01*
X005293Y009901D01*
X005425Y009956D01*
X005527Y010057D01*
X005581Y010190D01*
X005581Y010333D01*
X005527Y010465D01*
X005425Y010567D01*
X005293Y010621D01*
X005150Y010621D01*
X005038Y010575D01*
X005038Y010590D01*
X004949Y010679D01*
X005319Y010679D01*
X005412Y010773D01*
X005412Y011195D01*
X006108Y011891D01*
X006543Y011891D01*
X006637Y011985D01*
X006637Y012630D01*
X006585Y012681D01*
X006637Y012733D01*
X006637Y012771D01*
X006691Y012771D01*
X006691Y011868D01*
X006294Y011471D01*
X005820Y011471D01*
X005726Y011378D01*
X005726Y010733D01*
X005778Y010681D01*
X005726Y010630D01*
X005726Y009985D01*
X005820Y009891D01*
X005971Y009891D01*
X005971Y009774D01*
X005981Y009764D01*
X005981Y009630D01*
X006036Y009497D01*
X006137Y009396D01*
X006270Y009341D01*
X006413Y009341D01*
X006545Y009396D01*
X006647Y009497D01*
X006701Y009630D01*
X006701Y009773D01*
X006647Y009905D01*
X006602Y009950D01*
X006637Y009985D01*
X006637Y010630D01*
X006585Y010681D01*
X006637Y010733D01*
X006637Y011220D01*
X006988Y011571D01*
X007111Y011694D01*
X007111Y012771D01*
X007226Y012771D01*
X007226Y012733D01*
X007278Y012681D01*
X007258Y012662D01*
X007237Y012625D01*
X007226Y012584D01*
X007226Y012367D01*
X007621Y012367D01*
X007621Y012247D01*
X007741Y012247D01*
X007741Y011891D01*
X007998Y011891D01*
X008038Y011902D01*
X008075Y011923D01*
X008105Y011953D01*
X008126Y011990D01*
X008137Y012030D01*
X008137Y012247D01*
X007742Y012247D01*
X007742Y012367D01*
X008137Y012367D01*
X008137Y012584D01*
X008126Y012625D01*
X008105Y012662D01*
X008085Y012681D01*
X008137Y012733D01*
X008137Y013049D01*
X008211Y012974D01*
X008211Y010414D01*
X008334Y010291D01*
X009261Y009364D01*
X009261Y009230D01*
X009316Y009097D01*
X009417Y008996D01*
X009550Y008941D01*
X009693Y008941D01*
X009825Y008996D01*
X009861Y009032D01*
X009897Y008996D01*
X010030Y008941D01*
X010173Y008941D01*
X010305Y008996D01*
X010407Y009097D01*
X010461Y009230D01*
X010461Y009373D01*
X010407Y009505D01*
X010305Y009607D01*
X010173Y009661D01*
X010038Y009661D01*
X008871Y010828D01*
X008871Y013614D01*
X008871Y013788D01*
X008701Y013959D01*
X008748Y014006D01*
X008823Y014186D01*
X008823Y014381D01*
X008748Y014561D01*
X008611Y014699D01*
X008430Y014774D01*
X008236Y014774D01*
X008055Y014699D01*
X007918Y014561D01*
X007843Y014381D01*
X007843Y014186D01*
X007918Y014006D01*
X008055Y013868D01*
X008236Y013794D01*
X008272Y013794D01*
X008451Y013614D01*
X008451Y013328D01*
X007756Y014024D01*
X007823Y014186D01*
X007823Y014381D01*
X007748Y014561D01*
X007611Y014699D01*
X007430Y014774D01*
X007236Y014774D01*
X007055Y014699D01*
X006918Y014561D01*
X006843Y014381D01*
X006843Y014186D01*
X006918Y014006D01*
X007055Y013868D01*
X007236Y013794D01*
X007392Y013794D01*
X007715Y013471D01*
X007320Y013471D01*
X007226Y013378D01*
X007226Y013191D01*
X006814Y013191D01*
X006637Y013191D01*
X006637Y013378D01*
X006543Y013471D01*
X005820Y013471D01*
X005726Y013378D01*
X005726Y012733D01*
X005778Y012681D01*
X005726Y012630D01*
X005726Y012551D01*
X005137Y012551D01*
X005137Y012630D01*
X005085Y012681D01*
X005137Y012733D01*
X005137Y013160D01*
X005388Y013411D01*
X005511Y013534D01*
X005511Y013827D01*
X005611Y013868D01*
X005748Y014006D01*
X005823Y014186D01*
X005823Y014381D01*
X005748Y014561D01*
X005611Y014699D01*
X005430Y014774D01*
X005236Y014774D01*
X005458Y014762D02*
X006208Y014762D01*
X006236Y014774D02*
X006055Y014699D01*
X005918Y014561D01*
X005843Y014381D01*
X005843Y014186D01*
X005918Y014006D01*
X006055Y013868D01*
X006236Y013794D01*
X006430Y013794D01*
X006611Y013868D01*
X006748Y014006D01*
X006823Y014186D01*
X006823Y014381D01*
X006748Y014561D01*
X006611Y014699D01*
X006430Y014774D01*
X006236Y014774D01*
X006458Y014762D02*
X007208Y014762D01*
X007000Y014644D02*
X006666Y014644D01*
X006763Y014525D02*
X006903Y014525D01*
X006854Y014407D02*
X006812Y014407D01*
X006823Y014288D02*
X006843Y014288D01*
X006850Y014170D02*
X006816Y014170D01*
X006767Y014051D02*
X006899Y014051D01*
X006991Y013932D02*
X006675Y013932D01*
X006479Y013814D02*
X007187Y013814D01*
X007490Y013695D02*
X005511Y013695D01*
X005511Y013577D02*
X007609Y013577D01*
X007307Y013458D02*
X006556Y013458D01*
X006637Y013340D02*
X007226Y013340D01*
X007226Y013221D02*
X006637Y013221D01*
X005807Y013458D02*
X005435Y013458D01*
X005317Y013340D02*
X005726Y013340D01*
X005726Y013221D02*
X005198Y013221D01*
X005137Y013103D02*
X005726Y013103D01*
X005726Y012984D02*
X005137Y012984D01*
X005137Y012866D02*
X005726Y012866D01*
X005726Y012747D02*
X005137Y012747D01*
X005137Y012628D02*
X005726Y012628D01*
X006637Y012628D02*
X006691Y012628D01*
X006691Y012510D02*
X006637Y012510D01*
X006637Y012391D02*
X006691Y012391D01*
X006691Y012273D02*
X006637Y012273D01*
X006637Y012154D02*
X006691Y012154D01*
X006691Y012036D02*
X006637Y012036D01*
X006691Y011917D02*
X006569Y011917D01*
X006622Y011799D02*
X006016Y011799D01*
X005897Y011680D02*
X006503Y011680D01*
X006385Y011562D02*
X005779Y011562D01*
X005792Y011443D02*
X005660Y011443D01*
X005726Y011324D02*
X005541Y011324D01*
X005423Y011206D02*
X005726Y011206D01*
X005726Y011087D02*
X005412Y011087D01*
X005412Y010969D02*
X005726Y010969D01*
X005726Y010850D02*
X005412Y010850D01*
X005371Y010732D02*
X005728Y010732D01*
X005726Y010613D02*
X005313Y010613D01*
X005130Y010613D02*
X005015Y010613D01*
X004739Y010732D02*
X004623Y010732D01*
X004664Y010850D02*
X004699Y010850D01*
X004699Y010969D02*
X004664Y010969D01*
X004699Y011087D02*
X004346Y011087D01*
X004269Y011087D02*
X000641Y011087D01*
X000641Y010969D02*
X003951Y010969D01*
X003951Y011076D02*
X003951Y010818D01*
X003961Y010777D01*
X003983Y010741D01*
X004012Y010711D01*
X004049Y010690D01*
X004089Y010679D01*
X004269Y010679D01*
X004269Y011076D01*
X003951Y011076D01*
X003951Y011206D02*
X000641Y011206D01*
X000641Y011324D02*
X003951Y011324D01*
X003959Y011443D02*
X000641Y011443D01*
X000641Y011562D02*
X005185Y011562D01*
X005303Y011680D02*
X000641Y011680D01*
X000641Y011799D02*
X005422Y011799D01*
X005540Y011917D02*
X005069Y011917D01*
X005137Y012036D02*
X005659Y012036D01*
X004294Y011917D02*
X000641Y011917D01*
X000641Y012036D02*
X004226Y012036D01*
X004226Y012154D02*
X000641Y012154D01*
X000641Y012273D02*
X004226Y012273D01*
X004226Y012391D02*
X000641Y012391D01*
X000641Y012510D02*
X004226Y012510D01*
X004226Y012628D02*
X000641Y012628D01*
X000641Y012747D02*
X004226Y012747D01*
X004226Y012866D02*
X000641Y012866D01*
X000641Y012984D02*
X004226Y012984D01*
X004226Y013103D02*
X000641Y013103D01*
X000641Y013221D02*
X004226Y013221D01*
X004226Y013340D02*
X002376Y013340D01*
X002663Y013458D02*
X004307Y013458D01*
X004960Y013577D02*
X002807Y013577D01*
X002926Y013695D02*
X005078Y013695D01*
X005091Y013814D02*
X004473Y013814D01*
X004371Y013814D02*
X004294Y013814D01*
X004193Y013814D02*
X003004Y013814D01*
X003053Y013932D02*
X003991Y013932D01*
X003902Y014051D02*
X003102Y014051D01*
X003120Y014170D02*
X003855Y014170D01*
X003843Y014245D02*
X003843Y014245D01*
X003843Y014322D02*
X003843Y014322D01*
X003858Y014407D02*
X003120Y014407D01*
X003120Y014288D02*
X004294Y014288D01*
X004372Y014288D02*
X004843Y014288D01*
X004850Y014170D02*
X004811Y014170D01*
X004764Y014051D02*
X004899Y014051D01*
X004991Y013932D02*
X004675Y013932D01*
X004371Y013932D02*
X004294Y013932D01*
X004294Y014051D02*
X004371Y014051D01*
X004371Y014170D02*
X004294Y014170D01*
X004294Y014407D02*
X004371Y014407D01*
X004371Y014525D02*
X004294Y014525D01*
X004294Y014644D02*
X004371Y014644D01*
X004294Y014774D02*
X004294Y014774D01*
X004000Y014644D02*
X003049Y014644D01*
X003098Y014525D02*
X003906Y014525D01*
X004666Y014644D02*
X005000Y014644D01*
X004903Y014525D02*
X004760Y014525D01*
X004808Y014407D02*
X004854Y014407D01*
X005666Y014644D02*
X006000Y014644D01*
X005903Y014525D02*
X005763Y014525D01*
X005812Y014407D02*
X005854Y014407D01*
X005843Y014288D02*
X005823Y014288D01*
X005816Y014170D02*
X005850Y014170D01*
X005899Y014051D02*
X005767Y014051D01*
X005675Y013932D02*
X005991Y013932D01*
X006187Y013814D02*
X005511Y013814D01*
X007767Y014051D02*
X007899Y014051D01*
X007850Y014170D02*
X007816Y014170D01*
X007823Y014288D02*
X007843Y014288D01*
X007854Y014407D02*
X007812Y014407D01*
X007763Y014525D02*
X007903Y014525D01*
X008000Y014644D02*
X007666Y014644D01*
X007458Y014762D02*
X008208Y014762D01*
X008458Y014762D02*
X009208Y014762D01*
X009000Y014644D02*
X008666Y014644D01*
X008763Y014525D02*
X008903Y014525D01*
X008854Y014407D02*
X008812Y014407D01*
X008823Y014288D02*
X008843Y014288D01*
X008850Y014170D02*
X008816Y014170D01*
X008767Y014051D02*
X008899Y014051D01*
X008991Y013932D02*
X008727Y013932D01*
X008846Y013814D02*
X009171Y013814D01*
X009171Y013695D02*
X008871Y013695D01*
X008871Y013577D02*
X009171Y013577D01*
X009171Y013458D02*
X008871Y013458D01*
X008871Y013340D02*
X009171Y013340D01*
X009171Y013221D02*
X008871Y013221D01*
X008871Y013103D02*
X009171Y013103D01*
X009171Y012984D02*
X008871Y012984D01*
X008871Y012866D02*
X009171Y012866D01*
X009171Y012747D02*
X008871Y012747D01*
X008871Y012628D02*
X009171Y012628D01*
X009171Y012510D02*
X008871Y012510D01*
X008871Y012391D02*
X009171Y012391D01*
X009171Y012273D02*
X008871Y012273D01*
X008871Y012154D02*
X009171Y012154D01*
X009171Y012036D02*
X008871Y012036D01*
X008871Y011917D02*
X009171Y011917D01*
X009171Y011799D02*
X008871Y011799D01*
X008871Y011680D02*
X009171Y011680D01*
X009171Y011562D02*
X008871Y011562D01*
X008871Y011443D02*
X009171Y011443D01*
X009171Y011324D02*
X008871Y011324D01*
X008871Y011206D02*
X009171Y011206D01*
X009171Y011087D02*
X008871Y011087D01*
X008871Y010969D02*
X009177Y010969D01*
X009296Y010850D02*
X008871Y010850D01*
X008968Y010732D02*
X009414Y010732D01*
X009533Y010613D02*
X009087Y010613D01*
X009205Y010495D02*
X009651Y010495D01*
X009770Y010376D02*
X009324Y010376D01*
X009442Y010258D02*
X009888Y010258D01*
X010007Y010139D02*
X009561Y010139D01*
X009679Y010021D02*
X010125Y010021D01*
X010244Y009902D02*
X009798Y009902D01*
X009916Y009783D02*
X010362Y009783D01*
X010481Y009665D02*
X010035Y009665D01*
X010366Y009546D02*
X010599Y009546D01*
X010718Y009428D02*
X010439Y009428D01*
X010461Y009309D02*
X010837Y009309D01*
X010955Y009191D02*
X010445Y009191D01*
X010381Y009072D02*
X011074Y009072D01*
X011192Y008954D02*
X010202Y008954D01*
X010000Y008954D02*
X009722Y008954D01*
X009520Y008954D02*
X000641Y008954D01*
X000641Y009072D02*
X009342Y009072D01*
X009278Y009191D02*
X000641Y009191D01*
X000641Y009309D02*
X009261Y009309D01*
X009198Y009428D02*
X006577Y009428D01*
X006667Y009546D02*
X009079Y009546D01*
X008961Y009665D02*
X006701Y009665D01*
X006697Y009783D02*
X008842Y009783D01*
X008724Y009902D02*
X006648Y009902D01*
X006637Y010021D02*
X008605Y010021D01*
X008487Y010139D02*
X006637Y010139D01*
X006637Y010258D02*
X008368Y010258D01*
X008250Y010376D02*
X006637Y010376D01*
X006637Y010495D02*
X008211Y010495D01*
X008211Y010613D02*
X006637Y010613D01*
X006635Y010732D02*
X008211Y010732D01*
X008211Y010850D02*
X006637Y010850D01*
X006637Y010969D02*
X008211Y010969D01*
X008211Y011087D02*
X006637Y011087D01*
X006637Y011206D02*
X008211Y011206D01*
X008211Y011324D02*
X006741Y011324D01*
X006860Y011443D02*
X008211Y011443D01*
X008211Y011562D02*
X006979Y011562D01*
X007097Y011680D02*
X008211Y011680D01*
X008211Y011799D02*
X007111Y011799D01*
X007111Y011917D02*
X007299Y011917D01*
X007288Y011923D02*
X007324Y011902D01*
X007365Y011891D01*
X007621Y011891D01*
X007621Y012247D01*
X007226Y012247D01*
X007226Y012030D01*
X007237Y011990D01*
X007258Y011953D01*
X007288Y011923D01*
X007226Y012036D02*
X007111Y012036D01*
X007111Y012154D02*
X007226Y012154D01*
X007111Y012273D02*
X007621Y012273D01*
X007621Y012154D02*
X007741Y012154D01*
X007741Y012036D02*
X007621Y012036D01*
X007621Y011917D02*
X007741Y011917D01*
X008064Y011917D02*
X008211Y011917D01*
X008211Y012036D02*
X008137Y012036D01*
X008137Y012154D02*
X008211Y012154D01*
X008211Y012273D02*
X007742Y012273D01*
X008137Y012391D02*
X008211Y012391D01*
X008211Y012510D02*
X008137Y012510D01*
X008124Y012628D02*
X008211Y012628D01*
X008211Y012747D02*
X008137Y012747D01*
X008137Y012866D02*
X008211Y012866D01*
X008202Y012984D02*
X008137Y012984D01*
X008440Y013340D02*
X008451Y013340D01*
X008451Y013458D02*
X008321Y013458D01*
X008203Y013577D02*
X008451Y013577D01*
X008370Y013695D02*
X008084Y013695D01*
X008187Y013814D02*
X007966Y013814D01*
X007991Y013932D02*
X007847Y013932D01*
X009591Y013814D02*
X010131Y013814D01*
X010131Y013837D02*
X010131Y013471D01*
X009945Y013471D01*
X009851Y013378D01*
X009851Y012733D01*
X009903Y012681D01*
X009883Y012662D01*
X009862Y012625D01*
X009851Y012584D01*
X009851Y012367D01*
X010246Y012367D01*
X010246Y012247D01*
X010366Y012247D01*
X010366Y011891D01*
X010623Y011891D01*
X010663Y011902D01*
X010700Y011923D01*
X010730Y011953D01*
X010751Y011990D01*
X010762Y012030D01*
X010762Y012247D01*
X010367Y012247D01*
X010367Y012367D01*
X010762Y012367D01*
X010762Y012584D01*
X010751Y012625D01*
X010730Y012662D01*
X010710Y012681D01*
X010762Y012733D01*
X010762Y013378D01*
X010668Y013471D01*
X010551Y013471D01*
X010551Y013844D01*
X010611Y013868D01*
X010748Y014006D01*
X010823Y014186D01*
X010823Y014381D01*
X010748Y014561D01*
X010611Y014699D01*
X010430Y014774D01*
X010236Y014774D01*
X010055Y014699D01*
X009918Y014561D01*
X009843Y014381D01*
X009843Y014186D01*
X009918Y014006D01*
X010055Y013868D01*
X010131Y013837D01*
X010131Y013695D02*
X009591Y013695D01*
X009591Y013577D02*
X010131Y013577D01*
X009932Y013458D02*
X009591Y013458D01*
X009591Y013340D02*
X009851Y013340D01*
X009851Y013221D02*
X009591Y013221D01*
X009591Y013103D02*
X009851Y013103D01*
X009851Y012984D02*
X009591Y012984D01*
X009591Y012866D02*
X009851Y012866D01*
X009851Y012747D02*
X009591Y012747D01*
X009591Y012628D02*
X009864Y012628D01*
X009851Y012510D02*
X009591Y012510D01*
X009591Y012391D02*
X009851Y012391D01*
X009851Y012247D02*
X009851Y012030D01*
X009862Y011990D01*
X009883Y011953D01*
X009913Y011923D01*
X009949Y011902D01*
X009990Y011891D01*
X010246Y011891D01*
X010246Y012247D01*
X009851Y012247D01*
X009851Y012154D02*
X009591Y012154D01*
X009591Y012036D02*
X009851Y012036D01*
X009924Y011917D02*
X009591Y011917D01*
X009591Y011799D02*
X016347Y011799D01*
X016229Y011917D02*
X013689Y011917D01*
X013700Y011923D02*
X013730Y011953D01*
X013751Y011990D01*
X013762Y012030D01*
X013762Y012247D01*
X013367Y012247D01*
X013367Y012367D01*
X013762Y012367D01*
X013762Y012584D01*
X013751Y012625D01*
X013730Y012662D01*
X013710Y012681D01*
X013762Y012733D01*
X013762Y013378D01*
X013668Y013471D01*
X013511Y013471D01*
X013511Y013827D01*
X013611Y013868D01*
X013748Y014006D01*
X013823Y014186D01*
X013823Y014381D01*
X013748Y014561D01*
X013611Y014699D01*
X013430Y014774D01*
X013236Y014774D01*
X013055Y014699D01*
X012918Y014561D01*
X012843Y014381D01*
X012843Y014186D01*
X012918Y014006D01*
X013055Y013868D01*
X013091Y013853D01*
X013091Y013471D01*
X012945Y013471D01*
X012851Y013378D01*
X012851Y012733D01*
X012903Y012681D01*
X012883Y012662D01*
X012862Y012625D01*
X012851Y012584D01*
X012851Y012367D01*
X013246Y012367D01*
X013246Y012247D01*
X013366Y012247D01*
X013366Y011891D01*
X013623Y011891D01*
X013663Y011902D01*
X013700Y011923D01*
X013762Y012036D02*
X016110Y012036D01*
X015992Y012154D02*
X013762Y012154D01*
X013762Y012391D02*
X015754Y012391D01*
X015636Y012510D02*
X013762Y012510D01*
X013749Y012628D02*
X015517Y012628D01*
X015399Y012747D02*
X013762Y012747D01*
X013762Y012866D02*
X015280Y012866D01*
X015162Y012984D02*
X013762Y012984D01*
X013762Y013103D02*
X015043Y013103D01*
X014925Y013221D02*
X013762Y013221D01*
X013762Y013340D02*
X014806Y013340D01*
X014688Y013458D02*
X013681Y013458D01*
X013511Y013577D02*
X014569Y013577D01*
X014451Y013695D02*
X013511Y013695D01*
X013511Y013814D02*
X014187Y013814D01*
X014236Y013794D02*
X014055Y013868D01*
X013918Y014006D01*
X013843Y014186D01*
X013843Y014381D01*
X013918Y014561D01*
X014055Y014699D01*
X014236Y014774D01*
X014430Y014774D01*
X014611Y014699D01*
X014748Y014561D01*
X014823Y014381D01*
X014823Y014186D01*
X014748Y014006D01*
X014741Y013999D01*
X016838Y011901D01*
X016973Y011901D01*
X017105Y011847D01*
X017207Y011745D01*
X017261Y011613D01*
X017261Y011470D01*
X017207Y011337D01*
X017105Y011236D01*
X016973Y011181D01*
X016830Y011181D01*
X016697Y011236D01*
X016596Y011337D01*
X016541Y011470D01*
X016541Y011604D01*
X014352Y013794D01*
X014236Y013794D01*
X013991Y013932D02*
X013675Y013932D01*
X013767Y014051D02*
X013899Y014051D01*
X013850Y014170D02*
X013816Y014170D01*
X013823Y014288D02*
X013843Y014288D01*
X013854Y014407D02*
X013812Y014407D01*
X013763Y014525D02*
X013903Y014525D01*
X014000Y014644D02*
X013666Y014644D01*
X013458Y014762D02*
X014208Y014762D01*
X014458Y014762D02*
X015208Y014762D01*
X015236Y014774D02*
X015055Y014699D01*
X014918Y014561D01*
X014843Y014381D01*
X014843Y014186D01*
X014918Y014006D01*
X015055Y013868D01*
X015236Y013794D01*
X015430Y013794D01*
X015611Y013868D01*
X015748Y014006D01*
X015823Y014186D01*
X015823Y014381D01*
X015748Y014561D01*
X015611Y014699D01*
X015430Y014774D01*
X015236Y014774D01*
X015458Y014762D02*
X016208Y014762D01*
X016236Y014774D02*
X016055Y014699D01*
X015918Y014561D01*
X015843Y014381D01*
X015843Y014186D01*
X015918Y014006D01*
X016055Y013868D01*
X016236Y013794D01*
X016430Y013794D01*
X016611Y013868D01*
X016748Y014006D01*
X016823Y014186D01*
X016823Y014381D01*
X016748Y014561D01*
X016611Y014699D01*
X016430Y014774D01*
X016236Y014774D01*
X016458Y014762D02*
X017208Y014762D01*
X017000Y014644D02*
X016666Y014644D01*
X016763Y014525D02*
X016903Y014525D01*
X016854Y014407D02*
X016812Y014407D01*
X016823Y014288D02*
X016843Y014288D01*
X016850Y014170D02*
X016816Y014170D01*
X016767Y014051D02*
X016899Y014051D01*
X016991Y013932D02*
X016675Y013932D01*
X016479Y013814D02*
X017187Y013814D01*
X017410Y013695D02*
X015044Y013695D01*
X014926Y013814D02*
X015187Y013814D01*
X014991Y013932D02*
X014807Y013932D01*
X014767Y014051D02*
X014899Y014051D01*
X014850Y014170D02*
X014816Y014170D01*
X014823Y014288D02*
X014843Y014288D01*
X014854Y014407D02*
X014812Y014407D01*
X014763Y014525D02*
X014903Y014525D01*
X015000Y014644D02*
X014666Y014644D01*
X015666Y014644D02*
X016000Y014644D01*
X015903Y014525D02*
X015763Y014525D01*
X015812Y014407D02*
X015854Y014407D01*
X015843Y014288D02*
X015823Y014288D01*
X015816Y014170D02*
X015850Y014170D01*
X015899Y014051D02*
X015767Y014051D01*
X015675Y013932D02*
X015991Y013932D01*
X016187Y013814D02*
X015479Y013814D01*
X015163Y013577D02*
X017529Y013577D01*
X017648Y013458D02*
X015281Y013458D01*
X015400Y013340D02*
X017766Y013340D01*
X017885Y013221D02*
X015519Y013221D01*
X015637Y013103D02*
X018003Y013103D01*
X018122Y012984D02*
X015756Y012984D01*
X015874Y012866D02*
X018240Y012866D01*
X018359Y012747D02*
X015993Y012747D01*
X016111Y012628D02*
X018477Y012628D01*
X018596Y012510D02*
X016230Y012510D01*
X016348Y012391D02*
X018714Y012391D01*
X018833Y012273D02*
X016467Y012273D01*
X016585Y012154D02*
X018952Y012154D01*
X019070Y012036D02*
X016704Y012036D01*
X016823Y011917D02*
X019076Y011917D01*
X019116Y011799D02*
X017153Y011799D01*
X017234Y011680D02*
X019214Y011680D01*
X019659Y011680D02*
X020351Y011680D01*
X020351Y011562D02*
X017261Y011562D01*
X017250Y011443D02*
X020351Y011443D01*
X020351Y011324D02*
X017194Y011324D01*
X017032Y011206D02*
X020351Y011206D01*
X020351Y011799D02*
X019757Y011799D01*
X019796Y011917D02*
X020351Y011917D01*
X020351Y012036D02*
X019796Y012036D01*
X019748Y012154D02*
X020351Y012154D01*
X020351Y012273D02*
X019637Y012273D01*
X019308Y012391D02*
X020351Y012391D01*
X020351Y012510D02*
X019190Y012510D01*
X019071Y012628D02*
X020351Y012628D01*
X020351Y012747D02*
X018953Y012747D01*
X018834Y012866D02*
X020351Y012866D01*
X020367Y012984D02*
X018716Y012984D01*
X018597Y013103D02*
X020486Y013103D01*
X020604Y013221D02*
X018479Y013221D01*
X018360Y013340D02*
X020723Y013340D01*
X020841Y013458D02*
X018241Y013458D01*
X018123Y013577D02*
X020861Y013577D01*
X021080Y013103D02*
X021443Y013103D01*
X021411Y013221D02*
X021389Y013221D01*
X021513Y012984D02*
X021562Y012984D01*
X021620Y012866D02*
X021680Y012866D01*
X021666Y012747D02*
X021799Y012747D01*
X021917Y012628D02*
X021666Y012628D01*
X021625Y012510D02*
X021940Y012510D01*
X021965Y012391D02*
X021525Y012391D01*
X021512Y012273D02*
X021940Y012273D01*
X021940Y012154D02*
X021512Y012154D01*
X021512Y012036D02*
X021940Y012036D01*
X020846Y012510D02*
X020771Y012510D01*
X020771Y012628D02*
X020946Y012628D01*
X020946Y012747D02*
X020771Y012747D01*
X020843Y012866D02*
X020993Y012866D01*
X020961Y012984D02*
X021100Y012984D01*
X021831Y013340D02*
X021940Y013340D01*
X021940Y013221D02*
X021919Y013221D01*
X021831Y013458D02*
X022032Y013458D01*
X023033Y013458D02*
X024079Y013458D01*
X023987Y013340D02*
X023126Y013340D01*
X023126Y013221D02*
X023987Y013221D01*
X023987Y013103D02*
X023126Y013103D01*
X023113Y012984D02*
X023595Y012984D01*
X023523Y012866D02*
X023154Y012866D01*
X023273Y012747D02*
X023501Y012747D01*
X023519Y012628D02*
X023391Y012628D01*
X023510Y012510D02*
X023584Y012510D01*
X023628Y012391D02*
X023766Y012391D01*
X023591Y011917D02*
X024038Y011917D01*
X025122Y011917D02*
X025251Y011917D01*
X025251Y011799D02*
X025173Y011799D01*
X025173Y011680D02*
X025251Y011680D01*
X025251Y011562D02*
X025173Y011562D01*
X025119Y011443D02*
X025251Y011443D01*
X026783Y011443D02*
X026783Y011443D01*
X026783Y011562D02*
X026783Y011562D01*
X026783Y011680D02*
X026783Y011680D01*
X027322Y011443D02*
X027491Y011443D01*
X027491Y011562D02*
X027376Y011562D01*
X027376Y011680D02*
X027491Y011680D01*
X027387Y011799D02*
X027376Y011799D01*
X028151Y011443D02*
X028291Y011443D01*
X028151Y011324D02*
X035301Y011324D01*
X035183Y011443D02*
X029369Y011443D01*
X029423Y011562D02*
X035064Y011562D01*
X035011Y011680D02*
X029423Y011680D01*
X029423Y011799D02*
X035011Y011799D01*
X035011Y011917D02*
X029372Y011917D01*
X028151Y011206D02*
X041221Y011206D01*
X041221Y011324D02*
X038261Y011324D01*
X038311Y011443D02*
X041221Y011443D01*
X041221Y011562D02*
X038311Y011562D01*
X038311Y011680D02*
X041221Y011680D01*
X041221Y011799D02*
X038828Y011799D01*
X038837Y011917D02*
X041221Y011917D01*
X041221Y012036D02*
X038837Y012036D01*
X038837Y012154D02*
X041221Y012154D01*
X041221Y012273D02*
X038837Y012273D01*
X038837Y012391D02*
X041221Y012391D01*
X041221Y012510D02*
X038837Y012510D01*
X038837Y012628D02*
X041221Y012628D01*
X041221Y012747D02*
X038818Y012747D01*
X037873Y012866D02*
X041221Y012866D01*
X041221Y012984D02*
X037878Y012984D01*
X037878Y013103D02*
X038027Y013103D01*
X038176Y013103D02*
X041221Y013103D01*
X041221Y013221D02*
X038370Y013221D01*
X038441Y013340D02*
X041221Y013340D01*
X041221Y013458D02*
X038461Y013458D01*
X038443Y013577D02*
X041221Y013577D01*
X041221Y013695D02*
X039032Y013695D01*
X039034Y013814D02*
X041221Y013814D01*
X041221Y013932D02*
X039034Y013932D01*
X039034Y014051D02*
X041221Y014051D01*
X041221Y014170D02*
X039034Y014170D01*
X039034Y014288D02*
X041221Y014288D01*
X041221Y014407D02*
X039034Y014407D01*
X039034Y014525D02*
X041221Y014525D01*
X041221Y014644D02*
X039034Y014644D01*
X038969Y014762D02*
X041221Y014762D01*
X041221Y014881D02*
X037815Y014881D01*
X037758Y014999D02*
X041221Y014999D01*
X041221Y015118D02*
X037639Y015118D01*
X037442Y015236D02*
X041221Y015236D01*
X037691Y014051D02*
X037626Y014051D01*
X037691Y013932D02*
X037411Y013932D01*
X037691Y013814D02*
X036672Y013814D01*
X036672Y013932D02*
X036952Y013932D01*
X036737Y014051D02*
X036672Y014051D01*
X036670Y013695D02*
X037002Y013695D01*
X037361Y013695D02*
X037693Y013695D01*
X037760Y013577D02*
X037605Y013577D01*
X037724Y013458D02*
X037741Y013458D01*
X041221Y011087D02*
X028151Y011087D01*
X028151Y010969D02*
X041221Y010969D01*
X041221Y010850D02*
X028151Y010850D01*
X028151Y010732D02*
X041221Y010732D01*
X041221Y010613D02*
X028151Y010613D01*
X028151Y010495D02*
X037943Y010495D01*
X037954Y010501D02*
X037918Y010480D01*
X037791Y010354D01*
X038016Y010130D01*
X038240Y010354D01*
X038114Y010480D01*
X038078Y010501D01*
X038037Y010512D01*
X037995Y010512D01*
X037954Y010501D01*
X038089Y010495D02*
X041221Y010495D01*
X041221Y010376D02*
X038218Y010376D01*
X038293Y010301D02*
X038069Y010077D01*
X038016Y010130D01*
X037963Y010077D01*
X037738Y010301D01*
X037612Y010175D01*
X037591Y010138D01*
X037580Y010098D01*
X037580Y010055D01*
X037591Y010015D01*
X037612Y009978D01*
X037738Y009852D01*
X037963Y010076D01*
X038016Y010023D01*
X038069Y010076D01*
X038293Y009852D01*
X038420Y009978D01*
X038441Y010015D01*
X038451Y010055D01*
X038451Y010098D01*
X038441Y010138D01*
X038420Y010175D01*
X038293Y010301D01*
X038250Y010258D02*
X038144Y010258D01*
X038131Y010139D02*
X038025Y010139D01*
X038006Y010139D02*
X037900Y010139D01*
X037907Y010021D02*
X038013Y010021D01*
X038016Y010023D02*
X037791Y009799D01*
X037918Y009673D01*
X037954Y009652D01*
X037995Y009641D01*
X038037Y009641D01*
X038078Y009652D01*
X038114Y009673D01*
X038240Y009799D01*
X038016Y010023D01*
X038019Y010021D02*
X038125Y010021D01*
X038137Y009902D02*
X038243Y009902D01*
X038343Y009902D02*
X038400Y009902D01*
X038480Y009982D02*
X038110Y009612D01*
X038110Y009581D01*
X037977Y009527D01*
X037876Y009425D01*
X037821Y009293D01*
X037821Y009150D01*
X037876Y009017D01*
X037977Y008916D01*
X038110Y008861D01*
X038253Y008861D01*
X038385Y008916D01*
X038487Y009017D01*
X038525Y009110D01*
X038612Y009110D01*
X038982Y009480D01*
X038982Y009612D01*
X038612Y009982D01*
X038480Y009982D01*
X038442Y010021D02*
X041221Y010021D01*
X041221Y010139D02*
X038440Y010139D01*
X038337Y010258D02*
X041221Y010258D01*
X041221Y009902D02*
X038692Y009902D01*
X038811Y009783D02*
X041221Y009783D01*
X041221Y009665D02*
X038929Y009665D01*
X038982Y009546D02*
X041221Y009546D01*
X041221Y009428D02*
X039160Y009428D01*
X039175Y009420D02*
X039138Y009441D01*
X039098Y009451D01*
X039055Y009451D01*
X039015Y009441D01*
X038978Y009420D01*
X038852Y009293D01*
X039076Y009069D01*
X039023Y009016D01*
X038799Y009240D01*
X038673Y009114D01*
X038652Y009078D01*
X038641Y009037D01*
X038641Y008995D01*
X038652Y008954D01*
X038673Y008918D01*
X038799Y008791D01*
X039023Y009016D01*
X039076Y008963D01*
X038852Y008738D01*
X038978Y008612D01*
X039015Y008591D01*
X039055Y008580D01*
X039098Y008580D01*
X039138Y008591D01*
X039175Y008612D01*
X039301Y008738D01*
X039077Y008963D01*
X039130Y009016D01*
X039077Y009069D01*
X039301Y009293D01*
X039175Y009420D01*
X039285Y009309D02*
X041221Y009309D01*
X041221Y009191D02*
X039403Y009191D01*
X039354Y009240D02*
X039130Y009016D01*
X039354Y008791D01*
X039480Y008918D01*
X039501Y008954D01*
X039512Y008995D01*
X039512Y009037D01*
X039501Y009078D01*
X039480Y009114D01*
X039354Y009240D01*
X039304Y009191D02*
X039198Y009191D01*
X039186Y009072D02*
X039080Y009072D01*
X039073Y009072D02*
X038967Y009072D01*
X038961Y008954D02*
X039067Y008954D01*
X039085Y008954D02*
X039192Y008954D01*
X039204Y008835D02*
X039310Y008835D01*
X039398Y008835D02*
X041221Y008835D01*
X041221Y008717D02*
X039279Y008717D01*
X039150Y008598D02*
X041221Y008598D01*
X041221Y008479D02*
X028151Y008479D01*
X028151Y008361D02*
X041221Y008361D01*
X041221Y008242D02*
X028151Y008242D01*
X028151Y008124D02*
X041221Y008124D01*
X041221Y008005D02*
X028151Y008005D01*
X028151Y007887D02*
X041221Y007887D01*
X041221Y007768D02*
X035354Y007768D01*
X035218Y007768D02*
X028151Y007768D01*
X028107Y007650D02*
X035087Y007650D01*
X035287Y007294D02*
X035392Y007294D01*
X035405Y007175D02*
X035511Y007175D01*
X035617Y007175D02*
X035673Y007175D01*
X035718Y007220D02*
X035592Y007094D01*
X035817Y006870D01*
X036041Y007094D01*
X035915Y007220D01*
X035878Y007241D01*
X035838Y007252D01*
X035796Y007252D01*
X035755Y007241D01*
X035718Y007220D01*
X035713Y007294D02*
X038521Y007294D01*
X038418Y007175D02*
X038096Y007175D01*
X038065Y007207D02*
X037933Y007261D01*
X037790Y007261D01*
X037657Y007207D01*
X037556Y007105D01*
X037501Y006973D01*
X037501Y006830D01*
X037556Y006697D01*
X037657Y006596D01*
X037790Y006541D01*
X037803Y006541D01*
X037803Y006443D01*
X038172Y006073D01*
X038305Y006073D01*
X038674Y006443D01*
X038674Y006575D01*
X038305Y006945D01*
X038221Y006945D01*
X038221Y006973D01*
X038167Y007105D01*
X038065Y007207D01*
X038187Y007057D02*
X038419Y007057D01*
X038311Y006938D02*
X038538Y006938D01*
X038430Y006820D02*
X038656Y006820D01*
X038548Y006701D02*
X038775Y006701D01*
X038667Y006583D02*
X038897Y006583D01*
X038989Y006464D02*
X038674Y006464D01*
X038137Y006109D02*
X036671Y006109D01*
X036625Y006062D02*
X036751Y006188D01*
X036772Y006225D01*
X036783Y006265D01*
X036783Y006307D01*
X036772Y006348D01*
X036751Y006385D01*
X036624Y006511D01*
X036400Y006286D01*
X036625Y006062D01*
X036578Y006109D02*
X036472Y006109D01*
X036459Y006227D02*
X036353Y006227D01*
X036347Y006233D02*
X036400Y006286D01*
X036347Y006340D01*
X036571Y006564D01*
X036445Y006690D01*
X036409Y006711D01*
X036368Y006722D01*
X036326Y006722D01*
X036285Y006711D01*
X036249Y006690D01*
X036123Y006564D01*
X036347Y006339D01*
X036294Y006286D01*
X036347Y006233D01*
X036571Y006009D01*
X036445Y005883D01*
X036409Y005861D01*
X036368Y005851D01*
X036326Y005851D01*
X036285Y005861D01*
X036249Y005883D01*
X036123Y006009D01*
X036347Y006233D01*
X036341Y006227D02*
X036235Y006227D01*
X036294Y006286D02*
X036069Y006062D01*
X035943Y006188D01*
X035922Y006225D01*
X035911Y006265D01*
X035911Y006307D01*
X035922Y006348D01*
X035943Y006385D01*
X036069Y006511D01*
X036294Y006286D01*
X036341Y006346D02*
X036235Y006346D01*
X036353Y006346D02*
X036459Y006346D01*
X036472Y006464D02*
X036578Y006464D01*
X036671Y006464D02*
X037803Y006464D01*
X037900Y006346D02*
X036772Y006346D01*
X036772Y006227D02*
X038018Y006227D01*
X037690Y006583D02*
X036553Y006583D01*
X036426Y006701D02*
X037555Y006701D01*
X037506Y006820D02*
X036252Y006820D01*
X036252Y006838D02*
X036241Y006878D01*
X036220Y006915D01*
X036094Y007041D01*
X035870Y006817D01*
X035817Y006870D01*
X035763Y006817D01*
X035539Y007041D01*
X035413Y006915D01*
X035392Y006878D01*
X035381Y006838D01*
X035381Y006796D01*
X035392Y006755D01*
X035413Y006718D01*
X035539Y006592D01*
X035763Y006817D01*
X035817Y006763D01*
X035870Y006817D01*
X036094Y006592D01*
X036220Y006718D01*
X036241Y006755D01*
X036252Y006796D01*
X036252Y006838D01*
X036197Y006938D02*
X037501Y006938D01*
X037536Y007057D02*
X036004Y007057D01*
X035991Y006938D02*
X035885Y006938D01*
X035873Y006820D02*
X035867Y006820D01*
X035817Y006763D02*
X036041Y006539D01*
X035915Y006413D01*
X035878Y006392D01*
X035838Y006381D01*
X035796Y006381D01*
X035755Y006392D01*
X035718Y006413D01*
X035592Y006539D01*
X035817Y006763D01*
X035767Y006820D02*
X035760Y006820D01*
X035754Y006701D02*
X035648Y006701D01*
X035636Y006583D02*
X034397Y006583D01*
X034381Y006701D02*
X035430Y006701D01*
X035381Y006820D02*
X034345Y006820D01*
X034254Y006938D02*
X035196Y006938D01*
X035376Y006938D02*
X035436Y006938D01*
X035498Y007057D02*
X035629Y007057D01*
X035642Y006938D02*
X035748Y006938D01*
X035960Y007175D02*
X037626Y007175D01*
X038640Y007413D02*
X035709Y007413D01*
X035604Y007531D02*
X038759Y007531D01*
X039002Y008598D02*
X028151Y008598D01*
X028151Y008717D02*
X038874Y008717D01*
X038843Y008835D02*
X038949Y008835D01*
X038755Y008835D02*
X035608Y008835D01*
X035575Y008803D02*
X035443Y008803D01*
X035073Y009172D01*
X035073Y009305D01*
X035117Y009349D01*
X034884Y009581D01*
X034750Y009581D01*
X034617Y009636D01*
X034516Y009737D01*
X034461Y009870D01*
X034461Y010013D01*
X034516Y010145D01*
X034617Y010247D01*
X034750Y010301D01*
X034893Y010301D01*
X035025Y010247D01*
X035127Y010145D01*
X035181Y010013D01*
X035181Y009878D01*
X035414Y009646D01*
X035443Y009674D01*
X035575Y009674D01*
X035945Y009305D01*
X035945Y009172D01*
X035575Y008803D01*
X035410Y008835D02*
X028151Y008835D01*
X028151Y008954D02*
X035292Y008954D01*
X035173Y009072D02*
X028151Y009072D01*
X028151Y009191D02*
X035073Y009191D01*
X035078Y009309D02*
X028151Y009309D01*
X028151Y009428D02*
X035038Y009428D01*
X034919Y009546D02*
X028151Y009546D01*
X028151Y009665D02*
X034589Y009665D01*
X034497Y009783D02*
X028151Y009783D01*
X028151Y009902D02*
X034461Y009902D01*
X034465Y010021D02*
X028151Y010021D01*
X028151Y010139D02*
X034514Y010139D01*
X034644Y010258D02*
X028151Y010258D01*
X028151Y010376D02*
X037813Y010376D01*
X037781Y010258D02*
X037888Y010258D01*
X037695Y010258D02*
X036222Y010258D01*
X036191Y010289D02*
X036058Y010289D01*
X035689Y009920D01*
X035689Y009787D01*
X036058Y009418D01*
X036061Y009418D01*
X036061Y009390D01*
X036116Y009257D01*
X036217Y009156D01*
X036350Y009101D01*
X036493Y009101D01*
X036625Y009156D01*
X036727Y009257D01*
X036781Y009390D01*
X036781Y009533D01*
X036727Y009665D01*
X037931Y009665D01*
X038025Y009546D02*
X036776Y009546D01*
X036781Y009428D02*
X037879Y009428D01*
X037828Y009309D02*
X036748Y009309D01*
X036660Y009191D02*
X037821Y009191D01*
X037854Y009072D02*
X035845Y009072D01*
X035945Y009191D02*
X036183Y009191D01*
X036095Y009309D02*
X035940Y009309D01*
X036048Y009428D02*
X035822Y009428D01*
X035930Y009546D02*
X035703Y009546D01*
X035811Y009665D02*
X035585Y009665D01*
X035434Y009665D02*
X035395Y009665D01*
X035276Y009783D02*
X035693Y009783D01*
X035689Y009902D02*
X035181Y009902D01*
X035178Y010021D02*
X035789Y010021D01*
X035908Y010139D02*
X035129Y010139D01*
X034999Y010258D02*
X036026Y010258D01*
X036191Y010289D02*
X036560Y009920D01*
X036560Y009794D01*
X036625Y009767D01*
X036727Y009665D01*
X036585Y009783D02*
X037807Y009783D01*
X037788Y009902D02*
X037894Y009902D01*
X037688Y009902D02*
X036560Y009902D01*
X036459Y010021D02*
X037589Y010021D01*
X037591Y010139D02*
X036341Y010139D01*
X038100Y009665D02*
X038163Y009665D01*
X038110Y009581D02*
X038110Y009581D01*
X038225Y009783D02*
X038281Y009783D01*
X038930Y009428D02*
X038993Y009428D01*
X038868Y009309D02*
X038811Y009309D01*
X038848Y009191D02*
X038955Y009191D01*
X038749Y009191D02*
X038693Y009191D01*
X038650Y009072D02*
X038509Y009072D01*
X038423Y008954D02*
X038652Y008954D01*
X037940Y008954D02*
X035726Y008954D01*
X039501Y008954D02*
X041221Y008954D01*
X041221Y009072D02*
X039503Y009072D01*
X036268Y006701D02*
X036203Y006701D01*
X036141Y006583D02*
X035997Y006583D01*
X035985Y006701D02*
X035879Y006701D01*
X035966Y006464D02*
X036023Y006464D01*
X036116Y006464D02*
X036222Y006464D01*
X035922Y006346D02*
X034634Y006346D01*
X034516Y006464D02*
X035667Y006464D01*
X035921Y006227D02*
X034753Y006227D01*
X034871Y006109D02*
X036023Y006109D01*
X036116Y006109D02*
X036222Y006109D01*
X036141Y005990D02*
X034990Y005990D01*
X035108Y005871D02*
X036268Y005871D01*
X036426Y005871D02*
X041221Y005871D01*
X041221Y005753D02*
X035227Y005753D01*
X035345Y005634D02*
X037984Y005634D01*
X037865Y005516D02*
X035464Y005516D01*
X035582Y005397D02*
X037747Y005397D01*
X037721Y005279D02*
X035701Y005279D01*
X035820Y005160D02*
X037721Y005160D01*
X037705Y005042D02*
X035938Y005042D01*
X036317Y004923D02*
X037586Y004923D01*
X037468Y004805D02*
X036509Y004805D01*
X036595Y004686D02*
X037349Y004686D01*
X037251Y004568D02*
X036641Y004568D01*
X036641Y004449D02*
X037251Y004449D01*
X037251Y004330D02*
X036641Y004330D01*
X036641Y004212D02*
X037251Y004212D01*
X037156Y004093D02*
X036641Y004093D01*
X036641Y003975D02*
X037038Y003975D01*
X036919Y003856D02*
X036641Y003856D01*
X036620Y003738D02*
X036801Y003738D01*
X036682Y003619D02*
X036570Y003619D01*
X036564Y003501D02*
X036451Y003501D01*
X037513Y003856D02*
X037856Y003856D01*
X037737Y003975D02*
X037632Y003975D01*
X037671Y004093D02*
X037721Y004093D01*
X040388Y003738D02*
X041221Y003738D01*
X041221Y003856D02*
X040507Y003856D01*
X040625Y003975D02*
X041221Y003975D01*
X041221Y004093D02*
X040641Y004093D01*
X040641Y004212D02*
X041221Y004212D01*
X041221Y004330D02*
X040641Y004330D01*
X040564Y004449D02*
X041221Y004449D01*
X041221Y005990D02*
X036553Y005990D01*
X035046Y004923D02*
X034310Y004923D01*
X034289Y004930D02*
X034221Y004941D01*
X034221Y004222D01*
X034141Y004222D01*
X034141Y004941D01*
X034074Y004930D01*
X034005Y004908D01*
X033940Y004875D01*
X033882Y004832D01*
X033831Y004781D01*
X033788Y004722D01*
X033755Y004658D01*
X033733Y004589D01*
X033721Y004518D01*
X033721Y004221D01*
X034141Y004221D01*
X034141Y004141D01*
X033721Y004141D01*
X033721Y003845D01*
X033733Y003774D01*
X033755Y003705D01*
X033788Y003640D01*
X033831Y003582D01*
X033882Y003531D01*
X033940Y003488D01*
X034005Y003455D01*
X034074Y003433D01*
X034141Y003422D01*
X034141Y004141D01*
X034221Y004141D01*
X034221Y003422D01*
X034289Y003433D01*
X034358Y003455D01*
X034422Y003488D01*
X034481Y003531D01*
X034532Y003582D01*
X034575Y003640D01*
X034608Y003705D01*
X034630Y003774D01*
X034641Y003845D01*
X034641Y004141D01*
X034222Y004141D01*
X034222Y004221D01*
X034641Y004221D01*
X034641Y004518D01*
X034630Y004589D01*
X034608Y004658D01*
X034575Y004722D01*
X034532Y004781D01*
X034481Y004832D01*
X034422Y004875D01*
X034358Y004908D01*
X034289Y004930D01*
X034221Y004923D02*
X034141Y004923D01*
X034052Y004923D02*
X027860Y004923D01*
X027742Y004805D02*
X033854Y004805D01*
X033769Y004686D02*
X027623Y004686D01*
X027504Y004568D02*
X033729Y004568D01*
X033721Y004449D02*
X027386Y004449D01*
X027267Y004330D02*
X033721Y004330D01*
X033721Y004093D02*
X027030Y004093D01*
X026912Y003975D02*
X033721Y003975D01*
X033721Y003856D02*
X026793Y003856D01*
X026675Y003738D02*
X033744Y003738D01*
X033803Y003619D02*
X021304Y003619D01*
X021447Y003738D02*
X022488Y003738D01*
X022371Y003856D02*
X021496Y003856D01*
X021501Y003975D02*
X022371Y003975D01*
X022371Y004093D02*
X021468Y004093D01*
X021490Y004237D02*
X021530Y004226D01*
X021747Y004226D01*
X021747Y004621D01*
X021391Y004621D01*
X021391Y004365D01*
X021402Y004324D01*
X021423Y004288D01*
X021453Y004258D01*
X021490Y004237D01*
X021380Y004212D02*
X022371Y004212D01*
X022791Y004212D02*
X025002Y004212D01*
X023391Y004330D02*
X022971Y004330D01*
X022971Y004449D02*
X023391Y004449D01*
X023391Y004568D02*
X022971Y004568D01*
X022971Y004686D02*
X023391Y004686D01*
X023391Y004805D02*
X022971Y004805D01*
X022971Y004923D02*
X023391Y004923D01*
X023391Y005042D02*
X022971Y005042D01*
X022814Y005397D02*
X023591Y005397D01*
X023581Y005279D02*
X022268Y005279D01*
X021775Y005279D02*
X021351Y005279D01*
X021351Y005397D02*
X021691Y005397D01*
X021661Y005516D02*
X021351Y005516D01*
X021351Y005634D02*
X021670Y005634D01*
X021724Y005753D02*
X021351Y005753D01*
X021351Y005871D02*
X021878Y005871D01*
X022061Y005990D02*
X021351Y005990D01*
X021366Y006109D02*
X021876Y006109D01*
X021809Y006227D02*
X021484Y006227D01*
X021603Y006346D02*
X021809Y006346D01*
X021809Y006464D02*
X021721Y006464D01*
X021364Y006701D02*
X021158Y006701D01*
X021246Y006583D02*
X021040Y006583D01*
X021127Y006464D02*
X020921Y006464D01*
X021009Y006346D02*
X020803Y006346D01*
X020684Y006227D02*
X020931Y006227D01*
X020931Y006109D02*
X020221Y006109D01*
X020221Y005990D02*
X020931Y005990D01*
X020931Y005871D02*
X020148Y005871D01*
X019831Y005753D02*
X020931Y005753D01*
X020931Y005634D02*
X019771Y005634D01*
X019653Y005516D02*
X020931Y005516D01*
X020931Y005397D02*
X017471Y005397D01*
X017471Y005279D02*
X020931Y005279D01*
X020931Y005160D02*
X017471Y005160D01*
X017471Y005042D02*
X020931Y005042D01*
X020931Y004923D02*
X017471Y004923D01*
X016391Y004923D02*
X015817Y004923D01*
X015935Y004805D02*
X020931Y004805D01*
X020931Y004686D02*
X016210Y004686D01*
X016384Y004568D02*
X020931Y004568D01*
X020931Y004449D02*
X016446Y004449D01*
X016461Y004330D02*
X020931Y004330D01*
X020903Y004212D02*
X016437Y004212D01*
X016362Y004093D02*
X020815Y004093D01*
X021351Y004330D02*
X021401Y004330D01*
X021391Y004449D02*
X021351Y004449D01*
X021351Y004568D02*
X021391Y004568D01*
X021351Y004686D02*
X021747Y004686D01*
X021747Y004568D02*
X021867Y004568D01*
X021867Y004449D02*
X021747Y004449D01*
X021747Y004330D02*
X021867Y004330D01*
X021867Y004805D02*
X021747Y004805D01*
X021747Y004923D02*
X021867Y004923D01*
X021867Y005042D02*
X021747Y005042D01*
X021404Y005042D02*
X021351Y005042D01*
X021351Y005160D02*
X023610Y005160D01*
X023647Y005516D02*
X022933Y005516D01*
X023051Y005634D02*
X023342Y005634D01*
X023230Y005753D02*
X023170Y005753D01*
X023741Y005634D02*
X023805Y005634D01*
X023853Y005753D02*
X024153Y005753D01*
X024078Y005634D02*
X024271Y005634D01*
X024034Y005871D02*
X023901Y005871D01*
X023901Y005990D02*
X023916Y005990D01*
X021391Y004923D02*
X021351Y004923D01*
X021351Y004805D02*
X021391Y004805D01*
X019411Y005871D02*
X019391Y005871D01*
X019117Y005871D02*
X018997Y005871D01*
X018997Y005851D02*
X018997Y006246D01*
X018641Y006246D01*
X018641Y005990D01*
X017471Y005990D01*
X017471Y005871D02*
X018723Y005871D01*
X018740Y005862D02*
X018780Y005851D01*
X018997Y005851D01*
X018997Y005990D02*
X019117Y005990D01*
X019117Y006109D02*
X018997Y006109D01*
X018997Y006227D02*
X019117Y006227D01*
X018997Y006346D02*
X017471Y006346D01*
X017471Y006464D02*
X018641Y006464D01*
X018641Y006583D02*
X017471Y006583D01*
X017471Y006701D02*
X018675Y006701D01*
X018997Y006701D02*
X019117Y006701D01*
X019117Y006583D02*
X018997Y006583D01*
X018997Y006464D02*
X019117Y006464D01*
X018641Y006227D02*
X017471Y006227D01*
X017471Y006109D02*
X018641Y006109D01*
X018641Y005990D02*
X018652Y005949D01*
X018673Y005913D01*
X018703Y005883D01*
X018740Y005862D01*
X020188Y006701D02*
X020564Y006701D01*
X021901Y007650D02*
X021971Y007650D01*
X021971Y007768D02*
X021901Y007768D01*
X021900Y007887D02*
X021901Y007893D01*
X020939Y008361D02*
X020802Y008361D01*
X020560Y008361D02*
X020153Y008361D01*
X020221Y008242D02*
X020393Y008242D01*
X019458Y008361D02*
X019401Y008361D01*
X021009Y008717D02*
X021081Y008717D01*
X021492Y008654D02*
X021492Y008654D01*
X020565Y009191D02*
X020205Y009191D01*
X020221Y009309D02*
X020640Y009309D01*
X020878Y009428D02*
X020221Y009428D01*
X019865Y009428D02*
X019745Y009428D01*
X019745Y009309D02*
X019865Y009309D01*
X019865Y009191D02*
X019745Y009191D01*
X019866Y009546D02*
X020759Y009546D01*
X020641Y009665D02*
X020221Y009665D01*
X020221Y009783D02*
X020522Y009783D01*
X020404Y009902D02*
X020214Y009902D01*
X019865Y009902D02*
X019745Y009902D01*
X019745Y009783D02*
X019865Y009783D01*
X019865Y009665D02*
X019745Y009665D01*
X016771Y011206D02*
X009591Y011206D01*
X009591Y011324D02*
X016609Y011324D01*
X016552Y011443D02*
X009591Y011443D01*
X009591Y011562D02*
X016541Y011562D01*
X016466Y011680D02*
X009591Y011680D01*
X010246Y011917D02*
X010366Y011917D01*
X010366Y012036D02*
X010246Y012036D01*
X010246Y012154D02*
X010366Y012154D01*
X010367Y012273D02*
X011246Y012273D01*
X011246Y012247D02*
X010851Y012247D01*
X010851Y012030D01*
X010862Y011990D01*
X010883Y011953D01*
X010913Y011923D01*
X010949Y011902D01*
X010990Y011891D01*
X011246Y011891D01*
X011246Y012247D01*
X011366Y012247D01*
X011366Y011891D01*
X011623Y011891D01*
X011663Y011902D01*
X011700Y011923D01*
X011730Y011953D01*
X011751Y011990D01*
X011762Y012030D01*
X011762Y012247D01*
X011367Y012247D01*
X011367Y012367D01*
X011762Y012367D01*
X011762Y012584D01*
X011751Y012625D01*
X011730Y012662D01*
X011710Y012681D01*
X011762Y012733D01*
X011762Y013378D01*
X011668Y013471D01*
X011511Y013471D01*
X011511Y013827D01*
X011611Y013868D01*
X011748Y014006D01*
X011823Y014186D01*
X011823Y014381D01*
X011748Y014561D01*
X011611Y014699D01*
X011430Y014774D01*
X011236Y014774D01*
X011055Y014699D01*
X010918Y014561D01*
X010843Y014381D01*
X010843Y014186D01*
X010918Y014006D01*
X011055Y013868D01*
X011091Y013853D01*
X011091Y013471D01*
X010945Y013471D01*
X010851Y013378D01*
X010851Y012733D01*
X010903Y012681D01*
X010883Y012662D01*
X010862Y012625D01*
X010851Y012584D01*
X010851Y012367D01*
X011246Y012367D01*
X011246Y012247D01*
X011246Y012154D02*
X011366Y012154D01*
X011366Y012036D02*
X011246Y012036D01*
X011246Y011917D02*
X011366Y011917D01*
X011689Y011917D02*
X011924Y011917D01*
X011913Y011923D02*
X011949Y011902D01*
X011990Y011891D01*
X012246Y011891D01*
X012246Y012247D01*
X012366Y012247D01*
X012366Y011891D01*
X012623Y011891D01*
X012663Y011902D01*
X012700Y011923D01*
X012730Y011953D01*
X012751Y011990D01*
X012762Y012030D01*
X012762Y012247D01*
X012367Y012247D01*
X012367Y012367D01*
X012762Y012367D01*
X012762Y012584D01*
X012751Y012625D01*
X012730Y012662D01*
X012710Y012681D01*
X012762Y012733D01*
X012762Y013378D01*
X012668Y013471D01*
X012551Y013471D01*
X012551Y013844D01*
X012611Y013868D01*
X012748Y014006D01*
X012823Y014186D01*
X012823Y014381D01*
X012748Y014561D01*
X012611Y014699D01*
X012430Y014774D01*
X012236Y014774D01*
X012055Y014699D01*
X011918Y014561D01*
X011843Y014381D01*
X011843Y014186D01*
X011918Y014006D01*
X012055Y013868D01*
X012131Y013837D01*
X012131Y013471D01*
X011945Y013471D01*
X011851Y013378D01*
X011851Y012733D01*
X011903Y012681D01*
X011883Y012662D01*
X011862Y012625D01*
X011851Y012584D01*
X011851Y012367D01*
X012246Y012367D01*
X012246Y012247D01*
X011851Y012247D01*
X011851Y012030D01*
X011862Y011990D01*
X011883Y011953D01*
X011913Y011923D01*
X011851Y012036D02*
X011762Y012036D01*
X011762Y012154D02*
X011851Y012154D01*
X011851Y012391D02*
X011762Y012391D01*
X011762Y012510D02*
X011851Y012510D01*
X011864Y012628D02*
X011749Y012628D01*
X011762Y012747D02*
X011851Y012747D01*
X011851Y012866D02*
X011762Y012866D01*
X011762Y012984D02*
X011851Y012984D01*
X011851Y013103D02*
X011762Y013103D01*
X011762Y013221D02*
X011851Y013221D01*
X011851Y013340D02*
X011762Y013340D01*
X011681Y013458D02*
X011932Y013458D01*
X012131Y013577D02*
X011511Y013577D01*
X011511Y013695D02*
X012131Y013695D01*
X012131Y013814D02*
X011511Y013814D01*
X011675Y013932D02*
X011991Y013932D01*
X011899Y014051D02*
X011767Y014051D01*
X011816Y014170D02*
X011850Y014170D01*
X011843Y014288D02*
X011823Y014288D01*
X011812Y014407D02*
X011854Y014407D01*
X011903Y014525D02*
X011763Y014525D01*
X011666Y014644D02*
X012000Y014644D01*
X012208Y014762D02*
X011458Y014762D01*
X011208Y014762D02*
X010458Y014762D01*
X010666Y014644D02*
X011000Y014644D01*
X010903Y014525D02*
X010763Y014525D01*
X010812Y014407D02*
X010854Y014407D01*
X010843Y014288D02*
X010823Y014288D01*
X010816Y014170D02*
X010850Y014170D01*
X010899Y014051D02*
X010767Y014051D01*
X010675Y013932D02*
X010991Y013932D01*
X011091Y013814D02*
X010551Y013814D01*
X010551Y013695D02*
X011091Y013695D01*
X011091Y013577D02*
X010551Y013577D01*
X010681Y013458D02*
X010932Y013458D01*
X010851Y013340D02*
X010762Y013340D01*
X010762Y013221D02*
X010851Y013221D01*
X010851Y013103D02*
X010762Y013103D01*
X010762Y012984D02*
X010851Y012984D01*
X010851Y012866D02*
X010762Y012866D01*
X010762Y012747D02*
X010851Y012747D01*
X010864Y012628D02*
X010749Y012628D01*
X010762Y012510D02*
X010851Y012510D01*
X010851Y012391D02*
X010762Y012391D01*
X010762Y012154D02*
X010851Y012154D01*
X010851Y012036D02*
X010762Y012036D01*
X010689Y011917D02*
X010924Y011917D01*
X011367Y012273D02*
X012246Y012273D01*
X012246Y012154D02*
X012366Y012154D01*
X012366Y012036D02*
X012246Y012036D01*
X012246Y011917D02*
X012366Y011917D01*
X012689Y011917D02*
X012924Y011917D01*
X012913Y011923D02*
X012949Y011902D01*
X012990Y011891D01*
X013246Y011891D01*
X013246Y012247D01*
X012851Y012247D01*
X012851Y012030D01*
X012862Y011990D01*
X012883Y011953D01*
X012913Y011923D01*
X012851Y012036D02*
X012762Y012036D01*
X012762Y012154D02*
X012851Y012154D01*
X012851Y012391D02*
X012762Y012391D01*
X012762Y012510D02*
X012851Y012510D01*
X012864Y012628D02*
X012749Y012628D01*
X012762Y012747D02*
X012851Y012747D01*
X012851Y012866D02*
X012762Y012866D01*
X012762Y012984D02*
X012851Y012984D01*
X012851Y013103D02*
X012762Y013103D01*
X012762Y013221D02*
X012851Y013221D01*
X012851Y013340D02*
X012762Y013340D01*
X012681Y013458D02*
X012932Y013458D01*
X013091Y013577D02*
X012551Y013577D01*
X012551Y013695D02*
X013091Y013695D01*
X013091Y013814D02*
X012551Y013814D01*
X012675Y013932D02*
X012991Y013932D01*
X012899Y014051D02*
X012767Y014051D01*
X012816Y014170D02*
X012850Y014170D01*
X012843Y014288D02*
X012823Y014288D01*
X012812Y014407D02*
X012854Y014407D01*
X012903Y014525D02*
X012763Y014525D01*
X012666Y014644D02*
X013000Y014644D01*
X013208Y014762D02*
X012458Y014762D01*
X010208Y014762D02*
X009458Y014762D01*
X009666Y014644D02*
X010000Y014644D01*
X009903Y014525D02*
X009763Y014525D01*
X009812Y014407D02*
X009854Y014407D01*
X009843Y014288D02*
X009823Y014288D01*
X009816Y014170D02*
X009850Y014170D01*
X009899Y014051D02*
X009767Y014051D01*
X009675Y013932D02*
X009991Y013932D01*
X007226Y012747D02*
X007111Y012747D01*
X007111Y012628D02*
X007239Y012628D01*
X007226Y012510D02*
X007111Y012510D01*
X007111Y012391D02*
X007226Y012391D01*
X006691Y012747D02*
X006637Y012747D01*
X009591Y012273D02*
X010246Y012273D01*
X012367Y012273D02*
X013246Y012273D01*
X013246Y012154D02*
X013366Y012154D01*
X013366Y012036D02*
X013246Y012036D01*
X013246Y011917D02*
X013366Y011917D01*
X013367Y012273D02*
X015873Y012273D01*
X018479Y013814D02*
X019193Y013814D01*
X019294Y013814D02*
X019371Y013814D01*
X019371Y013932D02*
X019294Y013932D01*
X019294Y014051D02*
X019371Y014051D01*
X019371Y014170D02*
X019294Y014170D01*
X019294Y014288D02*
X018823Y014288D01*
X018843Y014322D02*
X019294Y014322D01*
X019294Y014774D01*
X019218Y014762D01*
X019145Y014738D01*
X019076Y014703D01*
X019014Y014658D01*
X018959Y014603D01*
X018914Y014541D01*
X018879Y014472D01*
X018855Y014399D01*
X018843Y014322D01*
X018843Y014322D01*
X018843Y014245D02*
X018843Y014245D01*
X018855Y014170D02*
X018816Y014170D01*
X018767Y014051D02*
X018902Y014051D01*
X018991Y013932D02*
X018675Y013932D01*
X019372Y014288D02*
X020338Y014288D01*
X020219Y014407D02*
X019808Y014407D01*
X019760Y014525D02*
X020101Y014525D01*
X019982Y014644D02*
X019666Y014644D01*
X019864Y014762D02*
X019444Y014762D01*
X019371Y014762D02*
X019294Y014762D01*
X019294Y014774D02*
X019294Y014774D01*
X019222Y014762D02*
X018791Y014762D01*
X018791Y014644D02*
X019000Y014644D01*
X018906Y014525D02*
X018791Y014525D01*
X018812Y014407D02*
X018858Y014407D01*
X019294Y014407D02*
X019371Y014407D01*
X019371Y014525D02*
X019294Y014525D01*
X019294Y014644D02*
X019371Y014644D01*
X018371Y014999D02*
X002799Y014999D01*
X002642Y015118D02*
X018371Y015118D01*
X018459Y015236D02*
X000641Y015236D01*
X000641Y015118D02*
X001693Y015118D01*
X001537Y014999D02*
X000641Y014999D01*
X000641Y014881D02*
X001418Y014881D01*
X001335Y014762D02*
X000641Y014762D01*
X000641Y014644D02*
X001286Y014644D01*
X001237Y014525D02*
X000641Y014525D01*
X000641Y014407D02*
X001216Y014407D01*
X001216Y014288D02*
X000641Y014288D01*
X000641Y014170D02*
X001216Y014170D01*
X001233Y014051D02*
X000641Y014051D01*
X000641Y013932D02*
X001283Y013932D01*
X001332Y013814D02*
X000641Y013814D01*
X000641Y013695D02*
X001410Y013695D01*
X001528Y013577D02*
X000641Y013577D01*
X000641Y013458D02*
X001673Y013458D01*
X001959Y013340D02*
X000641Y013340D01*
X004269Y011443D02*
X004346Y011443D01*
X004346Y011324D02*
X004269Y011324D01*
X004269Y011206D02*
X004346Y011206D01*
X004346Y010969D02*
X004269Y010969D01*
X004269Y010850D02*
X004346Y010850D01*
X004346Y010732D02*
X004269Y010732D01*
X004348Y010613D02*
X000641Y010613D01*
X000641Y010495D02*
X004325Y010495D01*
X004325Y010376D02*
X000641Y010376D01*
X000641Y010258D02*
X004325Y010258D01*
X004325Y010139D02*
X000641Y010139D01*
X000641Y010021D02*
X004325Y010021D01*
X004329Y009902D02*
X000641Y009902D01*
X000641Y009783D02*
X005971Y009783D01*
X005981Y009665D02*
X000641Y009665D01*
X000641Y009546D02*
X006016Y009546D01*
X006106Y009428D02*
X000641Y009428D01*
X000641Y008835D02*
X005220Y008835D01*
X005220Y007960D01*
X003701Y006441D01*
X003654Y006489D01*
X003691Y006580D01*
X003691Y006783D01*
X003614Y006970D01*
X003470Y007114D01*
X003283Y007191D01*
X003080Y007191D01*
X002893Y007114D01*
X002749Y006970D01*
X002671Y006783D01*
X002671Y006580D01*
X002749Y006393D01*
X002893Y006249D01*
X003080Y006171D01*
X003283Y006171D01*
X003289Y006174D01*
X003498Y005965D01*
X003565Y005898D01*
X003638Y005868D01*
X003731Y005774D01*
X003731Y004494D01*
X003854Y004371D01*
X004028Y004371D01*
X005226Y004371D01*
X005226Y004233D01*
X005278Y004181D01*
X005226Y004130D01*
X005226Y003485D01*
X005280Y003431D01*
X005226Y003378D01*
X005226Y002733D01*
X005278Y002681D01*
X005258Y002662D01*
X005237Y002625D01*
X005226Y002584D01*
X005226Y002367D01*
X005621Y002367D01*
X005621Y002247D01*
X005741Y002247D01*
X005741Y001891D01*
X005998Y001891D01*
X006038Y001902D01*
X006075Y001923D01*
X006105Y001953D01*
X006126Y001990D01*
X006137Y002030D01*
X006137Y002247D01*
X005742Y002247D01*
X005742Y002367D01*
X006137Y002367D01*
X006137Y002584D01*
X006126Y002625D01*
X006105Y002662D01*
X006085Y002681D01*
X006137Y002733D01*
X006137Y003221D01*
X006219Y003221D01*
X006393Y003221D01*
X006508Y003336D01*
X006631Y003459D01*
X006631Y004611D01*
X006931Y004611D01*
X006931Y004470D01*
X006836Y004375D01*
X006781Y004243D01*
X006781Y004100D01*
X006836Y003967D01*
X006931Y003872D01*
X006931Y003471D01*
X006820Y003471D01*
X006726Y003378D01*
X006726Y002733D01*
X006778Y002681D01*
X006726Y002630D01*
X006726Y001985D01*
X006820Y001891D01*
X007294Y001891D01*
X007731Y001454D01*
X007854Y001331D01*
X009147Y001331D01*
X009227Y001251D01*
X009360Y001196D01*
X009503Y001196D01*
X009635Y001251D01*
X009737Y001352D01*
X009791Y001485D01*
X009791Y001628D01*
X009737Y001760D01*
X009671Y001826D01*
X009671Y002971D01*
X009726Y002971D01*
X009726Y002733D01*
X009778Y002681D01*
X009758Y002662D01*
X009737Y002625D01*
X009726Y002584D01*
X009726Y002367D01*
X010121Y002367D01*
X010121Y002247D01*
X010241Y002247D01*
X010241Y001891D01*
X010498Y001891D01*
X010538Y001902D01*
X010575Y001923D01*
X010605Y001953D01*
X010626Y001990D01*
X010637Y002030D01*
X010637Y002247D01*
X010242Y002247D01*
X010242Y002367D01*
X010637Y002367D01*
X010637Y002584D01*
X010626Y002625D01*
X010605Y002662D01*
X010585Y002681D01*
X010637Y002733D01*
X010637Y003378D01*
X010637Y003264D02*
X011470Y003264D01*
X011470Y003145D02*
X010637Y003145D01*
X010637Y003026D02*
X011470Y003026D01*
X011481Y002908D02*
X010637Y002908D01*
X010637Y002789D02*
X031059Y002789D01*
X030940Y002671D02*
X010595Y002671D01*
X010637Y002552D02*
X030861Y002552D01*
X030812Y002434D02*
X010637Y002434D01*
X010637Y002197D02*
X030743Y002197D01*
X030743Y002078D02*
X010637Y002078D01*
X010608Y001960D02*
X030743Y001960D01*
X030763Y001841D02*
X009671Y001841D01*
X009671Y001960D02*
X009754Y001960D01*
X009758Y001953D02*
X009788Y001923D01*
X009824Y001902D01*
X009865Y001891D01*
X010121Y001891D01*
X010121Y002247D01*
X009726Y002247D01*
X009726Y002030D01*
X009737Y001990D01*
X009758Y001953D01*
X009726Y002078D02*
X009671Y002078D01*
X009671Y002197D02*
X009726Y002197D01*
X009671Y002315D02*
X010121Y002315D01*
X010121Y002197D02*
X010241Y002197D01*
X010242Y002315D02*
X030762Y002315D01*
X031208Y002908D02*
X012882Y002908D01*
X012893Y003026D02*
X031494Y003026D01*
X031896Y003026D02*
X035877Y003026D01*
X034912Y003501D02*
X034440Y003501D01*
X034559Y003619D02*
X034793Y003619D01*
X034743Y003738D02*
X034618Y003738D01*
X034641Y003856D02*
X034721Y003856D01*
X034721Y003975D02*
X034641Y003975D01*
X034641Y004093D02*
X034721Y004093D01*
X034721Y004212D02*
X034222Y004212D01*
X034141Y004212D02*
X027149Y004212D01*
X030812Y001722D02*
X009752Y001722D01*
X009791Y001604D02*
X030861Y001604D01*
X030942Y001485D02*
X009791Y001485D01*
X009743Y001367D02*
X031061Y001367D01*
X031213Y001248D02*
X009628Y001248D01*
X009234Y001248D02*
X002650Y001248D01*
X002707Y001272D02*
X002975Y001540D01*
X003120Y001890D01*
X003120Y002268D01*
X002975Y002618D01*
X002707Y002886D01*
X002357Y003031D01*
X001978Y003031D01*
X001628Y002886D01*
X001360Y002618D01*
X001216Y002268D01*
X001216Y001890D01*
X001360Y001540D01*
X001628Y001272D01*
X001978Y001127D01*
X002357Y001127D01*
X002707Y001272D01*
X002802Y001367D02*
X007819Y001367D01*
X007700Y001485D02*
X002920Y001485D01*
X003001Y001604D02*
X007582Y001604D01*
X007463Y001722D02*
X003050Y001722D01*
X003100Y001841D02*
X007345Y001841D01*
X007702Y002078D02*
X008226Y002078D01*
X008226Y002030D02*
X008237Y001990D01*
X008258Y001953D01*
X008288Y001923D01*
X008324Y001902D01*
X008365Y001891D01*
X008621Y001891D01*
X008621Y002247D01*
X008226Y002247D01*
X008226Y002030D01*
X008254Y001960D02*
X007820Y001960D01*
X007939Y001841D02*
X009207Y001841D01*
X009251Y001960D02*
X009108Y001960D01*
X009137Y002078D02*
X009251Y002078D01*
X009251Y002197D02*
X009137Y002197D01*
X009251Y002315D02*
X008742Y002315D01*
X008741Y002197D02*
X008621Y002197D01*
X008621Y002315D02*
X007637Y002315D01*
X007637Y002197D02*
X008226Y002197D01*
X008226Y002434D02*
X007637Y002434D01*
X007637Y002552D02*
X008226Y002552D01*
X008267Y002671D02*
X007595Y002671D01*
X007637Y002789D02*
X008226Y002789D01*
X008226Y002908D02*
X007637Y002908D01*
X007637Y003026D02*
X008226Y003026D01*
X008226Y003145D02*
X007637Y003145D01*
X007637Y003264D02*
X008226Y003264D01*
X008231Y003382D02*
X007632Y003382D01*
X007351Y003501D02*
X008325Y003501D01*
X008207Y003619D02*
X007351Y003619D01*
X007351Y003738D02*
X008088Y003738D01*
X007970Y003856D02*
X007351Y003856D01*
X007450Y003975D02*
X007851Y003975D01*
X008221Y004212D02*
X008771Y004212D01*
X008653Y004330D02*
X008221Y004330D01*
X008221Y004449D02*
X008583Y004449D01*
X008581Y004568D02*
X008221Y004568D01*
X008221Y004686D02*
X008581Y004686D01*
X008581Y004805D02*
X008221Y004805D01*
X008221Y004923D02*
X008581Y004923D01*
X008581Y005042D02*
X008221Y005042D01*
X008221Y005160D02*
X008603Y005160D01*
X008719Y005279D02*
X008163Y005279D01*
X007825Y005279D02*
X007825Y005279D01*
X007825Y005314D02*
X007825Y005066D01*
X007825Y005066D01*
X007825Y005314D01*
X007825Y005160D02*
X007825Y005160D01*
X007825Y005065D02*
X007429Y005065D01*
X007825Y005065D01*
X007825Y005065D01*
X007429Y005042D02*
X004151Y005042D01*
X004151Y005160D02*
X007429Y005160D01*
X007488Y005279D02*
X006630Y005279D01*
X006632Y005282D02*
X006643Y005323D01*
X006643Y005756D01*
X005992Y005756D01*
X005992Y005876D01*
X006643Y005876D01*
X006643Y006310D01*
X006632Y006350D01*
X006611Y006387D01*
X006581Y006417D01*
X006544Y006438D01*
X006504Y006449D01*
X005991Y006449D01*
X005991Y005876D01*
X005871Y005876D01*
X005871Y005756D01*
X005220Y005756D01*
X005220Y005323D01*
X005231Y005282D01*
X005252Y005246D01*
X005282Y005216D01*
X005318Y005195D01*
X005359Y005184D01*
X005871Y005184D01*
X005871Y005756D01*
X005991Y005756D01*
X005991Y005184D01*
X006504Y005184D01*
X006544Y005195D01*
X006581Y005216D01*
X006611Y005246D01*
X006632Y005282D01*
X006643Y005397D02*
X009701Y005397D01*
X009701Y005516D02*
X006643Y005516D01*
X006643Y005634D02*
X009701Y005634D01*
X009701Y005753D02*
X006643Y005753D01*
X006643Y005990D02*
X009701Y005990D01*
X009701Y005871D02*
X005992Y005871D01*
X005991Y005753D02*
X005871Y005753D01*
X005871Y005871D02*
X004151Y005871D01*
X004151Y005753D02*
X005220Y005753D01*
X005220Y005634D02*
X004151Y005634D01*
X004151Y005516D02*
X005220Y005516D01*
X005220Y005397D02*
X004151Y005397D01*
X004151Y005279D02*
X005233Y005279D01*
X005272Y004923D02*
X004151Y004923D01*
X004151Y004805D02*
X005226Y004805D01*
X006091Y004923D02*
X006226Y004923D01*
X006211Y004805D02*
X006137Y004805D01*
X006137Y004686D02*
X006211Y004686D01*
X006211Y004568D02*
X006137Y004568D01*
X006137Y004449D02*
X006211Y004449D01*
X006211Y004330D02*
X006137Y004330D01*
X006115Y004212D02*
X006211Y004212D01*
X006211Y004093D02*
X006137Y004093D01*
X006137Y003975D02*
X006211Y003975D01*
X006211Y003856D02*
X006137Y003856D01*
X006137Y003738D02*
X006211Y003738D01*
X006631Y003738D02*
X006931Y003738D01*
X006931Y003856D02*
X006631Y003856D01*
X006631Y003975D02*
X006833Y003975D01*
X006784Y004093D02*
X006631Y004093D01*
X006631Y004212D02*
X006781Y004212D01*
X006818Y004330D02*
X006631Y004330D01*
X006631Y004449D02*
X006910Y004449D01*
X006931Y004568D02*
X006631Y004568D01*
X005226Y004330D02*
X003691Y004330D01*
X003691Y004310D02*
X003691Y004633D01*
X003230Y004633D01*
X003230Y004730D01*
X003133Y004730D01*
X003133Y005191D01*
X002810Y005191D01*
X002770Y005180D01*
X002733Y005159D01*
X002703Y005130D01*
X002682Y005093D01*
X002671Y005052D01*
X002671Y004730D01*
X003133Y004730D01*
X003133Y004633D01*
X003230Y004633D01*
X003230Y004171D01*
X003552Y004171D01*
X003593Y004182D01*
X003630Y004203D01*
X003659Y004233D01*
X003680Y004270D01*
X003691Y004310D01*
X003638Y004212D02*
X005247Y004212D01*
X005226Y004093D02*
X000641Y004093D01*
X000641Y003975D02*
X005226Y003975D01*
X005226Y003856D02*
X000641Y003856D01*
X000641Y003738D02*
X005226Y003738D01*
X005226Y003619D02*
X000641Y003619D01*
X000641Y003501D02*
X005226Y003501D01*
X005231Y003382D02*
X000641Y003382D01*
X000641Y003264D02*
X005226Y003264D01*
X005226Y003145D02*
X000641Y003145D01*
X000641Y003026D02*
X001967Y003026D01*
X001681Y002908D02*
X000641Y002908D01*
X000641Y002789D02*
X001531Y002789D01*
X001413Y002671D02*
X000641Y002671D01*
X000641Y002552D02*
X001333Y002552D01*
X001284Y002434D02*
X000641Y002434D01*
X000641Y002315D02*
X001235Y002315D01*
X001216Y002197D02*
X000641Y002197D01*
X000641Y002078D02*
X001216Y002078D01*
X001216Y001960D02*
X000641Y001960D01*
X000641Y001841D02*
X001236Y001841D01*
X001285Y001722D02*
X000641Y001722D01*
X000641Y001604D02*
X001334Y001604D01*
X001415Y001485D02*
X000641Y001485D01*
X000641Y001367D02*
X001533Y001367D01*
X001685Y001248D02*
X000641Y001248D01*
X000641Y001130D02*
X001971Y001130D01*
X002364Y001130D02*
X031499Y001130D01*
X033923Y003501D02*
X012242Y003501D01*
X012241Y003501D02*
X012121Y003501D01*
X010391Y003501D01*
X010391Y003619D02*
X011470Y003619D01*
X011470Y003738D02*
X010397Y003738D01*
X009963Y003501D02*
X008871Y003501D01*
X008801Y003619D02*
X009844Y003619D01*
X009726Y003738D02*
X008682Y003738D01*
X008564Y003856D02*
X009607Y003856D01*
X009489Y003975D02*
X008445Y003975D01*
X008326Y004093D02*
X008890Y004093D01*
X009141Y004521D02*
X009061Y004601D01*
X009061Y004821D01*
X009141Y004821D01*
X009141Y004654D01*
X009141Y004554D01*
X009537Y004554D01*
X009537Y004553D01*
X009141Y004553D01*
X009141Y004521D01*
X009141Y004568D02*
X009095Y004568D01*
X009061Y004686D02*
X009141Y004686D01*
X009141Y004805D02*
X009061Y004805D01*
X011481Y003975D02*
X011470Y003935D01*
X012121Y003975D02*
X012241Y003975D01*
X012241Y004074D02*
X012241Y003501D01*
X012241Y003738D02*
X012121Y003738D01*
X012121Y003856D02*
X012241Y003856D01*
X012241Y004074D02*
X012754Y004074D01*
X012794Y004063D01*
X012831Y004042D01*
X012861Y004012D01*
X012882Y003975D01*
X012241Y003145D02*
X012121Y003145D01*
X012121Y003026D02*
X012241Y003026D01*
X012241Y002908D02*
X012121Y002908D01*
X010241Y002078D02*
X010121Y002078D01*
X010121Y001960D02*
X010241Y001960D01*
X009726Y002434D02*
X009671Y002434D01*
X009671Y002552D02*
X009726Y002552D01*
X009767Y002671D02*
X009671Y002671D01*
X009671Y002789D02*
X009726Y002789D01*
X009726Y002908D02*
X009671Y002908D01*
X009251Y002908D02*
X009137Y002908D01*
X009137Y003026D02*
X009251Y003026D01*
X009251Y003145D02*
X009137Y003145D01*
X009137Y003264D02*
X009342Y003264D01*
X009460Y003382D02*
X009132Y003382D01*
X009137Y002789D02*
X009251Y002789D01*
X009251Y002671D02*
X009095Y002671D01*
X009137Y002552D02*
X009251Y002552D01*
X009251Y002434D02*
X009137Y002434D01*
X008741Y002078D02*
X008621Y002078D01*
X008621Y001960D02*
X008741Y001960D01*
X006752Y001960D02*
X006108Y001960D01*
X006137Y002078D02*
X006726Y002078D01*
X006726Y002197D02*
X006137Y002197D01*
X006137Y002434D02*
X006726Y002434D01*
X006726Y002552D02*
X006137Y002552D01*
X006095Y002671D02*
X006767Y002671D01*
X006726Y002789D02*
X006137Y002789D01*
X006137Y002908D02*
X006726Y002908D01*
X006726Y003026D02*
X006137Y003026D01*
X006137Y003145D02*
X006726Y003145D01*
X006726Y003264D02*
X006436Y003264D01*
X006554Y003382D02*
X006731Y003382D01*
X006631Y003501D02*
X006931Y003501D01*
X006931Y003619D02*
X006631Y003619D01*
X005226Y003026D02*
X002368Y003026D01*
X002655Y002908D02*
X005226Y002908D01*
X005226Y002789D02*
X002804Y002789D01*
X002922Y002671D02*
X005267Y002671D01*
X005226Y002552D02*
X003002Y002552D01*
X003051Y002434D02*
X005226Y002434D01*
X005226Y002247D02*
X005226Y002030D01*
X005237Y001990D01*
X005258Y001953D01*
X005288Y001923D01*
X005324Y001902D01*
X005365Y001891D01*
X005621Y001891D01*
X005621Y002247D01*
X005226Y002247D01*
X005226Y002197D02*
X003120Y002197D01*
X003120Y002078D02*
X005226Y002078D01*
X005254Y001960D02*
X003120Y001960D01*
X003100Y002315D02*
X005621Y002315D01*
X005621Y002197D02*
X005741Y002197D01*
X005742Y002315D02*
X006726Y002315D01*
X005741Y002078D02*
X005621Y002078D01*
X005621Y001960D02*
X005741Y001960D01*
X003230Y004212D02*
X003133Y004212D01*
X003133Y004171D02*
X003133Y004633D01*
X002671Y004633D01*
X002671Y004310D01*
X002682Y004270D01*
X002703Y004233D01*
X002733Y004203D01*
X002770Y004182D01*
X002810Y004171D01*
X003133Y004171D01*
X003133Y004330D02*
X003230Y004330D01*
X003230Y004449D02*
X003133Y004449D01*
X003133Y004568D02*
X003230Y004568D01*
X003230Y004686D02*
X003731Y004686D01*
X003691Y004730D02*
X003691Y005052D01*
X003680Y005093D01*
X003659Y005130D01*
X003630Y005159D01*
X003593Y005180D01*
X003552Y005191D01*
X003230Y005191D01*
X003230Y004730D01*
X003691Y004730D01*
X003691Y004805D02*
X003731Y004805D01*
X003731Y004923D02*
X003691Y004923D01*
X003691Y005042D02*
X003731Y005042D01*
X003731Y005160D02*
X003628Y005160D01*
X003731Y005279D02*
X000641Y005279D01*
X000641Y005397D02*
X003731Y005397D01*
X003731Y005516D02*
X000641Y005516D01*
X000641Y005634D02*
X003731Y005634D01*
X003731Y005753D02*
X000641Y005753D01*
X000641Y005871D02*
X003629Y005871D01*
X003498Y005965D02*
X003498Y005965D01*
X003473Y005990D02*
X000641Y005990D01*
X000641Y006109D02*
X003355Y006109D01*
X002945Y006227D02*
X000641Y006227D01*
X000641Y006346D02*
X002796Y006346D01*
X002719Y006464D02*
X000641Y006464D01*
X000641Y006583D02*
X002671Y006583D01*
X002671Y006701D02*
X000641Y006701D01*
X000641Y006820D02*
X002687Y006820D01*
X002736Y006938D02*
X000641Y006938D01*
X000641Y007057D02*
X002836Y007057D01*
X003042Y007175D02*
X000641Y007175D01*
X000641Y007294D02*
X004555Y007294D01*
X004673Y007413D02*
X000641Y007413D01*
X000641Y007531D02*
X004792Y007531D01*
X004910Y007650D02*
X000641Y007650D01*
X000641Y007768D02*
X005029Y007768D01*
X005147Y007887D02*
X000641Y007887D01*
X000641Y008005D02*
X005220Y008005D01*
X005220Y008124D02*
X000641Y008124D01*
X000641Y008242D02*
X005220Y008242D01*
X005220Y008361D02*
X000641Y008361D01*
X000641Y008479D02*
X005220Y008479D01*
X005220Y008598D02*
X000641Y008598D01*
X000641Y008717D02*
X005220Y008717D01*
X005220Y008835D02*
X005314Y008929D01*
X006549Y008929D01*
X006643Y008835D01*
X006643Y008717D02*
X007923Y008717D01*
X007840Y008598D02*
X006643Y008598D01*
X006643Y008005D02*
X007840Y008005D01*
X007840Y007887D02*
X006643Y007887D01*
X006643Y007768D02*
X007840Y007768D01*
X007840Y007650D02*
X005589Y007650D01*
X005470Y007531D02*
X007840Y007531D01*
X007840Y007413D02*
X005352Y007413D01*
X005233Y007294D02*
X007840Y007294D01*
X007840Y007175D02*
X005115Y007175D01*
X004996Y007057D02*
X007840Y007057D01*
X007840Y006938D02*
X004878Y006938D01*
X004759Y006820D02*
X007840Y006820D01*
X007868Y006701D02*
X004641Y006701D01*
X004522Y006583D02*
X009701Y006583D01*
X009701Y006464D02*
X004404Y006464D01*
X004285Y006346D02*
X005230Y006346D01*
X005231Y006350D02*
X005220Y006310D01*
X005220Y005876D01*
X005871Y005876D01*
X005871Y006449D01*
X005359Y006449D01*
X005318Y006438D01*
X005282Y006417D01*
X005252Y006387D01*
X005231Y006350D01*
X005220Y006227D02*
X004166Y006227D01*
X004048Y006109D02*
X005220Y006109D01*
X005220Y005990D02*
X004110Y005990D01*
X003725Y006464D02*
X003678Y006464D01*
X003691Y006583D02*
X003843Y006583D01*
X003962Y006701D02*
X003691Y006701D01*
X003676Y006820D02*
X004080Y006820D01*
X004199Y006938D02*
X003627Y006938D01*
X003527Y007057D02*
X004318Y007057D01*
X004436Y007175D02*
X003321Y007175D01*
X005871Y006346D02*
X005991Y006346D01*
X005991Y006227D02*
X005871Y006227D01*
X005871Y006109D02*
X005991Y006109D01*
X005991Y005990D02*
X005871Y005990D01*
X006643Y006109D02*
X009701Y006109D01*
X009701Y006227D02*
X006643Y006227D01*
X006633Y006346D02*
X009701Y006346D01*
X009443Y006701D02*
X008920Y006701D01*
X008948Y006820D02*
X009415Y006820D01*
X009415Y006938D02*
X008948Y006938D01*
X008948Y007057D02*
X009415Y007057D01*
X009415Y007175D02*
X008948Y007175D01*
X008948Y007294D02*
X009415Y007294D01*
X009415Y007413D02*
X008948Y007413D01*
X008948Y007531D02*
X009415Y007531D01*
X009415Y007650D02*
X008948Y007650D01*
X008948Y007768D02*
X009415Y007768D01*
X009415Y007887D02*
X008948Y007887D01*
X008948Y008005D02*
X009415Y008005D01*
X009415Y008124D02*
X008948Y008124D01*
X008948Y008242D02*
X009415Y008242D01*
X009415Y008361D02*
X008948Y008361D01*
X008948Y008479D02*
X009415Y008479D01*
X009415Y008598D02*
X008948Y008598D01*
X008865Y008717D02*
X009498Y008717D01*
X011193Y009546D02*
X011891Y009546D01*
X011891Y009428D02*
X011312Y009428D01*
X011431Y009309D02*
X011891Y009309D01*
X011802Y009191D02*
X011549Y009191D01*
X011668Y009072D02*
X011749Y009072D01*
X011891Y009665D02*
X011075Y009665D01*
X010956Y009783D02*
X011830Y009783D01*
X011761Y009902D02*
X010838Y009902D01*
X010719Y010021D02*
X011741Y010021D01*
X011761Y010139D02*
X010601Y010139D01*
X010482Y010258D02*
X011829Y010258D01*
X012017Y010376D02*
X010364Y010376D01*
X005809Y009902D02*
X005294Y009902D01*
X005148Y009902D02*
X005034Y009902D01*
X005490Y010021D02*
X005726Y010021D01*
X005726Y010139D02*
X005560Y010139D01*
X005581Y010258D02*
X005726Y010258D01*
X005726Y010376D02*
X005564Y010376D01*
X005497Y010495D02*
X005726Y010495D01*
X004699Y011206D02*
X004664Y011206D01*
X004664Y011324D02*
X004699Y011324D01*
X004699Y011443D02*
X004656Y011443D01*
X003951Y010850D02*
X000641Y010850D01*
X000641Y010732D02*
X003991Y010732D01*
X014038Y006701D02*
X016391Y006701D01*
X016391Y006583D02*
X014157Y006583D01*
X014276Y006464D02*
X016391Y006464D01*
X016391Y006346D02*
X014394Y006346D01*
X014513Y006227D02*
X016391Y006227D01*
X016391Y006109D02*
X014631Y006109D01*
X014750Y005990D02*
X016391Y005990D01*
X016391Y005871D02*
X014868Y005871D01*
X014987Y005753D02*
X016391Y005753D01*
X016391Y005634D02*
X015105Y005634D01*
X015224Y005516D02*
X016391Y005516D01*
X016391Y005397D02*
X015342Y005397D01*
X015461Y005279D02*
X016391Y005279D01*
X016391Y005160D02*
X015579Y005160D01*
X015698Y005042D02*
X016391Y005042D01*
X024872Y008339D02*
X024872Y008339D01*
X025281Y008339D01*
X024872Y008339D01*
X025281Y008361D02*
X025590Y008361D01*
X025423Y008242D02*
X025281Y008242D01*
X034141Y004805D02*
X034221Y004805D01*
X034221Y004686D02*
X034141Y004686D01*
X034141Y004568D02*
X034221Y004568D01*
X034221Y004449D02*
X034141Y004449D01*
X034141Y004330D02*
X034221Y004330D01*
X034221Y004093D02*
X034141Y004093D01*
X034141Y003975D02*
X034221Y003975D01*
X034221Y003856D02*
X034141Y003856D01*
X034141Y003738D02*
X034221Y003738D01*
X034221Y003619D02*
X034141Y003619D01*
X034141Y003501D02*
X034221Y003501D01*
X034641Y004330D02*
X034721Y004330D01*
X034721Y004449D02*
X034641Y004449D01*
X034634Y004568D02*
X034721Y004568D01*
X034768Y004686D02*
X034593Y004686D01*
X034509Y004805D02*
X034854Y004805D01*
X025251Y012036D02*
X025173Y012036D01*
X025173Y012154D02*
X025251Y012154D01*
X025251Y012273D02*
X025173Y012273D01*
X025147Y012391D02*
X025251Y012391D01*
X025251Y012510D02*
X025173Y012510D01*
X025173Y012628D02*
X025251Y012628D01*
X025251Y012747D02*
X025173Y012747D01*
X005991Y005634D02*
X005871Y005634D01*
X005871Y005516D02*
X005991Y005516D01*
X005991Y005397D02*
X005871Y005397D01*
X005871Y005279D02*
X005991Y005279D01*
X003777Y004449D02*
X003691Y004449D01*
X003691Y004568D02*
X003731Y004568D01*
X003133Y004686D02*
X000641Y004686D01*
X000641Y004568D02*
X002671Y004568D01*
X002671Y004449D02*
X000641Y004449D01*
X000641Y004330D02*
X002671Y004330D01*
X002725Y004212D02*
X000641Y004212D01*
X000641Y004805D02*
X002671Y004805D01*
X002671Y004923D02*
X000641Y004923D01*
X000641Y005042D02*
X002671Y005042D01*
X002735Y005160D02*
X000641Y005160D01*
X003133Y005160D02*
X003230Y005160D01*
X003230Y005042D02*
X003133Y005042D01*
X003133Y004923D02*
X003230Y004923D01*
X003230Y004805D02*
X003133Y004805D01*
M02*
