G75*
G70*
%OFA0B0*%
%FSLAX24Y24*%
%IPPOS*%
%LPD*%
%AMOC8*
5,1,8,0,0,1.08239X$1,22.5*
%
%ADD10C,0.0660*%
%ADD11OC8,0.0600*%
%ADD12C,0.0600*%
%ADD13R,0.0700X0.0700*%
%ADD14C,0.0700*%
%ADD15C,0.0400*%
%ADD16C,0.0160*%
%ADD17C,0.0100*%
D10*
X004333Y014284D03*
X005333Y014284D03*
X006333Y014284D03*
X007333Y014284D03*
X008333Y014284D03*
X009333Y014284D03*
X010333Y014284D03*
X011333Y014284D03*
X012333Y014284D03*
X013333Y014284D03*
X014333Y014284D03*
X015333Y014284D03*
X016333Y014284D03*
X017333Y014284D03*
X018333Y014284D03*
X019333Y014284D03*
D11*
X038181Y005181D03*
X039181Y005181D03*
X040181Y005181D03*
X040181Y004181D03*
X039181Y004181D03*
X038181Y004181D03*
D12*
X036181Y004481D02*
X036181Y003881D01*
X035181Y003881D02*
X035181Y004481D01*
X034181Y004481D02*
X034181Y003881D01*
D13*
X003181Y004681D03*
D14*
X003181Y006681D03*
D15*
X007141Y004171D03*
X009431Y001556D03*
X016101Y004341D03*
X021141Y003941D03*
X023941Y005301D03*
X024421Y005301D03*
X023541Y005941D03*
X022421Y005941D03*
X022021Y005541D03*
X024741Y006421D03*
X025781Y006741D03*
X026581Y006341D03*
X026261Y005941D03*
X026501Y005301D03*
X025221Y004501D03*
X022821Y007061D03*
X022821Y007541D03*
X023301Y007621D03*
X024341Y007461D03*
X025711Y008021D03*
X027861Y007141D03*
X022671Y008706D03*
X022901Y009301D03*
X020901Y009061D03*
X020681Y008021D03*
X025541Y009701D03*
X024661Y010261D03*
X023941Y010421D03*
X025061Y010661D03*
X023141Y011141D03*
X022821Y010421D03*
X019436Y011966D03*
X021306Y012681D03*
X021221Y013541D03*
X023861Y012741D03*
X029621Y012821D03*
X023041Y015071D03*
X016901Y011541D03*
X012101Y010021D03*
X010101Y009301D03*
X009621Y009301D03*
X012101Y008981D03*
X014556Y008306D03*
X013931Y007681D03*
X013061Y006821D03*
X006341Y009701D03*
X005221Y010261D03*
X034021Y006661D03*
X037861Y006901D03*
X039221Y006741D03*
X038181Y009221D03*
X036421Y009461D03*
X034821Y009941D03*
X038101Y013461D03*
X036101Y002741D03*
D16*
X000661Y000661D02*
X000661Y015701D01*
X041201Y015701D01*
X041201Y000661D01*
X000661Y000661D01*
X000661Y000816D02*
X041201Y000816D01*
X041201Y000974D02*
X000661Y000974D01*
X000661Y001133D02*
X001912Y001133D01*
X001974Y001107D02*
X002361Y001107D01*
X002718Y001255D01*
X002992Y001528D01*
X003140Y001886D01*
X003140Y002272D01*
X002992Y002630D01*
X002718Y002903D01*
X002361Y003051D01*
X001974Y003051D01*
X001617Y002903D01*
X001344Y002630D01*
X001196Y002272D01*
X001196Y001886D01*
X001344Y001528D01*
X001617Y001255D01*
X001974Y001107D01*
X001581Y001291D02*
X000661Y001291D01*
X000661Y001450D02*
X001422Y001450D01*
X001310Y001608D02*
X000661Y001608D01*
X000661Y001767D02*
X001245Y001767D01*
X001196Y001925D02*
X000661Y001925D01*
X000661Y002084D02*
X001196Y002084D01*
X001196Y002242D02*
X000661Y002242D01*
X000661Y002401D02*
X001249Y002401D01*
X001314Y002560D02*
X000661Y002560D01*
X000661Y002718D02*
X001432Y002718D01*
X001590Y002877D02*
X000661Y002877D01*
X000661Y003035D02*
X001936Y003035D01*
X002399Y003035D02*
X005731Y003035D01*
X005731Y002974D02*
X005854Y002851D01*
X031093Y002851D01*
X030871Y002630D01*
X030723Y002272D01*
X030723Y001886D01*
X030871Y001528D01*
X031145Y001255D01*
X031502Y001107D01*
X031889Y001107D01*
X032246Y001255D01*
X032519Y001528D01*
X032667Y001886D01*
X032667Y002272D01*
X032519Y002630D01*
X032298Y002851D01*
X032974Y002851D01*
X033171Y002654D01*
X033294Y002531D01*
X035802Y002531D01*
X035897Y002436D01*
X036030Y002381D01*
X036173Y002381D01*
X036305Y002436D01*
X036407Y002537D01*
X036461Y002670D01*
X036461Y002813D01*
X036412Y002931D01*
X040748Y002931D01*
X040871Y003054D01*
X040871Y003228D01*
X040871Y005468D01*
X040748Y005591D01*
X040508Y005831D01*
X040428Y005831D01*
X039581Y006678D01*
X039581Y006813D01*
X039527Y006945D01*
X039425Y007047D01*
X039293Y007101D01*
X039150Y007101D01*
X039017Y007047D01*
X038916Y006945D01*
X038861Y006813D01*
X038861Y006670D01*
X038916Y006537D01*
X038982Y006471D01*
X034332Y006471D01*
X034381Y006590D01*
X034381Y006733D01*
X034327Y006865D01*
X034225Y006967D01*
X034093Y007021D01*
X033950Y007021D01*
X033817Y006967D01*
X033802Y006951D01*
X028172Y006951D01*
X028221Y007070D01*
X028221Y007213D01*
X028167Y007345D01*
X028065Y007447D01*
X027933Y007501D01*
X027790Y007501D01*
X027657Y007447D01*
X027562Y007351D01*
X026678Y007351D01*
X026071Y007958D01*
X026071Y008093D01*
X026022Y008211D01*
X036254Y008211D01*
X037501Y006964D01*
X037501Y006830D01*
X037556Y006697D01*
X037657Y006596D01*
X037790Y006541D01*
X037933Y006541D01*
X038065Y006596D01*
X038167Y006697D01*
X038221Y006830D01*
X038221Y006973D01*
X038167Y007105D01*
X038065Y007207D01*
X037933Y007261D01*
X037798Y007261D01*
X036551Y008508D01*
X036428Y008631D01*
X023030Y008631D01*
X023031Y008635D01*
X023031Y008778D01*
X022977Y008910D01*
X022945Y008941D01*
X022973Y008941D01*
X023105Y008996D01*
X023201Y009091D01*
X036348Y009091D01*
X036358Y009101D01*
X036493Y009101D01*
X036625Y009156D01*
X036727Y009257D01*
X036781Y009390D01*
X036781Y009533D01*
X036732Y009651D01*
X037454Y009651D01*
X037821Y009284D01*
X037821Y009150D01*
X037876Y009017D01*
X037977Y008916D01*
X038110Y008861D01*
X038253Y008861D01*
X038385Y008916D01*
X038487Y009017D01*
X038541Y009150D01*
X038541Y009293D01*
X038487Y009425D01*
X038385Y009527D01*
X038253Y009581D01*
X038118Y009581D01*
X037751Y009948D01*
X037628Y010071D01*
X035308Y010071D01*
X035157Y010071D01*
X035127Y010145D01*
X035025Y010247D01*
X034893Y010301D01*
X034758Y010301D01*
X032551Y012508D01*
X032551Y012508D01*
X032448Y012611D01*
X033208Y012611D01*
X033331Y012734D01*
X034168Y013571D01*
X036724Y013571D01*
X036574Y013422D01*
X036465Y013159D01*
X036465Y012874D01*
X036574Y012610D01*
X036776Y012409D01*
X037039Y012300D01*
X037324Y012300D01*
X037587Y012409D01*
X037789Y012610D01*
X037898Y012874D01*
X037898Y013156D01*
X038030Y013101D01*
X038173Y013101D01*
X038305Y013156D01*
X038407Y013257D01*
X038461Y013390D01*
X038461Y013533D01*
X038407Y013665D01*
X038305Y013767D01*
X038173Y013821D01*
X038038Y013821D01*
X037991Y013868D01*
X037868Y013991D01*
X037595Y013991D01*
X037789Y014185D01*
X037898Y014448D01*
X037898Y014733D01*
X037789Y014997D01*
X037587Y015198D01*
X037324Y015307D01*
X037039Y015307D01*
X036776Y015198D01*
X036574Y014997D01*
X036465Y014733D01*
X036465Y014448D01*
X036574Y014185D01*
X036768Y013991D01*
X033994Y013991D01*
X033871Y013868D01*
X033034Y013031D01*
X029921Y013031D01*
X029825Y013127D01*
X029693Y013181D01*
X029550Y013181D01*
X029417Y013127D01*
X029316Y013025D01*
X029261Y012893D01*
X029261Y012750D01*
X029311Y012631D01*
X025788Y012631D01*
X024791Y013628D01*
X024668Y013751D01*
X021521Y013751D01*
X021425Y013847D01*
X021293Y013901D01*
X021150Y013901D01*
X021017Y013847D01*
X020916Y013745D01*
X020861Y013613D01*
X020861Y013470D01*
X020911Y013351D01*
X017548Y013351D01*
X016791Y014109D01*
X016823Y014186D01*
X016823Y014381D01*
X016748Y014561D01*
X016611Y014699D01*
X016430Y014774D01*
X016236Y014774D01*
X016055Y014699D01*
X015918Y014561D01*
X015843Y014381D01*
X015843Y014186D01*
X015918Y014006D01*
X016055Y013868D01*
X016236Y013794D01*
X016430Y013794D01*
X016488Y013818D01*
X017374Y012931D01*
X017548Y012931D01*
X024451Y012931D01*
X024451Y010561D01*
X024356Y010465D01*
X024301Y010333D01*
X024301Y010190D01*
X024350Y010071D01*
X024108Y010071D01*
X024087Y010092D01*
X024145Y010116D01*
X024247Y010217D01*
X024301Y010350D01*
X024301Y010493D01*
X024247Y010625D01*
X024151Y010721D01*
X024151Y011754D01*
X024151Y011928D01*
X024028Y012051D01*
X019791Y012051D01*
X019742Y012170D01*
X019640Y012272D01*
X019508Y012326D01*
X019365Y012326D01*
X019232Y012272D01*
X019131Y012170D01*
X019076Y012038D01*
X019076Y011895D01*
X019131Y011762D01*
X019142Y011751D01*
X017201Y011751D01*
X017105Y011847D01*
X016973Y011901D01*
X016830Y011901D01*
X016697Y011847D01*
X016596Y011745D01*
X016541Y011613D01*
X016541Y011470D01*
X016596Y011337D01*
X016697Y011236D01*
X016830Y011181D01*
X016973Y011181D01*
X017105Y011236D01*
X017201Y011331D01*
X022830Y011331D01*
X022781Y011213D01*
X022781Y011070D01*
X022836Y010937D01*
X022937Y010836D01*
X023011Y010806D01*
X023011Y010732D01*
X022893Y010781D01*
X022750Y010781D01*
X022617Y010727D01*
X022516Y010625D01*
X022461Y010493D01*
X022461Y010358D01*
X021934Y009831D01*
X010668Y009831D01*
X010311Y010188D01*
X010188Y010311D01*
X006348Y010311D01*
X006174Y010311D01*
X005854Y009991D01*
X005731Y009868D01*
X005731Y003148D01*
X005731Y002974D01*
X005829Y002877D02*
X002745Y002877D01*
X002903Y002718D02*
X030960Y002718D01*
X030842Y002560D02*
X003021Y002560D01*
X003086Y002401D02*
X030776Y002401D01*
X030723Y002242D02*
X003140Y002242D01*
X003140Y002084D02*
X030723Y002084D01*
X030723Y001925D02*
X003140Y001925D01*
X003090Y001767D02*
X030772Y001767D01*
X030838Y001608D02*
X003025Y001608D01*
X002913Y001450D02*
X030950Y001450D01*
X031108Y001291D02*
X002755Y001291D01*
X002423Y001133D02*
X031440Y001133D01*
X031951Y001133D02*
X041201Y001133D01*
X041201Y001291D02*
X032282Y001291D01*
X032441Y001450D02*
X041201Y001450D01*
X041201Y001608D02*
X032552Y001608D01*
X032618Y001767D02*
X041201Y001767D01*
X041201Y001925D02*
X032667Y001925D01*
X032667Y002084D02*
X041201Y002084D01*
X041201Y002242D02*
X032667Y002242D01*
X032614Y002401D02*
X035982Y002401D01*
X036220Y002401D02*
X041201Y002401D01*
X041201Y002560D02*
X036416Y002560D01*
X036461Y002718D02*
X041201Y002718D01*
X041201Y002877D02*
X036435Y002877D01*
X036542Y003591D02*
X036571Y003621D01*
X036641Y003790D01*
X036641Y004573D01*
X036571Y004742D01*
X036442Y004871D01*
X036273Y004941D01*
X036090Y004941D01*
X035921Y004871D01*
X035791Y004742D01*
X035721Y004573D01*
X035721Y003790D01*
X035791Y003621D01*
X035821Y003591D01*
X035542Y003591D01*
X035571Y003621D01*
X035641Y003790D01*
X035641Y004573D01*
X035571Y004742D01*
X035442Y004871D01*
X035273Y004941D01*
X035090Y004941D01*
X034921Y004871D01*
X034835Y004785D01*
X034428Y005191D01*
X034254Y005191D01*
X026748Y005191D01*
X026574Y005191D01*
X026494Y005111D01*
X024428Y005111D01*
X024301Y005238D01*
X024301Y005373D01*
X024247Y005505D01*
X024151Y005600D01*
X024151Y006108D01*
X024028Y006231D01*
X023708Y006551D01*
X023534Y006551D01*
X023511Y006551D01*
X023511Y007322D01*
X023607Y007417D01*
X023661Y007550D01*
X023661Y007693D01*
X023607Y007825D01*
X023505Y007927D01*
X023373Y007981D01*
X023230Y007981D01*
X023097Y007927D01*
X023020Y007849D01*
X022893Y007901D01*
X022750Y007901D01*
X022617Y007847D01*
X022522Y007751D01*
X014793Y007751D01*
X013133Y009411D01*
X020806Y009411D01*
X020697Y009367D01*
X020596Y009265D01*
X020541Y009133D01*
X020541Y008990D01*
X020596Y008857D01*
X020697Y008756D01*
X020830Y008701D01*
X020964Y008701D01*
X021534Y008131D01*
X021708Y008131D01*
X022908Y008131D01*
X022988Y008211D01*
X025400Y008211D01*
X025351Y008093D01*
X025351Y007950D01*
X023449Y007950D01*
X023621Y007791D02*
X025432Y007791D01*
X025406Y007817D02*
X025507Y007716D01*
X025640Y007661D01*
X025774Y007661D01*
X026381Y007054D01*
X026484Y006951D01*
X026081Y006951D01*
X025985Y007047D01*
X025853Y007101D01*
X025710Y007101D01*
X025577Y007047D01*
X025476Y006945D01*
X025421Y006813D01*
X025421Y006670D01*
X025437Y006631D01*
X025041Y006631D01*
X024945Y006727D01*
X024813Y006781D01*
X024670Y006781D01*
X024537Y006727D01*
X024436Y006625D01*
X024381Y006493D01*
X024381Y006350D01*
X024436Y006217D01*
X024537Y006116D01*
X024670Y006061D01*
X024813Y006061D01*
X024945Y006116D01*
X025041Y006211D01*
X025534Y006211D01*
X025614Y006131D01*
X025951Y006131D01*
X025901Y006013D01*
X025901Y005870D01*
X025956Y005737D01*
X026057Y005636D01*
X026190Y005581D01*
X026333Y005581D01*
X026465Y005636D01*
X026561Y005731D01*
X038334Y005731D01*
X038721Y005344D01*
X038721Y004991D01*
X038991Y004721D01*
X039372Y004721D01*
X039641Y004991D01*
X039641Y005372D01*
X039372Y005641D01*
X039018Y005641D01*
X038608Y006051D01*
X039054Y006051D01*
X039728Y005378D01*
X039721Y005372D01*
X039721Y004991D01*
X039991Y004721D01*
X040372Y004721D01*
X040451Y004801D01*
X040451Y004590D01*
X040380Y004661D01*
X040201Y004661D01*
X040201Y004202D01*
X040161Y004202D01*
X040161Y004661D01*
X039983Y004661D01*
X039701Y004380D01*
X039701Y004201D01*
X040161Y004201D01*
X040161Y004161D01*
X040201Y004161D01*
X040201Y003701D01*
X040380Y003701D01*
X040451Y003773D01*
X040451Y003351D01*
X038608Y003351D01*
X038985Y003728D01*
X038991Y003721D01*
X039372Y003721D01*
X039641Y003991D01*
X039641Y004372D01*
X039372Y004641D01*
X038991Y004641D01*
X038721Y004372D01*
X038721Y004058D01*
X038254Y003591D01*
X036542Y003591D01*
X036591Y003669D02*
X038332Y003669D01*
X038372Y003721D02*
X038641Y003991D01*
X038641Y004372D01*
X038372Y004641D01*
X037991Y004641D01*
X037721Y004372D01*
X037721Y003991D01*
X037991Y003721D01*
X038372Y003721D01*
X038478Y003828D02*
X038491Y003828D01*
X038637Y003986D02*
X038650Y003986D01*
X038641Y004145D02*
X038721Y004145D01*
X038721Y004304D02*
X038641Y004304D01*
X038551Y004462D02*
X038812Y004462D01*
X038970Y004621D02*
X038393Y004621D01*
X038372Y004721D02*
X038641Y004991D01*
X038641Y005372D01*
X038372Y005641D01*
X037991Y005641D01*
X037721Y005372D01*
X037721Y004991D01*
X037991Y004721D01*
X038372Y004721D01*
X038430Y004779D02*
X038933Y004779D01*
X038775Y004938D02*
X038588Y004938D01*
X038641Y005096D02*
X038721Y005096D01*
X038721Y005255D02*
X038641Y005255D01*
X038652Y005413D02*
X038600Y005413D01*
X038494Y005572D02*
X038441Y005572D01*
X038335Y005730D02*
X026560Y005730D01*
X025963Y005730D02*
X024151Y005730D01*
X024151Y005889D02*
X025901Y005889D01*
X025916Y006048D02*
X024151Y006048D01*
X024054Y006206D02*
X024448Y006206D01*
X024381Y006365D02*
X023895Y006365D01*
X023737Y006523D02*
X024394Y006523D01*
X024493Y006682D02*
X023511Y006682D01*
X023511Y006840D02*
X025433Y006840D01*
X025421Y006682D02*
X024990Y006682D01*
X025530Y006999D02*
X023511Y006999D01*
X023511Y007157D02*
X026279Y007157D01*
X026437Y006999D02*
X026033Y006999D01*
X026120Y007316D02*
X023511Y007316D01*
X023630Y007474D02*
X025961Y007474D01*
X025803Y007633D02*
X023661Y007633D01*
X023154Y007950D02*
X014595Y007950D01*
X014753Y007791D02*
X022562Y007791D01*
X022522Y007331D02*
X022552Y007301D01*
X022516Y007265D01*
X022461Y007133D01*
X022461Y006990D01*
X022516Y006857D01*
X022611Y006762D01*
X022611Y006252D01*
X022493Y006301D01*
X022350Y006301D01*
X022217Y006247D01*
X022116Y006145D01*
X022061Y006013D01*
X022061Y005901D01*
X021958Y005901D01*
X021351Y006508D01*
X021228Y006631D01*
X013068Y006631D01*
X010528Y009171D01*
X010588Y009171D01*
X012779Y009171D01*
X014619Y007331D01*
X014793Y007331D01*
X022522Y007331D01*
X022538Y007316D02*
X012384Y007316D01*
X012542Y007157D02*
X022471Y007157D01*
X022461Y006999D02*
X012701Y006999D01*
X012860Y006840D02*
X022533Y006840D01*
X022611Y006682D02*
X013018Y006682D01*
X012225Y007474D02*
X014476Y007474D01*
X014318Y007633D02*
X012067Y007633D01*
X011908Y007791D02*
X014159Y007791D01*
X014001Y007950D02*
X011750Y007950D01*
X011591Y008109D02*
X013842Y008109D01*
X013684Y008267D02*
X011433Y008267D01*
X011274Y008426D02*
X013525Y008426D01*
X013367Y008584D02*
X011116Y008584D01*
X010957Y008743D02*
X013208Y008743D01*
X013050Y008901D02*
X010798Y008901D01*
X010640Y009060D02*
X012891Y009060D01*
X013326Y009218D02*
X020577Y009218D01*
X020541Y009060D02*
X013485Y009060D01*
X013643Y008901D02*
X020578Y008901D01*
X020730Y008743D02*
X013802Y008743D01*
X013961Y008584D02*
X021082Y008584D01*
X021240Y008426D02*
X014119Y008426D01*
X014278Y008267D02*
X021399Y008267D01*
X023031Y008743D02*
X041201Y008743D01*
X041201Y008901D02*
X038349Y008901D01*
X038504Y009060D02*
X041201Y009060D01*
X041201Y009218D02*
X038541Y009218D01*
X038507Y009377D02*
X041201Y009377D01*
X041201Y009535D02*
X038364Y009535D01*
X038006Y009694D02*
X041201Y009694D01*
X041201Y009853D02*
X037847Y009853D01*
X037689Y010011D02*
X041201Y010011D01*
X041201Y010170D02*
X035102Y010170D01*
X034732Y010328D02*
X041201Y010328D01*
X041201Y010487D02*
X034573Y010487D01*
X034414Y010645D02*
X041201Y010645D01*
X041201Y010804D02*
X034256Y010804D01*
X034097Y010962D02*
X041201Y010962D01*
X041201Y011121D02*
X033939Y011121D01*
X033780Y011279D02*
X041201Y011279D01*
X041201Y011438D02*
X033622Y011438D01*
X033463Y011597D02*
X041201Y011597D01*
X041201Y011755D02*
X033305Y011755D01*
X033146Y011914D02*
X041201Y011914D01*
X041201Y012072D02*
X032988Y012072D01*
X032829Y012231D02*
X041201Y012231D01*
X041201Y012389D02*
X037540Y012389D01*
X037726Y012548D02*
X041201Y012548D01*
X041201Y012706D02*
X037828Y012706D01*
X037894Y012865D02*
X041201Y012865D01*
X041201Y013023D02*
X037898Y013023D01*
X038331Y013182D02*
X041201Y013182D01*
X041201Y013341D02*
X038441Y013341D01*
X038461Y013499D02*
X041201Y013499D01*
X041201Y013658D02*
X038410Y013658D01*
X038186Y013816D02*
X041201Y013816D01*
X041201Y013975D02*
X037885Y013975D01*
X037737Y014133D02*
X041201Y014133D01*
X041201Y014292D02*
X037833Y014292D01*
X037898Y014450D02*
X041201Y014450D01*
X041201Y014609D02*
X037898Y014609D01*
X037884Y014767D02*
X041201Y014767D01*
X041201Y014926D02*
X037818Y014926D01*
X037701Y015084D02*
X041201Y015084D01*
X041201Y015243D02*
X037478Y015243D01*
X036884Y015243D02*
X031920Y015243D01*
X031889Y015256D02*
X031502Y015256D01*
X031145Y015108D01*
X030871Y014834D01*
X030723Y014477D01*
X030723Y014090D01*
X030871Y013733D01*
X031145Y013460D01*
X031502Y013312D01*
X031889Y013312D01*
X032246Y013460D01*
X032519Y013733D01*
X032667Y014090D01*
X032667Y014477D01*
X032519Y014834D01*
X032246Y015108D01*
X031889Y015256D01*
X032269Y015084D02*
X036662Y015084D01*
X036545Y014926D02*
X032428Y014926D01*
X032547Y014767D02*
X036479Y014767D01*
X036465Y014609D02*
X032613Y014609D01*
X032667Y014450D02*
X036465Y014450D01*
X036530Y014292D02*
X032667Y014292D01*
X032667Y014133D02*
X036626Y014133D01*
X036652Y013499D02*
X034096Y013499D01*
X033937Y013341D02*
X036541Y013341D01*
X036475Y013182D02*
X033779Y013182D01*
X033620Y013023D02*
X036465Y013023D01*
X036469Y012865D02*
X033462Y012865D01*
X033331Y012734D02*
X033331Y012734D01*
X033303Y012706D02*
X036534Y012706D01*
X036637Y012548D02*
X032512Y012548D01*
X032670Y012389D02*
X036823Y012389D01*
X033502Y013499D02*
X032285Y013499D01*
X032444Y013658D02*
X033661Y013658D01*
X033819Y013816D02*
X032554Y013816D01*
X032619Y013975D02*
X033978Y013975D01*
X033871Y013868D02*
X033871Y013868D01*
X033344Y013341D02*
X031958Y013341D01*
X031432Y013341D02*
X025079Y013341D01*
X024921Y013499D02*
X031105Y013499D01*
X030947Y013658D02*
X024762Y013658D01*
X025238Y013182D02*
X033185Y013182D01*
X030837Y013816D02*
X021456Y013816D01*
X020987Y013816D02*
X019484Y013816D01*
X019430Y013794D02*
X019611Y013868D01*
X019748Y014006D01*
X019823Y014186D01*
X019823Y014381D01*
X019748Y014561D01*
X019611Y014699D01*
X019430Y014774D01*
X019236Y014774D01*
X019055Y014699D01*
X018918Y014561D01*
X018843Y014381D01*
X018843Y014186D01*
X018918Y014006D01*
X019055Y013868D01*
X019236Y013794D01*
X019430Y013794D01*
X019181Y013816D02*
X018484Y013816D01*
X018430Y013794D02*
X018611Y013868D01*
X018748Y014006D01*
X018823Y014186D01*
X018823Y014381D01*
X018748Y014561D01*
X018611Y014699D01*
X018430Y014774D01*
X018236Y014774D01*
X018055Y014699D01*
X017918Y014561D01*
X017843Y014381D01*
X017843Y014186D01*
X017918Y014006D01*
X018055Y013868D01*
X018236Y013794D01*
X018430Y013794D01*
X018181Y013816D02*
X017484Y013816D01*
X017430Y013794D02*
X017611Y013868D01*
X017748Y014006D01*
X017823Y014186D01*
X017823Y014381D01*
X017748Y014561D01*
X017611Y014699D01*
X017430Y014774D01*
X017236Y014774D01*
X017055Y014699D01*
X016918Y014561D01*
X016843Y014381D01*
X016843Y014186D01*
X016918Y014006D01*
X017055Y013868D01*
X017236Y013794D01*
X017430Y013794D01*
X017242Y013658D02*
X020880Y013658D01*
X020861Y013499D02*
X017401Y013499D01*
X016965Y013341D02*
X006543Y013341D01*
X006543Y013499D02*
X016807Y013499D01*
X016648Y013658D02*
X006543Y013658D01*
X006543Y013816D02*
X007181Y013816D01*
X007236Y013794D02*
X007430Y013794D01*
X007611Y013868D01*
X007748Y014006D01*
X007823Y014186D01*
X007823Y014381D01*
X007748Y014561D01*
X007611Y014699D01*
X007430Y014774D01*
X007236Y014774D01*
X007055Y014699D01*
X006918Y014561D01*
X006843Y014381D01*
X006843Y014186D01*
X006918Y014006D01*
X007055Y013868D01*
X007236Y013794D01*
X007484Y013816D02*
X008181Y013816D01*
X008236Y013794D02*
X008430Y013794D01*
X008611Y013868D01*
X008748Y014006D01*
X008823Y014186D01*
X008823Y014381D01*
X008748Y014561D01*
X008611Y014699D01*
X008430Y014774D01*
X008236Y014774D01*
X008055Y014699D01*
X007918Y014561D01*
X007843Y014381D01*
X007843Y014186D01*
X007918Y014006D01*
X008055Y013868D01*
X008236Y013794D01*
X008484Y013816D02*
X009181Y013816D01*
X009236Y013794D02*
X009055Y013868D01*
X008918Y014006D01*
X008843Y014186D01*
X008843Y014381D01*
X008918Y014561D01*
X009055Y014699D01*
X009236Y014774D01*
X009430Y014774D01*
X009611Y014699D01*
X009748Y014561D01*
X009823Y014381D01*
X009823Y014186D01*
X009748Y014006D01*
X009611Y013868D01*
X009430Y013794D01*
X009236Y013794D01*
X009484Y013816D02*
X010181Y013816D01*
X010236Y013794D02*
X010430Y013794D01*
X010611Y013868D01*
X010748Y014006D01*
X010823Y014186D01*
X010823Y014381D01*
X010748Y014561D01*
X010611Y014699D01*
X010430Y014774D01*
X010236Y014774D01*
X010055Y014699D01*
X009918Y014561D01*
X009843Y014381D01*
X009843Y014186D01*
X009918Y014006D01*
X010055Y013868D01*
X010236Y013794D01*
X010484Y013816D02*
X011181Y013816D01*
X011236Y013794D02*
X011430Y013794D01*
X011611Y013868D01*
X011748Y014006D01*
X011823Y014186D01*
X011823Y014381D01*
X011748Y014561D01*
X011611Y014699D01*
X011430Y014774D01*
X011236Y014774D01*
X011055Y014699D01*
X010918Y014561D01*
X010843Y014381D01*
X010843Y014186D01*
X010918Y014006D01*
X011055Y013868D01*
X011236Y013794D01*
X011484Y013816D02*
X012181Y013816D01*
X012236Y013794D02*
X012430Y013794D01*
X012611Y013868D01*
X012748Y014006D01*
X012823Y014186D01*
X012823Y014381D01*
X012748Y014561D01*
X012611Y014699D01*
X012430Y014774D01*
X012236Y014774D01*
X012055Y014699D01*
X011918Y014561D01*
X011843Y014381D01*
X011843Y014186D01*
X011918Y014006D01*
X012055Y013868D01*
X012236Y013794D01*
X012484Y013816D02*
X013181Y013816D01*
X013236Y013794D02*
X013430Y013794D01*
X013611Y013868D01*
X013748Y014006D01*
X013823Y014186D01*
X013823Y014381D01*
X013748Y014561D01*
X013611Y014699D01*
X013430Y014774D01*
X013236Y014774D01*
X013055Y014699D01*
X012918Y014561D01*
X012843Y014381D01*
X012843Y014186D01*
X012918Y014006D01*
X013055Y013868D01*
X013236Y013794D01*
X013484Y013816D02*
X014181Y013816D01*
X014236Y013794D02*
X014055Y013868D01*
X013918Y014006D01*
X013843Y014186D01*
X013843Y014381D01*
X013918Y014561D01*
X014055Y014699D01*
X014236Y014774D01*
X014430Y014774D01*
X014611Y014699D01*
X014748Y014561D01*
X014823Y014381D01*
X014823Y014186D01*
X014748Y014006D01*
X014611Y013868D01*
X014430Y013794D01*
X014236Y013794D01*
X014484Y013816D02*
X015181Y013816D01*
X015236Y013794D02*
X015430Y013794D01*
X015611Y013868D01*
X015748Y014006D01*
X015823Y014186D01*
X015823Y014381D01*
X015792Y014455D01*
X016198Y014861D01*
X022742Y014861D01*
X022837Y014766D01*
X022970Y014711D01*
X023113Y014711D01*
X023245Y014766D01*
X023347Y014867D01*
X023401Y015000D01*
X023401Y015143D01*
X023347Y015275D01*
X023245Y015377D01*
X023113Y015431D01*
X022970Y015431D01*
X022837Y015377D01*
X022742Y015281D01*
X016198Y015281D01*
X016024Y015281D01*
X015491Y014748D01*
X015430Y014774D01*
X015236Y014774D01*
X015055Y014699D01*
X014918Y014561D01*
X014843Y014381D01*
X014843Y014186D01*
X014918Y014006D01*
X015055Y013868D01*
X015236Y013794D01*
X015484Y013816D02*
X016181Y013816D01*
X015949Y013975D02*
X015717Y013975D01*
X015801Y014133D02*
X015865Y014133D01*
X015843Y014292D02*
X015823Y014292D01*
X015794Y014450D02*
X015872Y014450D01*
X015946Y014609D02*
X015965Y014609D01*
X016104Y014767D02*
X016220Y014767D01*
X016446Y014767D02*
X017220Y014767D01*
X017446Y014767D02*
X018220Y014767D01*
X018446Y014767D02*
X019220Y014767D01*
X019446Y014767D02*
X022836Y014767D01*
X023246Y014767D02*
X030843Y014767D01*
X030778Y014609D02*
X019701Y014609D01*
X019794Y014450D02*
X030723Y014450D01*
X030723Y014292D02*
X019823Y014292D01*
X019801Y014133D02*
X030723Y014133D01*
X030771Y013975D02*
X019717Y013975D01*
X018949Y013975D02*
X018717Y013975D01*
X018801Y014133D02*
X018865Y014133D01*
X018843Y014292D02*
X018823Y014292D01*
X018794Y014450D02*
X018872Y014450D01*
X018965Y014609D02*
X018701Y014609D01*
X017965Y014609D02*
X017701Y014609D01*
X017794Y014450D02*
X017872Y014450D01*
X017843Y014292D02*
X017823Y014292D01*
X017801Y014133D02*
X017865Y014133D01*
X017949Y013975D02*
X017717Y013975D01*
X017181Y013816D02*
X017084Y013816D01*
X016949Y013975D02*
X016925Y013975D01*
X016865Y014133D02*
X016801Y014133D01*
X016823Y014292D02*
X016843Y014292D01*
X016872Y014450D02*
X016794Y014450D01*
X016701Y014609D02*
X016965Y014609D01*
X015828Y015084D02*
X002742Y015084D01*
X002718Y015108D02*
X002361Y015256D01*
X001974Y015256D01*
X001617Y015108D01*
X001344Y014834D01*
X001196Y014477D01*
X001196Y014090D01*
X001344Y013733D01*
X001617Y013460D01*
X001974Y013312D01*
X002361Y013312D01*
X002718Y013460D01*
X002992Y013733D01*
X003140Y014090D01*
X003140Y014477D01*
X002992Y014834D01*
X002718Y015108D01*
X002900Y014926D02*
X015669Y014926D01*
X015510Y014767D02*
X015446Y014767D01*
X015220Y014767D02*
X014446Y014767D01*
X014220Y014767D02*
X013446Y014767D01*
X013220Y014767D02*
X012446Y014767D01*
X012220Y014767D02*
X011446Y014767D01*
X011220Y014767D02*
X010446Y014767D01*
X010220Y014767D02*
X009446Y014767D01*
X009220Y014767D02*
X008446Y014767D01*
X008220Y014767D02*
X007446Y014767D01*
X007220Y014767D02*
X006446Y014767D01*
X006430Y014774D02*
X006236Y014774D01*
X006055Y014699D01*
X005918Y014561D01*
X005843Y014381D01*
X005843Y014186D01*
X005918Y014006D01*
X006055Y013868D01*
X006123Y013840D01*
X006123Y011460D01*
X005284Y010621D01*
X005150Y010621D01*
X005017Y010567D01*
X004916Y010465D01*
X004861Y010333D01*
X004861Y010190D01*
X004916Y010057D01*
X005017Y009956D01*
X005150Y009901D01*
X005293Y009901D01*
X005425Y009956D01*
X005527Y010057D01*
X005581Y010190D01*
X005581Y010324D01*
X006420Y011163D01*
X006543Y011286D01*
X006543Y013840D01*
X006611Y013868D01*
X006748Y014006D01*
X006823Y014186D01*
X006823Y014381D01*
X006748Y014561D01*
X006611Y014699D01*
X006430Y014774D01*
X006220Y014767D02*
X005495Y014767D01*
X005529Y014756D02*
X005452Y014781D01*
X005373Y014794D01*
X005351Y014794D01*
X005351Y014302D01*
X005314Y014302D01*
X005314Y014265D01*
X004823Y014265D01*
X004823Y014244D01*
X004836Y014164D01*
X004860Y014088D01*
X004897Y014016D01*
X004944Y013952D01*
X005001Y013895D01*
X005066Y013848D01*
X005137Y013811D01*
X005214Y013786D01*
X005293Y013774D01*
X005314Y013774D01*
X005314Y014265D01*
X005351Y014265D01*
X005351Y013774D01*
X005373Y013774D01*
X005452Y013786D01*
X005529Y013811D01*
X005600Y013848D01*
X005665Y013895D01*
X005722Y013952D01*
X005769Y014016D01*
X005806Y014088D01*
X005830Y014164D01*
X005843Y014244D01*
X005843Y014265D01*
X005352Y014265D01*
X005352Y014302D01*
X005843Y014302D01*
X005843Y014324D01*
X005830Y014403D01*
X005806Y014480D01*
X005769Y014551D01*
X005722Y014616D01*
X005665Y014673D01*
X005600Y014720D01*
X005529Y014756D01*
X005351Y014767D02*
X005314Y014767D01*
X005314Y014794D02*
X005293Y014794D01*
X005214Y014781D01*
X005137Y014756D01*
X005066Y014720D01*
X005001Y014673D01*
X004944Y014616D01*
X004897Y014551D01*
X004860Y014480D01*
X004836Y014403D01*
X004823Y014324D01*
X004823Y014302D01*
X005314Y014302D01*
X005314Y014794D01*
X005171Y014767D02*
X004446Y014767D01*
X004430Y014774D02*
X004236Y014774D01*
X004055Y014699D01*
X003918Y014561D01*
X003843Y014381D01*
X003843Y014186D01*
X003918Y014006D01*
X004055Y013868D01*
X004236Y013794D01*
X004430Y013794D01*
X004611Y013868D01*
X004748Y014006D01*
X004823Y014186D01*
X004823Y014381D01*
X004748Y014561D01*
X004611Y014699D01*
X004430Y014774D01*
X004220Y014767D02*
X003019Y014767D01*
X003085Y014609D02*
X003965Y014609D01*
X003872Y014450D02*
X003140Y014450D01*
X003140Y014292D02*
X003843Y014292D01*
X003865Y014133D02*
X003140Y014133D01*
X003092Y013975D02*
X003949Y013975D01*
X004181Y013816D02*
X003026Y013816D01*
X002916Y013658D02*
X006123Y013658D01*
X006123Y013816D02*
X005539Y013816D01*
X005351Y013816D02*
X005314Y013816D01*
X005314Y013975D02*
X005351Y013975D01*
X005351Y014133D02*
X005314Y014133D01*
X005314Y014292D02*
X004823Y014292D01*
X004801Y014133D02*
X004846Y014133D01*
X004927Y013975D02*
X004717Y013975D01*
X004484Y013816D02*
X005127Y013816D01*
X005739Y013975D02*
X005949Y013975D01*
X005865Y014133D02*
X005820Y014133D01*
X005843Y014292D02*
X005352Y014292D01*
X005351Y014450D02*
X005314Y014450D01*
X005314Y014609D02*
X005351Y014609D01*
X005727Y014609D02*
X005965Y014609D01*
X005872Y014450D02*
X005815Y014450D01*
X004939Y014609D02*
X004701Y014609D01*
X004794Y014450D02*
X004851Y014450D01*
X006701Y014609D02*
X006965Y014609D01*
X006872Y014450D02*
X006794Y014450D01*
X006823Y014292D02*
X006843Y014292D01*
X006865Y014133D02*
X006801Y014133D01*
X006717Y013975D02*
X006949Y013975D01*
X007717Y013975D02*
X007949Y013975D01*
X007865Y014133D02*
X007801Y014133D01*
X007823Y014292D02*
X007843Y014292D01*
X007872Y014450D02*
X007794Y014450D01*
X007701Y014609D02*
X007965Y014609D01*
X008701Y014609D02*
X008965Y014609D01*
X008872Y014450D02*
X008794Y014450D01*
X008823Y014292D02*
X008843Y014292D01*
X008865Y014133D02*
X008801Y014133D01*
X008717Y013975D02*
X008949Y013975D01*
X009717Y013975D02*
X009949Y013975D01*
X009865Y014133D02*
X009801Y014133D01*
X009823Y014292D02*
X009843Y014292D01*
X009872Y014450D02*
X009794Y014450D01*
X009701Y014609D02*
X009965Y014609D01*
X010701Y014609D02*
X010965Y014609D01*
X010872Y014450D02*
X010794Y014450D01*
X010823Y014292D02*
X010843Y014292D01*
X010865Y014133D02*
X010801Y014133D01*
X010717Y013975D02*
X010949Y013975D01*
X011717Y013975D02*
X011949Y013975D01*
X011865Y014133D02*
X011801Y014133D01*
X011823Y014292D02*
X011843Y014292D01*
X011872Y014450D02*
X011794Y014450D01*
X011701Y014609D02*
X011965Y014609D01*
X012701Y014609D02*
X012965Y014609D01*
X012872Y014450D02*
X012794Y014450D01*
X012823Y014292D02*
X012843Y014292D01*
X012865Y014133D02*
X012801Y014133D01*
X012717Y013975D02*
X012949Y013975D01*
X013717Y013975D02*
X013949Y013975D01*
X013865Y014133D02*
X013801Y014133D01*
X013823Y014292D02*
X013843Y014292D01*
X013872Y014450D02*
X013794Y014450D01*
X013701Y014609D02*
X013965Y014609D01*
X014701Y014609D02*
X014965Y014609D01*
X014872Y014450D02*
X014794Y014450D01*
X014823Y014292D02*
X014843Y014292D01*
X014865Y014133D02*
X014801Y014133D01*
X014717Y013975D02*
X014949Y013975D01*
X016484Y013816D02*
X016490Y013816D01*
X017124Y013182D02*
X006543Y013182D01*
X006543Y013023D02*
X017282Y013023D01*
X019192Y012231D02*
X006543Y012231D01*
X006543Y012389D02*
X024451Y012389D01*
X024451Y012231D02*
X019681Y012231D01*
X019782Y012072D02*
X024451Y012072D01*
X024451Y011914D02*
X024151Y011914D01*
X024151Y011755D02*
X024451Y011755D01*
X024451Y011597D02*
X024151Y011597D01*
X024151Y011438D02*
X024451Y011438D01*
X024451Y011279D02*
X024151Y011279D01*
X024151Y011121D02*
X024451Y011121D01*
X024451Y010962D02*
X024151Y010962D01*
X024151Y010804D02*
X024451Y010804D01*
X024451Y010645D02*
X024227Y010645D01*
X024301Y010487D02*
X024378Y010487D01*
X024301Y010328D02*
X024292Y010328D01*
X024310Y010170D02*
X024199Y010170D01*
X023011Y010804D02*
X006061Y010804D01*
X006219Y010962D02*
X022826Y010962D01*
X022781Y011121D02*
X006378Y011121D01*
X006536Y011279D02*
X016654Y011279D01*
X016555Y011438D02*
X006543Y011438D01*
X006543Y011597D02*
X016541Y011597D01*
X016606Y011755D02*
X006543Y011755D01*
X006543Y011914D02*
X019076Y011914D01*
X019091Y012072D02*
X006543Y012072D01*
X006123Y012072D02*
X000661Y012072D01*
X000661Y011914D02*
X006123Y011914D01*
X006123Y011755D02*
X000661Y011755D01*
X000661Y011597D02*
X006123Y011597D01*
X006101Y011438D02*
X000661Y011438D01*
X000661Y011279D02*
X005942Y011279D01*
X005784Y011121D02*
X000661Y011121D01*
X000661Y010962D02*
X005625Y010962D01*
X005467Y010804D02*
X000661Y010804D01*
X000661Y010645D02*
X005308Y010645D01*
X004938Y010487D02*
X000661Y010487D01*
X000661Y010328D02*
X004861Y010328D01*
X004870Y010170D02*
X000661Y010170D01*
X000661Y010011D02*
X004963Y010011D01*
X005480Y010011D02*
X005874Y010011D01*
X005731Y009853D02*
X000661Y009853D01*
X000661Y009694D02*
X005731Y009694D01*
X005731Y009535D02*
X000661Y009535D01*
X000661Y009377D02*
X005731Y009377D01*
X005731Y009218D02*
X000661Y009218D01*
X000661Y009060D02*
X005731Y009060D01*
X005731Y008901D02*
X000661Y008901D01*
X000661Y008743D02*
X005731Y008743D01*
X005731Y008584D02*
X000661Y008584D01*
X000661Y008426D02*
X005731Y008426D01*
X005731Y008267D02*
X000661Y008267D01*
X000661Y008109D02*
X005731Y008109D01*
X005731Y007950D02*
X000661Y007950D01*
X000661Y007791D02*
X005731Y007791D01*
X005731Y007633D02*
X000661Y007633D01*
X000661Y007474D02*
X005731Y007474D01*
X005731Y007316D02*
X000661Y007316D01*
X000661Y007157D02*
X002998Y007157D01*
X003080Y007191D02*
X002893Y007114D01*
X002749Y006970D01*
X002671Y006783D01*
X002671Y006580D01*
X002749Y006393D01*
X002893Y006249D01*
X003080Y006171D01*
X003283Y006171D01*
X003470Y006249D01*
X003614Y006393D01*
X003691Y006580D01*
X003691Y006783D01*
X003614Y006970D01*
X003470Y007114D01*
X003283Y007191D01*
X003080Y007191D01*
X003365Y007157D02*
X005731Y007157D01*
X005731Y006999D02*
X003585Y006999D01*
X003668Y006840D02*
X005731Y006840D01*
X005731Y006682D02*
X003691Y006682D01*
X003668Y006523D02*
X005731Y006523D01*
X005731Y006365D02*
X003586Y006365D01*
X003366Y006206D02*
X005731Y006206D01*
X005731Y006048D02*
X000661Y006048D01*
X000661Y006206D02*
X002996Y006206D01*
X002777Y006365D02*
X000661Y006365D01*
X000661Y006523D02*
X002695Y006523D01*
X002671Y006682D02*
X000661Y006682D01*
X000661Y006840D02*
X002695Y006840D01*
X002778Y006999D02*
X000661Y006999D01*
X000661Y005889D02*
X005731Y005889D01*
X005731Y005730D02*
X000661Y005730D01*
X000661Y005572D02*
X005731Y005572D01*
X005731Y005413D02*
X000661Y005413D01*
X000661Y005255D02*
X005731Y005255D01*
X005731Y005096D02*
X003691Y005096D01*
X003691Y005098D02*
X003598Y005191D01*
X002765Y005191D01*
X002671Y005098D01*
X002671Y004265D01*
X002765Y004171D01*
X003598Y004171D01*
X003691Y004265D01*
X003691Y005098D01*
X003691Y004938D02*
X005731Y004938D01*
X005731Y004779D02*
X003691Y004779D01*
X003691Y004621D02*
X005731Y004621D01*
X005731Y004462D02*
X003691Y004462D01*
X003691Y004304D02*
X005731Y004304D01*
X005731Y004145D02*
X000661Y004145D01*
X000661Y003986D02*
X005731Y003986D01*
X005731Y003828D02*
X000661Y003828D01*
X000661Y003669D02*
X005731Y003669D01*
X005731Y003511D02*
X000661Y003511D01*
X000661Y003352D02*
X005731Y003352D01*
X005731Y003194D02*
X000661Y003194D01*
X000661Y004304D02*
X002671Y004304D01*
X002671Y004462D02*
X000661Y004462D01*
X000661Y004621D02*
X002671Y004621D01*
X002671Y004779D02*
X000661Y004779D01*
X000661Y004938D02*
X002671Y004938D01*
X002671Y005096D02*
X000661Y005096D01*
X010647Y009853D02*
X021956Y009853D01*
X022114Y010011D02*
X010489Y010011D01*
X010330Y010170D02*
X022273Y010170D01*
X022431Y010328D02*
X005585Y010328D01*
X005573Y010170D02*
X006033Y010170D01*
X005744Y010487D02*
X022461Y010487D01*
X022536Y010645D02*
X005902Y010645D01*
X006123Y012231D02*
X000661Y012231D01*
X000661Y012389D02*
X006123Y012389D01*
X006123Y012548D02*
X000661Y012548D01*
X000661Y012706D02*
X006123Y012706D01*
X006123Y012865D02*
X000661Y012865D01*
X000661Y013023D02*
X006123Y013023D01*
X006123Y013182D02*
X000661Y013182D01*
X000661Y013341D02*
X001905Y013341D01*
X001578Y013499D02*
X000661Y013499D01*
X000661Y013658D02*
X001419Y013658D01*
X001309Y013816D02*
X000661Y013816D01*
X000661Y013975D02*
X001243Y013975D01*
X001196Y014133D02*
X000661Y014133D01*
X000661Y014292D02*
X001196Y014292D01*
X001196Y014450D02*
X000661Y014450D01*
X000661Y014609D02*
X001250Y014609D01*
X001316Y014767D02*
X000661Y014767D01*
X000661Y014926D02*
X001435Y014926D01*
X001594Y015084D02*
X000661Y015084D01*
X000661Y015243D02*
X001943Y015243D01*
X002392Y015243D02*
X015986Y015243D01*
X022898Y015402D02*
X000661Y015402D01*
X000661Y015560D02*
X041201Y015560D01*
X041201Y015402D02*
X023185Y015402D01*
X023360Y015243D02*
X031471Y015243D01*
X031121Y015084D02*
X023401Y015084D01*
X023371Y014926D02*
X030963Y014926D01*
X029315Y013023D02*
X025396Y013023D01*
X025555Y012865D02*
X029261Y012865D01*
X029279Y012706D02*
X025713Y012706D01*
X024451Y012706D02*
X006543Y012706D01*
X006543Y012548D02*
X024451Y012548D01*
X024451Y012865D02*
X006543Y012865D01*
X006123Y013341D02*
X002431Y013341D01*
X002758Y013499D02*
X006123Y013499D01*
X013168Y009377D02*
X020723Y009377D01*
X022980Y008901D02*
X038013Y008901D01*
X037859Y009060D02*
X023169Y009060D01*
X025358Y008109D02*
X014436Y008109D01*
X021337Y006523D02*
X022611Y006523D01*
X022611Y006365D02*
X021495Y006365D01*
X021654Y006206D02*
X022177Y006206D01*
X022076Y006048D02*
X021812Y006048D01*
X024180Y005572D02*
X037921Y005572D01*
X037763Y005413D02*
X024285Y005413D01*
X024301Y005255D02*
X037721Y005255D01*
X037721Y005096D02*
X034524Y005096D01*
X034682Y004938D02*
X035081Y004938D01*
X035282Y004938D02*
X036081Y004938D01*
X036282Y004938D02*
X037775Y004938D01*
X037933Y004779D02*
X036534Y004779D01*
X036622Y004621D02*
X037970Y004621D01*
X037812Y004462D02*
X036641Y004462D01*
X036641Y004304D02*
X037721Y004304D01*
X037721Y004145D02*
X036641Y004145D01*
X036641Y003986D02*
X037726Y003986D01*
X037884Y003828D02*
X036641Y003828D01*
X035771Y003669D02*
X035591Y003669D01*
X035641Y003828D02*
X035721Y003828D01*
X035721Y003986D02*
X035641Y003986D01*
X035641Y004145D02*
X035721Y004145D01*
X035721Y004304D02*
X035641Y004304D01*
X035641Y004462D02*
X035721Y004462D01*
X035741Y004621D02*
X035622Y004621D01*
X035534Y004779D02*
X035829Y004779D01*
X038612Y006048D02*
X039058Y006048D01*
X039217Y005889D02*
X038771Y005889D01*
X038929Y005730D02*
X039375Y005730D01*
X039441Y005572D02*
X039534Y005572D01*
X039600Y005413D02*
X039692Y005413D01*
X039721Y005255D02*
X039641Y005255D01*
X039641Y005096D02*
X039721Y005096D01*
X039775Y004938D02*
X039588Y004938D01*
X039430Y004779D02*
X039933Y004779D01*
X039942Y004621D02*
X039393Y004621D01*
X039551Y004462D02*
X039783Y004462D01*
X039701Y004304D02*
X039641Y004304D01*
X039701Y004161D02*
X039701Y003983D01*
X039983Y003701D01*
X040161Y003701D01*
X040161Y004161D01*
X039701Y004161D01*
X039701Y004145D02*
X039641Y004145D01*
X039637Y003986D02*
X039701Y003986D01*
X039856Y003828D02*
X039478Y003828D01*
X040161Y003828D02*
X040201Y003828D01*
X040201Y003986D02*
X040161Y003986D01*
X040161Y004145D02*
X040201Y004145D01*
X040201Y004304D02*
X040161Y004304D01*
X040161Y004462D02*
X040201Y004462D01*
X040201Y004621D02*
X040161Y004621D01*
X040421Y004621D02*
X040451Y004621D01*
X040451Y004779D02*
X040430Y004779D01*
X040871Y004779D02*
X041201Y004779D01*
X041201Y004621D02*
X040871Y004621D01*
X040871Y004462D02*
X041201Y004462D01*
X041201Y004304D02*
X040871Y004304D01*
X040871Y004145D02*
X041201Y004145D01*
X041201Y003986D02*
X040871Y003986D01*
X040871Y003828D02*
X041201Y003828D01*
X041201Y003669D02*
X040871Y003669D01*
X040871Y003511D02*
X041201Y003511D01*
X041201Y003352D02*
X040871Y003352D01*
X040871Y003194D02*
X041201Y003194D01*
X041201Y003035D02*
X040852Y003035D01*
X040451Y003352D02*
X038609Y003352D01*
X038768Y003511D02*
X040451Y003511D01*
X040451Y003669D02*
X038926Y003669D01*
X040871Y004938D02*
X041201Y004938D01*
X041201Y005096D02*
X040871Y005096D01*
X040871Y005255D02*
X041201Y005255D01*
X041201Y005413D02*
X040871Y005413D01*
X040768Y005572D02*
X041201Y005572D01*
X041201Y005730D02*
X040609Y005730D01*
X040371Y005889D02*
X041201Y005889D01*
X041201Y006048D02*
X040212Y006048D01*
X040054Y006206D02*
X041201Y006206D01*
X041201Y006365D02*
X039895Y006365D01*
X039737Y006523D02*
X041201Y006523D01*
X041201Y006682D02*
X039581Y006682D01*
X039570Y006840D02*
X041201Y006840D01*
X041201Y006999D02*
X039473Y006999D01*
X038970Y006999D02*
X038211Y006999D01*
X038221Y006840D02*
X038873Y006840D01*
X038861Y006682D02*
X038151Y006682D01*
X038931Y006523D02*
X034354Y006523D01*
X034381Y006682D02*
X037572Y006682D01*
X037501Y006840D02*
X034337Y006840D01*
X034148Y006999D02*
X037467Y006999D01*
X037309Y007157D02*
X028221Y007157D01*
X028192Y006999D02*
X033895Y006999D01*
X036357Y008109D02*
X026065Y008109D01*
X026080Y007950D02*
X036516Y007950D01*
X036674Y007791D02*
X026238Y007791D01*
X026397Y007633D02*
X036833Y007633D01*
X036991Y007474D02*
X027998Y007474D01*
X028179Y007316D02*
X037150Y007316D01*
X037585Y007474D02*
X041201Y007474D01*
X041201Y007316D02*
X037744Y007316D01*
X038115Y007157D02*
X041201Y007157D01*
X041201Y007633D02*
X037427Y007633D01*
X037268Y007791D02*
X041201Y007791D01*
X041201Y007950D02*
X037110Y007950D01*
X036951Y008109D02*
X041201Y008109D01*
X041201Y008267D02*
X036793Y008267D01*
X036634Y008426D02*
X041201Y008426D01*
X041201Y008584D02*
X036476Y008584D01*
X036687Y009218D02*
X037821Y009218D01*
X037729Y009377D02*
X036776Y009377D01*
X036780Y009535D02*
X037570Y009535D01*
X027725Y007474D02*
X026555Y007474D01*
X025406Y007817D02*
X025351Y007950D01*
X025540Y006206D02*
X025035Y006206D01*
X032431Y002718D02*
X033108Y002718D01*
X033266Y002560D02*
X032548Y002560D01*
X022809Y011279D02*
X017149Y011279D01*
X017197Y011755D02*
X019139Y011755D01*
D17*
X019436Y011966D02*
X019561Y011841D01*
X023941Y011841D01*
X023941Y010421D01*
X023541Y010341D02*
X023541Y011541D01*
X016901Y011541D01*
X017461Y013141D02*
X016341Y014261D01*
X016333Y014284D01*
X016111Y015071D02*
X015381Y014341D01*
X015333Y014284D01*
X016111Y015071D02*
X023041Y015071D01*
X024581Y013541D02*
X021221Y013541D01*
X024581Y013541D02*
X025701Y012421D01*
X032341Y012421D01*
X034821Y009941D01*
X034901Y009541D02*
X035221Y009861D01*
X037541Y009861D01*
X038181Y009221D01*
X036421Y009461D02*
X036261Y009301D01*
X022901Y009301D01*
X022431Y009056D02*
X022431Y009701D01*
X022581Y009701D01*
X023221Y010341D01*
X023221Y011141D01*
X023141Y011141D01*
X025061Y010661D02*
X026181Y009541D01*
X034901Y009541D01*
X036341Y008421D02*
X022901Y008421D01*
X022821Y008341D01*
X021621Y008341D01*
X020901Y009061D01*
X022021Y009621D02*
X010581Y009621D01*
X010101Y010101D01*
X006261Y010101D01*
X005941Y009781D01*
X005941Y003061D01*
X033061Y003061D01*
X033381Y002741D01*
X036101Y002741D01*
X034021Y003381D02*
X038341Y003381D01*
X039141Y004181D01*
X039181Y004181D01*
X039181Y005181D02*
X038421Y005941D01*
X026261Y005941D01*
X026581Y006341D02*
X025701Y006341D01*
X025621Y006421D01*
X024741Y006421D01*
X025781Y006741D02*
X033941Y006741D01*
X034021Y006661D01*
X036341Y008421D02*
X037861Y006901D01*
X039221Y006741D02*
X040341Y005621D01*
X040421Y005621D01*
X040661Y005381D01*
X040661Y003141D01*
X033301Y003141D01*
X032501Y003941D01*
X021141Y003941D01*
X022821Y004741D02*
X007461Y004741D01*
X007141Y004421D01*
X007141Y004171D01*
X010101Y009301D02*
X012981Y006421D01*
X021141Y006421D01*
X022021Y005541D01*
X022421Y005141D02*
X013781Y005141D01*
X009621Y009301D01*
X010181Y009701D02*
X006341Y009701D01*
X005221Y010261D02*
X006333Y011373D01*
X006333Y014284D01*
X017461Y013141D02*
X024661Y013141D01*
X024661Y010261D01*
X024021Y009861D02*
X023541Y010341D01*
X022821Y010421D02*
X022021Y009621D01*
X022431Y009056D02*
X022671Y008816D01*
X022671Y008706D01*
X022821Y007541D02*
X014706Y007541D01*
X012866Y009381D01*
X010501Y009381D01*
X010181Y009701D01*
X022421Y005941D02*
X022421Y005141D01*
X022821Y004741D02*
X022821Y007061D01*
X023301Y007621D02*
X023301Y006341D01*
X023621Y006341D01*
X023941Y006021D01*
X023941Y005301D01*
X024341Y004901D01*
X026581Y004901D01*
X026661Y004981D01*
X034341Y004981D01*
X035141Y004181D01*
X035181Y004181D01*
X034021Y003381D02*
X033221Y004181D01*
X025541Y004181D01*
X025221Y004501D01*
X023541Y004341D02*
X016101Y004341D01*
X023541Y004341D02*
X023541Y005941D01*
X025711Y008021D02*
X026591Y007141D01*
X027861Y007141D01*
X026661Y006261D02*
X026581Y006341D01*
X026661Y006261D02*
X039141Y006261D01*
X040181Y005221D01*
X040181Y005181D01*
X025541Y009701D02*
X025381Y009861D01*
X024021Y009861D01*
X029621Y012821D02*
X033121Y012821D01*
X034081Y013781D01*
X037781Y013781D01*
X038101Y013461D01*
M02*
