G75*
G70*
%OFA0B0*%
%FSLAX24Y24*%
%IPPOS*%
%LPD*%
%AMOC8*
5,1,8,0,0,1.08239X$1,22.5*
%
%ADD10C,0.0060*%
%ADD11C,0.0030*%
%ADD12C,0.0040*%
D10*
X002532Y003961D02*
X002532Y004388D01*
X002532Y005961D02*
X002532Y006388D01*
X002745Y006175D02*
X002318Y006175D01*
X020916Y001711D02*
X021343Y001711D01*
X021129Y001711D02*
X021129Y002352D01*
X021343Y002138D01*
X021558Y001818D02*
X021558Y001711D01*
X021665Y001711D01*
X021665Y001818D01*
X021558Y001818D01*
X021883Y001818D02*
X021989Y001711D01*
X022203Y001711D01*
X022310Y001818D01*
X021883Y002245D01*
X021883Y001818D01*
X022310Y001818D02*
X022310Y002245D01*
X022203Y002352D01*
X021989Y002352D01*
X021883Y002245D01*
X022527Y002138D02*
X022741Y001711D01*
X022954Y002138D01*
X023816Y002138D02*
X024137Y002138D01*
X024243Y002032D01*
X024243Y001818D01*
X024137Y001711D01*
X023816Y001711D01*
X023816Y002352D01*
X024461Y002032D02*
X024568Y002138D01*
X024781Y002138D01*
X024888Y002032D01*
X024888Y001818D01*
X024781Y001711D01*
X024568Y001711D01*
X024461Y001818D01*
X024461Y002032D01*
X025105Y002032D02*
X025105Y002245D01*
X025212Y002352D01*
X025532Y002352D01*
X025532Y001711D01*
X025532Y001925D02*
X025212Y001925D01*
X025105Y002032D01*
X026394Y002138D02*
X026500Y002138D01*
X026714Y001925D01*
X026714Y002138D02*
X026714Y001711D01*
X026931Y001925D02*
X027358Y001925D01*
X027358Y001818D02*
X027358Y002032D01*
X027252Y002138D01*
X027038Y002138D01*
X026931Y002032D01*
X026931Y001925D01*
X027038Y001711D02*
X027252Y001711D01*
X027358Y001818D01*
X027575Y001711D02*
X027681Y001818D01*
X027681Y002245D01*
X027575Y002138D02*
X027788Y002138D01*
X028004Y002138D02*
X028218Y002138D01*
X028111Y002245D02*
X028111Y001818D01*
X028004Y001711D01*
X028435Y001711D02*
X028435Y002138D01*
X028862Y002138D02*
X028862Y001818D01*
X028756Y001711D01*
X028435Y001711D01*
X029080Y001711D02*
X029080Y002032D01*
X029187Y002138D01*
X029400Y002138D01*
X029507Y002032D01*
X029724Y001925D02*
X029724Y001818D01*
X029831Y001711D01*
X030045Y001711D01*
X030151Y001818D01*
X030045Y002032D02*
X029831Y002032D01*
X029724Y001925D01*
X029507Y001711D02*
X029507Y002352D01*
X029724Y002245D02*
X029831Y002352D01*
X030045Y002352D01*
X030151Y002245D01*
X030151Y002138D01*
X030045Y002032D01*
D11*
X003741Y001342D02*
X003741Y001293D01*
X003934Y001293D01*
X003934Y001245D02*
X003934Y001342D01*
X003886Y001390D01*
X003789Y001390D01*
X003741Y001342D01*
X003789Y001196D02*
X003886Y001196D01*
X003934Y001245D01*
X004035Y001245D02*
X004084Y001293D01*
X004181Y001293D01*
X004229Y001342D01*
X004181Y001390D01*
X004035Y001390D01*
X004035Y001245D02*
X004084Y001196D01*
X004229Y001196D01*
X004330Y001196D02*
X004330Y001342D01*
X004378Y001390D01*
X004524Y001390D01*
X004524Y001196D01*
X004625Y001293D02*
X004625Y001342D01*
X004673Y001390D01*
X004770Y001390D01*
X004818Y001342D01*
X004818Y001245D01*
X004770Y001196D01*
X004673Y001196D01*
X004625Y001293D02*
X004818Y001293D01*
X004919Y001196D02*
X005064Y001196D01*
X005113Y001245D01*
X005113Y001342D01*
X005064Y001390D01*
X004919Y001390D01*
X005261Y001390D02*
X005261Y001196D01*
X005309Y001196D02*
X005213Y001196D01*
X005410Y001196D02*
X005604Y001196D01*
X005604Y001487D01*
X005309Y001390D02*
X005261Y001390D01*
X005261Y001487D02*
X005261Y001535D01*
X006000Y001390D02*
X006000Y001196D01*
X006000Y001342D02*
X006193Y001342D01*
X006193Y001390D02*
X006096Y001487D01*
X006000Y001390D01*
X006193Y001390D02*
X006193Y001196D01*
X006294Y001245D02*
X006343Y001196D01*
X006439Y001196D01*
X006488Y001245D01*
X006439Y001342D02*
X006343Y001342D01*
X006294Y001293D01*
X006294Y001245D01*
X006439Y001342D02*
X006488Y001390D01*
X006488Y001438D01*
X006439Y001487D01*
X006343Y001487D01*
X006294Y001438D01*
X006589Y001342D02*
X006782Y001342D01*
X006884Y001438D02*
X006884Y001487D01*
X006884Y001438D02*
X006980Y001342D01*
X006980Y001196D01*
X006980Y001342D02*
X007077Y001438D01*
X007077Y001487D01*
X007178Y001438D02*
X007178Y001390D01*
X007227Y001342D01*
X007372Y001342D01*
X007372Y001487D02*
X007372Y001196D01*
X007227Y001196D01*
X007178Y001245D01*
X007178Y001293D01*
X007227Y001342D01*
X007178Y001438D02*
X007227Y001487D01*
X007372Y001487D01*
X007768Y001438D02*
X007961Y001245D01*
X007913Y001196D01*
X007816Y001196D01*
X007768Y001245D01*
X007768Y001438D01*
X007816Y001487D01*
X007913Y001487D01*
X007961Y001438D01*
X007961Y001245D01*
X008060Y001245D02*
X008060Y001196D01*
X008108Y001196D01*
X008108Y001245D01*
X008060Y001245D01*
X008210Y001245D02*
X008258Y001196D01*
X008355Y001196D01*
X008403Y001245D01*
X008306Y001342D02*
X008258Y001342D01*
X008210Y001293D01*
X008210Y001245D01*
X008258Y001342D02*
X008210Y001390D01*
X008210Y001438D01*
X008258Y001487D01*
X008355Y001487D01*
X008403Y001438D01*
X008799Y001390D02*
X008944Y001390D01*
X008992Y001342D01*
X008944Y001293D01*
X008847Y001293D01*
X008799Y001245D01*
X008847Y001196D01*
X008992Y001196D01*
X009094Y001196D02*
X009094Y001342D01*
X009142Y001390D01*
X009287Y001390D01*
X009287Y001196D01*
X009388Y001245D02*
X009388Y001342D01*
X009436Y001390D01*
X009533Y001390D01*
X009582Y001342D01*
X009582Y001245D01*
X009533Y001196D01*
X009436Y001196D01*
X009388Y001245D01*
X009683Y001196D02*
X009683Y001342D01*
X009731Y001390D01*
X009780Y001342D01*
X009780Y001196D01*
X009876Y001196D02*
X009876Y001390D01*
X009828Y001390D01*
X009780Y001342D01*
X009977Y001342D02*
X009977Y001196D01*
X010074Y001196D02*
X010074Y001342D01*
X010026Y001390D01*
X009977Y001342D01*
X010074Y001342D02*
X010123Y001390D01*
X010171Y001390D01*
X010171Y001196D01*
X010272Y001245D02*
X010272Y001342D01*
X010320Y001390D01*
X010417Y001390D01*
X010466Y001342D01*
X010466Y001245D01*
X010417Y001196D01*
X010320Y001196D01*
X010272Y001245D01*
X010567Y001245D02*
X010615Y001196D01*
X010712Y001196D01*
X010760Y001245D01*
X010760Y001438D01*
X010712Y001487D01*
X010615Y001487D01*
X010567Y001438D01*
X011156Y001342D02*
X011156Y001293D01*
X011349Y001293D01*
X011349Y001245D02*
X011349Y001342D01*
X011301Y001390D01*
X011204Y001390D01*
X011156Y001342D01*
X011204Y001196D02*
X011301Y001196D01*
X011349Y001245D01*
X011451Y001390D02*
X011547Y001196D01*
X011644Y001390D01*
X011792Y001390D02*
X011792Y001196D01*
X011744Y001196D02*
X011841Y001196D01*
X011940Y001196D02*
X011989Y001245D01*
X011989Y001438D01*
X012037Y001390D02*
X011940Y001390D01*
X011841Y001390D02*
X011792Y001390D01*
X011792Y001487D02*
X011792Y001535D01*
X012138Y001342D02*
X012138Y001196D01*
X012283Y001196D01*
X012332Y001245D01*
X012283Y001293D01*
X012138Y001293D01*
X012138Y001342D02*
X012186Y001390D01*
X012283Y001390D01*
X012433Y001342D02*
X012433Y001293D01*
X012626Y001293D01*
X012626Y001245D02*
X012626Y001342D01*
X012578Y001390D01*
X012481Y001390D01*
X012433Y001342D01*
X012481Y001196D02*
X012578Y001196D01*
X012626Y001245D01*
X012727Y001390D02*
X012775Y001390D01*
X012872Y001293D01*
X012872Y001196D02*
X012872Y001390D01*
X012973Y001438D02*
X013021Y001487D01*
X013118Y001487D01*
X013166Y001438D01*
X013166Y001245D01*
X013118Y001196D01*
X013021Y001196D01*
X012973Y001245D01*
X038116Y001245D02*
X038164Y001196D01*
X038261Y001196D01*
X038309Y001245D01*
X038116Y001438D01*
X038116Y001245D01*
X038309Y001245D02*
X038309Y001438D01*
X038261Y001487D01*
X038164Y001487D01*
X038116Y001438D01*
X038410Y001196D02*
X038604Y001196D01*
X038507Y001196D02*
X038507Y001487D01*
X038604Y001390D01*
X038705Y001438D02*
X038899Y001245D01*
X038850Y001196D01*
X038753Y001196D01*
X038705Y001245D01*
X038705Y001438D01*
X038753Y001487D01*
X038850Y001487D01*
X038899Y001438D01*
X038899Y001245D01*
X039000Y001196D02*
X039193Y001196D01*
X039000Y001390D01*
X039000Y001438D01*
X039048Y001487D01*
X039145Y001487D01*
X039193Y001438D01*
X039294Y001487D02*
X039488Y001196D01*
X039589Y001245D02*
X039637Y001196D01*
X039734Y001196D01*
X039782Y001245D01*
X039884Y001196D02*
X040077Y001196D01*
X039980Y001196D02*
X039980Y001487D01*
X040077Y001390D01*
X040178Y001487D02*
X040372Y001196D01*
X040473Y001245D02*
X040473Y001438D01*
X040521Y001487D01*
X040618Y001487D01*
X040666Y001438D01*
X040666Y001390D01*
X040618Y001342D01*
X040473Y001342D01*
X040473Y001245D02*
X040521Y001196D01*
X040618Y001196D01*
X040666Y001245D01*
X039782Y001438D02*
X039734Y001487D01*
X039637Y001487D01*
X039589Y001438D01*
X039589Y001390D01*
X039637Y001342D01*
X039589Y001293D01*
X039589Y001245D01*
X039637Y001342D02*
X039686Y001342D01*
D12*
X030161Y001278D02*
X030085Y001201D01*
X029855Y001201D01*
X029701Y001278D02*
X029701Y001432D01*
X029624Y001508D01*
X029471Y001508D01*
X029394Y001432D01*
X029394Y001278D01*
X029471Y001201D01*
X029624Y001201D01*
X029701Y001278D01*
X029241Y001278D02*
X029241Y001432D01*
X029164Y001508D01*
X028934Y001508D01*
X028934Y001662D02*
X028934Y001201D01*
X029164Y001201D01*
X029241Y001278D01*
X028780Y001278D02*
X028780Y001432D01*
X028704Y001508D01*
X028550Y001508D01*
X028473Y001432D01*
X028473Y001355D01*
X028780Y001355D01*
X028780Y001278D02*
X028704Y001201D01*
X028550Y001201D01*
X028320Y001201D02*
X028243Y001201D01*
X028243Y001278D01*
X028320Y001278D01*
X028320Y001201D01*
X028090Y001278D02*
X028013Y001201D01*
X027783Y001201D01*
X027783Y001125D02*
X027783Y001508D01*
X028013Y001508D01*
X028090Y001432D01*
X028090Y001278D01*
X027936Y001048D02*
X027860Y001048D01*
X027783Y001125D01*
X027629Y001278D02*
X027553Y001201D01*
X027399Y001201D01*
X027323Y001278D01*
X027323Y001432D01*
X027399Y001508D01*
X027553Y001508D01*
X027629Y001432D01*
X027629Y001278D01*
X027169Y001278D02*
X027169Y001432D01*
X027092Y001508D01*
X026939Y001508D01*
X026862Y001432D01*
X026862Y001278D01*
X026939Y001201D01*
X027092Y001201D01*
X027169Y001278D01*
X026709Y001278D02*
X026709Y001432D01*
X026632Y001508D01*
X026402Y001508D01*
X026402Y001125D01*
X026479Y001048D01*
X026555Y001048D01*
X026632Y001201D02*
X026402Y001201D01*
X026248Y001201D02*
X026095Y001201D01*
X026172Y001201D02*
X026172Y001662D01*
X026248Y001662D01*
X025942Y001432D02*
X025865Y001508D01*
X025711Y001508D01*
X025635Y001432D01*
X025635Y001355D01*
X025942Y001355D01*
X025942Y001278D02*
X025942Y001432D01*
X025942Y001278D02*
X025865Y001201D01*
X025711Y001201D01*
X025481Y001201D02*
X025404Y001201D01*
X025404Y001278D01*
X025481Y001278D01*
X025481Y001201D01*
X025251Y001278D02*
X025174Y001201D01*
X024944Y001201D01*
X024791Y001278D02*
X024714Y001201D01*
X024561Y001201D01*
X024484Y001278D01*
X024484Y001432D01*
X024561Y001508D01*
X024714Y001508D01*
X024791Y001432D01*
X024791Y001278D01*
X025174Y001508D02*
X025251Y001432D01*
X025251Y001278D01*
X025174Y001508D02*
X024944Y001508D01*
X024330Y001508D02*
X024254Y001508D01*
X024177Y001432D01*
X024100Y001508D01*
X024023Y001432D01*
X024023Y001201D01*
X023870Y001201D02*
X023563Y001662D01*
X023410Y001508D02*
X023179Y001508D01*
X023103Y001432D01*
X023103Y001278D01*
X023179Y001201D01*
X023410Y001201D01*
X023410Y001048D02*
X023410Y001508D01*
X022949Y001201D02*
X022642Y001662D01*
X022412Y001508D02*
X022182Y001508D01*
X022259Y001355D02*
X022412Y001355D01*
X022489Y001432D01*
X022412Y001508D01*
X022259Y001355D02*
X022182Y001278D01*
X022259Y001201D01*
X022489Y001201D01*
X022029Y001201D02*
X022029Y001662D01*
X021952Y001508D02*
X021798Y001508D01*
X021722Y001432D01*
X021722Y001201D01*
X021568Y001278D02*
X021491Y001201D01*
X021261Y001201D01*
X021261Y001508D01*
X021108Y001508D02*
X020954Y001508D01*
X021031Y001585D02*
X021031Y001278D01*
X020954Y001201D01*
X020724Y001278D02*
X020648Y001201D01*
X020724Y001278D02*
X020724Y001585D01*
X020801Y001508D02*
X020648Y001508D01*
X020494Y001432D02*
X020417Y001508D01*
X020264Y001508D01*
X020187Y001432D01*
X020187Y001355D01*
X020494Y001355D01*
X020494Y001278D02*
X020494Y001432D01*
X020494Y001278D02*
X020417Y001201D01*
X020264Y001201D01*
X020034Y001201D02*
X020034Y001508D01*
X020034Y001355D02*
X019880Y001508D01*
X019804Y001508D01*
X019650Y001508D02*
X019420Y001508D01*
X019343Y001432D01*
X019343Y001278D01*
X019420Y001201D01*
X019650Y001201D01*
X019650Y001048D02*
X019650Y001508D01*
X019190Y001432D02*
X019190Y001278D01*
X019113Y001201D01*
X018960Y001201D01*
X018883Y001278D01*
X018883Y001432D01*
X018960Y001508D01*
X019113Y001508D01*
X019190Y001432D01*
X018729Y001432D02*
X018729Y001278D01*
X018653Y001201D01*
X018422Y001201D01*
X018422Y001662D01*
X018422Y001508D02*
X018653Y001508D01*
X018729Y001432D01*
X021568Y001508D02*
X021568Y001278D01*
X021952Y001508D02*
X022029Y001432D01*
X024177Y001432D02*
X024177Y001201D01*
X024330Y001201D02*
X024330Y001508D01*
X026632Y001201D02*
X026709Y001278D01*
X029855Y001508D02*
X030085Y001508D01*
X030161Y001432D01*
X030161Y001278D01*
X002287Y004326D02*
X002287Y004557D01*
X002210Y004633D01*
X002133Y004633D01*
X002057Y004557D01*
X002057Y004326D01*
X002287Y004326D02*
X001826Y004326D01*
X001826Y004557D01*
X001903Y004633D01*
X001980Y004633D01*
X002057Y004557D01*
X001903Y004787D02*
X001980Y004863D01*
X001980Y005094D01*
X002057Y005094D02*
X001826Y005094D01*
X001826Y004863D01*
X001903Y004787D01*
X002133Y004863D02*
X002133Y005017D01*
X002057Y005094D01*
X002133Y005247D02*
X002133Y005401D01*
X002210Y005324D02*
X001903Y005324D01*
X001826Y005401D01*
X001903Y005631D02*
X001826Y005707D01*
X001903Y005631D02*
X002210Y005631D01*
X002133Y005554D02*
X002133Y005707D01*
X002057Y005861D02*
X002133Y005938D01*
X002133Y006091D01*
X002057Y006168D01*
X001980Y006168D01*
X001980Y005861D01*
X001903Y005861D02*
X002057Y005861D01*
X001903Y005861D02*
X001826Y005938D01*
X001826Y006091D01*
X001826Y006321D02*
X002133Y006321D01*
X001980Y006321D02*
X002133Y006475D01*
X002133Y006551D01*
X002133Y006705D02*
X001903Y006705D01*
X001826Y006782D01*
X001826Y007012D01*
X001750Y007012D02*
X001673Y006935D01*
X001673Y006858D01*
X001750Y007012D02*
X002133Y007012D01*
M02*
