G75*
G70*
%OFA0B0*%
%FSLAX24Y24*%
%IPPOS*%
%LPD*%
%AMOC8*
5,1,8,0,0,1.08239X$1,22.5*
%
%ADD10C,0.1064*%
%ADD11C,0.0740*%
%ADD12R,0.0592X0.0671*%
%ADD13R,0.0671X0.0592*%
%ADD14R,0.0867X0.1852*%
%ADD15R,0.1182X0.1025*%
%ADD16R,0.0552X0.0257*%
%ADD17R,0.0840X0.2180*%
%ADD18OC8,0.0680*%
%ADD19C,0.0680*%
%ADD20R,0.0474X0.0631*%
%ADD21R,0.0580X0.0300*%
%ADD22R,0.0300X0.0580*%
%ADD23R,0.0946X0.0316*%
%ADD24R,0.0470X0.0470*%
%ADD25R,0.0780X0.0780*%
%ADD26C,0.0780*%
%ADD27R,0.1104X0.0946*%
%ADD28R,0.1104X0.0867*%
%ADD29C,0.0552*%
%ADD30C,0.0480*%
D10*
X002168Y002079D03*
X031695Y002079D03*
X031695Y014284D03*
X002168Y014284D03*
D11*
X004333Y014284D03*
X005333Y014284D03*
X006333Y014284D03*
X007333Y014284D03*
X008333Y014284D03*
X009333Y014284D03*
X010333Y014284D03*
X011333Y014284D03*
X012333Y014284D03*
X013333Y014284D03*
X014333Y014284D03*
X015333Y014284D03*
X016333Y014284D03*
X017333Y014284D03*
X018333Y014284D03*
X019333Y014284D03*
D12*
X020807Y014181D03*
X021555Y014181D03*
X019805Y009556D03*
X019057Y009556D03*
X019057Y007931D03*
X019805Y007931D03*
X019805Y006306D03*
X019057Y006306D03*
X021807Y004681D03*
X022555Y004681D03*
X023807Y004681D03*
X024555Y004681D03*
X025807Y004681D03*
X026555Y004681D03*
D13*
X027181Y006307D03*
X027181Y007055D03*
X027181Y009307D03*
X027181Y010055D03*
X021056Y011307D03*
X021056Y012055D03*
X013306Y012307D03*
X012306Y012307D03*
X011306Y012307D03*
X010306Y012307D03*
X010306Y013055D03*
X011306Y013055D03*
X012306Y013055D03*
X013306Y013055D03*
X007681Y013055D03*
X007681Y012307D03*
X006181Y012307D03*
X004681Y012307D03*
X004681Y013055D03*
X006181Y013055D03*
X006181Y011055D03*
X006181Y010307D03*
X005681Y004555D03*
X005681Y003807D03*
X005681Y003055D03*
X005681Y002307D03*
X007181Y002307D03*
X008681Y002307D03*
X008681Y003055D03*
X007181Y003055D03*
X010181Y003055D03*
X010181Y002307D03*
D14*
X009969Y007681D03*
X008394Y007681D03*
D15*
X005931Y008297D03*
X005931Y005816D03*
X012181Y005922D03*
X012181Y003441D03*
D16*
X009538Y004298D03*
X009538Y004553D03*
X009538Y004809D03*
X009538Y005065D03*
X007825Y005065D03*
X007825Y004809D03*
X007825Y004553D03*
X007825Y004298D03*
D17*
X016931Y006031D03*
X016931Y009831D03*
D18*
X038181Y005181D03*
X039181Y005181D03*
X040181Y005181D03*
X040181Y004181D03*
X039181Y004181D03*
X038181Y004181D03*
D19*
X036181Y004481D02*
X036181Y003881D01*
X035181Y003881D02*
X035181Y004481D01*
X034181Y004481D02*
X034181Y003881D01*
D20*
X005055Y011114D03*
X004307Y011114D03*
X004681Y010248D03*
D21*
X021491Y009284D03*
X021491Y008969D03*
X021491Y008654D03*
X021491Y008339D03*
X021491Y008024D03*
X021491Y007709D03*
X021491Y007394D03*
X021491Y007079D03*
X024871Y007079D03*
X024871Y007394D03*
X024871Y007709D03*
X024871Y008024D03*
X024871Y008339D03*
X024871Y008654D03*
X024871Y008969D03*
X024871Y009284D03*
D22*
X024284Y009871D03*
X023969Y009871D03*
X023654Y009871D03*
X023339Y009871D03*
X023024Y009871D03*
X022709Y009871D03*
X022394Y009871D03*
X022079Y009871D03*
X022079Y006491D03*
X022394Y006491D03*
X022709Y006491D03*
X023024Y006491D03*
X023339Y006491D03*
X023654Y006491D03*
X023969Y006491D03*
X024284Y006491D03*
D23*
X024580Y011681D03*
X024580Y012181D03*
X024580Y012681D03*
X024580Y013181D03*
X022533Y013181D03*
X022533Y012681D03*
X022533Y012181D03*
X022533Y011681D03*
X026783Y011681D03*
X026783Y012181D03*
X026783Y012681D03*
X026783Y013181D03*
X028830Y013181D03*
X028830Y012681D03*
X028830Y012181D03*
X028830Y011681D03*
D24*
G36*
X035509Y008907D02*
X035177Y009239D01*
X035509Y009571D01*
X035841Y009239D01*
X035509Y008907D01*
G37*
G36*
X036124Y009522D02*
X035792Y009854D01*
X036124Y010186D01*
X036456Y009854D01*
X036124Y009522D01*
G37*
G36*
X038348Y010076D02*
X038016Y009744D01*
X037684Y010076D01*
X038016Y010408D01*
X038348Y010076D01*
G37*
G36*
X038878Y009546D02*
X038546Y009214D01*
X038214Y009546D01*
X038546Y009878D01*
X038878Y009546D01*
G37*
G36*
X039408Y009016D02*
X039076Y008684D01*
X038744Y009016D01*
X039076Y009348D01*
X039408Y009016D01*
G37*
G36*
X035618Y007347D02*
X035286Y007015D01*
X034954Y007347D01*
X035286Y007679D01*
X035618Y007347D01*
G37*
G36*
X036149Y006817D02*
X035817Y006485D01*
X035485Y006817D01*
X035817Y007149D01*
X036149Y006817D01*
G37*
G36*
X036679Y006286D02*
X036347Y005954D01*
X036015Y006286D01*
X036347Y006618D01*
X036679Y006286D01*
G37*
G36*
X038239Y006177D02*
X037907Y006509D01*
X038239Y006841D01*
X038571Y006509D01*
X038239Y006177D01*
G37*
G36*
X038854Y006792D02*
X038522Y007124D01*
X038854Y007456D01*
X039186Y007124D01*
X038854Y006792D01*
G37*
D25*
X003181Y004681D03*
D26*
X003181Y006681D03*
D27*
X036000Y014197D03*
X038363Y014197D03*
D28*
X038166Y012268D03*
X036197Y012268D03*
D29*
X037181Y013016D03*
X037181Y014591D03*
D30*
X038101Y013461D03*
X029621Y012821D03*
X025061Y010661D03*
X023941Y010421D03*
X024661Y010261D03*
X025541Y009701D03*
X022901Y009301D03*
X022671Y008706D03*
X020901Y009061D03*
X020681Y008021D03*
X022821Y007541D03*
X023301Y007621D03*
X022821Y007061D03*
X024341Y007461D03*
X025711Y008021D03*
X027861Y007141D03*
X026581Y006341D03*
X026261Y005941D03*
X024741Y006421D03*
X025781Y006741D03*
X023541Y005941D03*
X022421Y005941D03*
X022021Y005541D03*
X023941Y005301D03*
X024421Y005301D03*
X025221Y004501D03*
X026501Y005301D03*
X021141Y003941D03*
X016101Y004341D03*
X013061Y006821D03*
X013931Y007681D03*
X014556Y008306D03*
X012101Y008981D03*
X010101Y009301D03*
X009621Y009301D03*
X012101Y010021D03*
X016901Y011541D03*
X019436Y011966D03*
X021306Y012681D03*
X021221Y013541D03*
X023861Y012741D03*
X023141Y011141D03*
X022821Y010421D03*
X034021Y006661D03*
X037861Y006901D03*
X039221Y006741D03*
X038181Y009221D03*
X036421Y009461D03*
X034821Y009941D03*
X023041Y015071D03*
X006341Y009701D03*
X005221Y010261D03*
X007141Y004171D03*
X009431Y001556D03*
X036101Y002741D03*
M02*
